STARTFONT 2.1
COMMENT HBF_START_FONT 1.1
COMMENT HBF_CODE_SCHEME Big5 KC 6.22
FONT kck24
COMMENT
COMMENT Kuo Chiao Chinese System is contributed by KC INFORMATION CO.,
COMMENT LTD. to all TANET users running on PC, available from
COMMENT ftp://moers2.edu.tw/chinese-pub/chinese-sys/kc
COMMENT
COMMENT An equivalent full X11R5 XLFD conforming font name is
COMMENT	-KC-Kai-medium-r-normal-fantizi-24-240-75-75-c-240-Big5.KC.6.22-1
COMMENT which is formed from the first 15 properties listed in
COMMENT the STARTPROPERTIES section below.
COMMENT Any of these properties is optional, as in the simple HBF file.
COMMENT Last modified by cyl@ifcss.org, 1995.11.25
COMMENT
SIZE 24 75 75
COMMENT HBF_BITMAP_BOUNDING_BOX 24 24 0 -2
FONTBOUNDINGBOX 24 24 0 -2
COMMENT
COMMENT  Begin Logical Font Description -- 20 special properties for this FONT
COMMENT
STARTPROPERTIES 20
FONTNAME_REGISTRY ""
FOUNDRY "Kuo Chiau"
FAMILY_NAME "Kai"
WEIGHT_NAME "medium"
SLANT "r"
SETWIDTH_NAME "normal"
ADD_STYLE_NAME "fantizi"
PIXEL_SIZE 24
POINT_SIZE 240
RESOLUTION_X 75
RESOLUTION_Y 75
SPACING "c"
AVERAGE_WIDTH 240
CHARSET_REGISTRY "Big5.KC.6.22"
CHARSET_ENCODING "1"
FONT_ASCENT 22
FONT_DESCENT 2
DEFAULT_CHAR 41280
COMMENT 0xA140 is the Space character.
COPYRIGHT "(c)1992 Kuo Chiao Information Systems, Ltd."
NOTICE "The hanzi bitmap file is kcchin24.f02"
COMMENT "This HBF header file is in the public domain."
COMMENT Users should observe the copyrights of the hanzi bitmap files.
ENDPROPERTIES
COMMENT HBF_START_BYTE_2_RANGES 2
COMMENT HBF_BYTE_2_RANGE 0x40-0x7E
COMMENT HBF_BYTE_2_RANGE 0xA1-0xFE
COMMENT HBF_END_BYTE_2_RANGES
COMMENT
COMMENT HBF_START_CODE_RANGES 4
COMMENT HBF_CODE_RANGE 0xA140-0xA3BF kcchin24.f02 256
COMMENT HBF_CODE_RANGE 0xA3C0-0xA3FE kcchin24.f02 29632
COMMENT HBF_CODE_RANGE 0xA440-0xC67E kcchin24.f02 55336
COMMENT HBF_CODE_RANGE 0xC940-0xF9D5 kcchin24.f02 444208
COMMENT HBF_END_CODE_RANGES
COMMENT Standard symbols 0xA140-0xA3BF (408 chars)

STARTCHAR Ca140
ENCODING 41280
SWIDTH 666 0
DWIDTH 24 0
BBX 24 24 0 -2
BITMAP
000000
000000
000000
000000
000000
000000
000000
000000
000000
000000
000000
000000
000000
000000
000000
000000
000000
000000
000000
000000
000000
000000
000000
000000
ENDCHAR
STARTCHAR Ca141
ENCODING 41281
SWIDTH 666 0
DWIDTH 24 0
BBX 24 24 0 -2
BITMAP
000000
000000
000000
000000
000000
000000
000000
000000
003c00
003c00
003c00
003c00
000c00
001800
001800
003000
000000
000000
000000
000000
000000
000000
000000
000000
ENDCHAR
STARTCHAR Ca142
ENCODING 41282
SWIDTH 666 0
DWIDTH 24 0
BBX 24 24 0 -2
BITMAP
000000
000000
000000
000000
000000
000000
000000
000000
000000
000000
000000
00c000
00f000
003800
001c00
001e00
000f00
000f00
000700
000000
000000
000000
000000
000000
ENDCHAR
STARTCHAR Ca143
ENCODING 41283
SWIDTH 666 0
DWIDTH 24 0
BBX 24 24 0 -2
BITMAP
000000
000000
000000
000000
000000
000000
000000
000000
000000
000000
00fc00
01ce00
018600
030300
030300
018700
01ce00
00fc00
007800
000000
000000
000000
000000
000000
ENDCHAR
STARTCHAR Ca144
ENCODING 41284
SWIDTH 666 0
DWIDTH 24 0
BBX 24 24 0 -2
BITMAP
000000
000000
000000
000000
000000
000000
000000
000000
000000
003c00
003e00
003e00
003e00
001c00
000000
000000
000000
000000
000000
000000
000000
000000
000000
000000
ENDCHAR
STARTCHAR Ca145
ENCODING 41285
SWIDTH 666 0
DWIDTH 24 0
BBX 24 24 0 -2
BITMAP
000000
000000
000000
000000
000000
000000
000000
000000
000000
001800
003c00
007e00
007e00
003c00
001800
000000
000000
000000
000000
000000
000000
000000
000000
000000
ENDCHAR
STARTCHAR Ca146
ENCODING 41286
SWIDTH 666 0
DWIDTH 24 0
BBX 24 24 0 -2
BITMAP
000000
000000
000000
000000
001800
003c00
003c00
003c00
001800
000000
000000
001800
003c00
003c00
003c00
001c00
000c00
001800
003000
000000
000000
000000
000000
000000
ENDCHAR
STARTCHAR Ca147
ENCODING 41287
SWIDTH 666 0
DWIDTH 24 0
BBX 24 24 0 -2
BITMAP
000000
000000
000000
000000
001800
003c00
003c00
003c00
001800
000000
000000
000000
001800
003c00
003c00
003c00
001800
000000
000000
000000
000000
000000
000000
000000
ENDCHAR
STARTCHAR Ca148
ENCODING 41288
SWIDTH 666 0
DWIDTH 24 0
BBX 24 24 0 -2
BITMAP
000000
000000
007c00
00ff00
01c380
018380
01c180
01c180
008380
000300
000600
000e00
000c00
000c00
000800
000800
000800
000800
000000
001c00
001c00
001c00
000000
000000
ENDCHAR
STARTCHAR Ca149
ENCODING 41289
SWIDTH 666 0
DWIDTH 24 0
BBX 24 24 0 -2
BITMAP
000000
000000
001c00
003c00
003c00
003c00
003c00
003c00
001c00
001c00
001c00
001c00
001c00
001800
001800
001800
001800
000000
000000
001c00
003c00
003c00
001800
000000
ENDCHAR
STARTCHAR Ca14a
ENCODING 41290
SWIDTH 666 0
DWIDTH 24 0
BBX 24 24 0 -2
BITMAP
000000
000000
000000
000000
000000
000000
003c00
003c00
003c00
003c00
000000
000000
000000
000000
003c00
003c00
003c00
003c00
000000
000000
000000
000000
000000
000000
ENDCHAR
STARTCHAR Ca14b
ENCODING 41291
SWIDTH 666 0
DWIDTH 24 0
BBX 24 24 0 -2
BITMAP
000000
000000
000000
000000
000000
000000
000000
000000
000000
783c1e
783c1e
783c1e
30180c
000000
000000
000000
000000
000000
000000
000000
000000
000000
000000
000000
ENDCHAR
STARTCHAR Ca14c
ENCODING 41292
SWIDTH 666 0
DWIDTH 24 0
BBX 24 24 0 -2
BITMAP
000000
000000
000000
000000
000000
000000
000000
000000
000000
0781e0
0781e0
0781e0
0300c0
000000
000000
000000
000000
000000
000000
000000
000000
000000
000000
000000
ENDCHAR
STARTCHAR Ca14d
ENCODING 41293
SWIDTH 666 0
DWIDTH 24 0
BBX 24 24 0 -2
BITMAP
000000
000000
000000
000000
000000
000000
000000
000000
000000
000000
000000
000000
000000
007800
007800
007800
007800
003800
003000
003000
00e000
000000
000000
000000
ENDCHAR
STARTCHAR Ca14e
ENCODING 41294
SWIDTH 666 0
DWIDTH 24 0
BBX 24 24 0 -2
BITMAP
000000
000000
000000
000000
000000
000000
000000
000000
000000
000000
000000
000000
000000
008000
00c000
007000
003800
003800
001c00
001c00
000000
000000
000000
000000
ENDCHAR
STARTCHAR Ca14f
ENCODING 41295
SWIDTH 666 0
DWIDTH 24 0
BBX 24 24 0 -2
BITMAP
000000
000000
000000
000000
000000
000000
000000
000000
000000
000000
000000
000000
000000
000000
000000
000000
000000
003000
007800
007800
003000
000000
000000
000000
ENDCHAR
STARTCHAR Ca150
ENCODING 41296
SWIDTH 666 0
DWIDTH 24 0
BBX 24 24 0 -2
BITMAP
000000
000000
000000
000000
000000
000000
000000
000000
000000
00f000
00f000
00f000
00f000
000000
000000
000000
000000
000000
000000
000000
000000
000000
000000
000000
ENDCHAR
STARTCHAR Ca151
ENCODING 41297
SWIDTH 666 0
DWIDTH 24 0
BBX 24 24 0 -2
BITMAP
000000
000000
000000
000000
000000
000000
001800
003c00
003c00
001800
000000
000000
000000
000000
001c00
003c00
003c00
001c00
000c00
001800
003000
000000
000000
000000
ENDCHAR
STARTCHAR Ca152
ENCODING 41298
SWIDTH 666 0
DWIDTH 24 0
BBX 24 24 0 -2
BITMAP
000000
000000
000000
000000
000000
000000
000000
001c00
001c00
001800
000000
000000
000000
000000
001800
001c00
001c00
000000
000000
000000
000000
000000
000000
000000
ENDCHAR
STARTCHAR Ca153
ENCODING 41299
SWIDTH 666 0
DWIDTH 24 0
BBX 24 24 0 -2
BITMAP
000000
000000
000000
000000
007e00
00e700
00c300
00c300
00c700
000600
000c00
000c00
000c00
000800
000800
000800
000000
000000
001c00
001c00
001c00
000000
000000
000000
ENDCHAR
STARTCHAR Ca154
ENCODING 41300
SWIDTH 666 0
DWIDTH 24 0
BBX 24 24 0 -2
BITMAP
000000
000000
001c00
003c00
003c00
003c00
003c00
003c00
003c00
001c00
001c00
001c00
001800
001800
001800
001800
001800
001800
000000
000000
001c00
001c00
001800
000000
ENDCHAR
STARTCHAR Ca155
ENCODING 41301
SWIDTH 666 0
DWIDTH 24 0
BBX 24 24 0 -2
BITMAP
001800
001800
001800
001800
001800
001800
001800
001800
001800
001800
001800
001800
001800
001800
001800
001800
001800
001800
001800
001800
001800
001800
001800
001800
ENDCHAR
STARTCHAR Ca156
ENCODING 41302
SWIDTH 666 0
DWIDTH 24 0
BBX 24 24 0 -2
BITMAP
000000
000000
000000
000000
000000
000000
000000
000000
000000
000000
000000
0ffff0
0ffff0
000000
000000
000000
000000
000000
000000
000000
000000
000000
000000
000000
ENDCHAR
STARTCHAR Ca157
ENCODING 41303
SWIDTH 666 0
DWIDTH 24 0
BBX 24 24 0 -2
BITMAP
001000
001000
001000
001000
001000
001000
001000
001000
001000
001000
001000
001000
001000
001000
001000
001000
001000
001000
001000
001000
001000
001000
001000
001000
ENDCHAR
STARTCHAR Ca158
ENCODING 41304
SWIDTH 666 0
DWIDTH 24 0
BBX 24 24 0 -2
BITMAP
000000
000000
000000
000000
000000
000000
000000
000000
000000
000000
000000
000000
0ffff0
000000
000000
000000
000000
000000
000000
000000
000000
000000
000000
000000
ENDCHAR
STARTCHAR Ca159
ENCODING 41305
SWIDTH 666 0
DWIDTH 24 0
BBX 24 24 0 -2
BITMAP
600000
600000
600000
600000
600000
600000
600000
600000
600000
600000
600000
600000
600000
600000
600000
600000
600000
600000
600000
600000
600000
600000
600000
600000
ENDCHAR
STARTCHAR Ca15a
ENCODING 41306
SWIDTH 666 0
DWIDTH 24 0
BBX 24 24 0 -2
BITMAP
000000
000000
000000
000000
000000
000000
000000
000000
000000
000000
000000
000000
000000
000000
000000
000000
000000
000000
000000
000000
000000
ffffff
000000
000000
ENDCHAR
STARTCHAR Ca15b
ENCODING 41307
SWIDTH 666 0
DWIDTH 24 0
BBX 24 24 0 -2
BITMAP
380000
1c0000
0e0000
070000
070000
0e0000
1c0000
380000
380000
1c0000
0e0000
070000
070000
0e0000
1c0000
380000
380000
1c0000
0e0000
070000
070000
0e0000
1c0000
380000
ENDCHAR
STARTCHAR Ca15c
ENCODING 41308
SWIDTH 666 0
DWIDTH 24 0
BBX 24 24 0 -2
BITMAP
000000
000000
000000
000000
000000
000000
000000
000000
000000
000000
000000
000000
000000
000000
000000
000000
101010
383838
7c7c7c
e6e6e6
c3c3c3
818181
000000
000000
ENDCHAR
STARTCHAR Ca15d
ENCODING 41309
SWIDTH 666 0
DWIDTH 24 0
BBX 24 24 0 -2
BITMAP
000600
000c00
001c00
001800
003800
003000
003000
003000
003000
006000
006000
006000
006000
006000
006000
003000
003000
003000
003000
003800
001800
001c00
000c00
000600
ENDCHAR
STARTCHAR Ca15e
ENCODING 41310
SWIDTH 666 0
DWIDTH 24 0
BBX 24 24 0 -2
BITMAP
006000
003000
003800
001800
001c00
000c00
000c00
000c00
000c00
000600
000600
000600
000600
000600
000600
000c00
000c00
000c00
000c00
001c00
001800
003800
003000
006000
ENDCHAR
STARTCHAR Ca15f
ENCODING 41311
SWIDTH 666 0
DWIDTH 24 0
BBX 24 24 0 -2
BITMAP
000000
000000
000000
000000
000000
000000
000000
000000
000000
000000
000000
000000
03ffe0
1ffff8
3e003c
70000e
e00007
c00003
000000
000000
000000
000000
000000
000000
ENDCHAR
STARTCHAR Ca160
ENCODING 41312
SWIDTH 666 0
DWIDTH 24 0
BBX 24 24 0 -2
BITMAP
000000
000000
000000
000000
000000
000000
800003
e00007
78001e
3f01fc
0ffff0
03ffc0
000000
000000
000000
000000
000000
000000
000000
000000
000000
000000
000000
000000
ENDCHAR
STARTCHAR Ca161
ENCODING 41313
SWIDTH 666 0
DWIDTH 24 0
BBX 24 24 0 -2
BITMAP
000600
000c00
000c00
000c00
000c00
000c00
000c00
000c00
000c00
001c00
001800
003000
003000
001800
001c00
000c00
000c00
000c00
000c00
000c00
000c00
000c00
000c00
000600
ENDCHAR
STARTCHAR Ca162
ENCODING 41314
SWIDTH 666 0
DWIDTH 24 0
BBX 24 24 0 -2
BITMAP
006000
003000
003000
003000
003000
003000
003000
003000
003000
003800
001800
000c00
000c00
001800
003800
003000
003000
003000
003000
003000
003000
003000
003000
006000
ENDCHAR
STARTCHAR Ca163
ENCODING 41315
SWIDTH 666 0
DWIDTH 24 0
BBX 24 24 0 -2
BITMAP
000000
000000
000000
000000
000000
000000
000000
000000
000000
000000
000000
000000
003800
007c00
3feffc
ffc7ff
ff83ff
c00003
800001
800001
000000
000000
000000
000000
ENDCHAR
STARTCHAR Ca164
ENCODING 41316
SWIDTH 666 0
DWIDTH 24 0
BBX 24 24 0 -2
BITMAP
000000
000000
000000
000000
800001
800001
c00003
ffc1ff
ffe3ff
3ff7fc
003e00
001c00
000000
000000
000000
000000
000000
000000
000000
000000
000000
000000
000000
000000
ENDCHAR
STARTCHAR Ca165
ENCODING 41317
SWIDTH 666 0
DWIDTH 24 0
BBX 24 24 0 -2
BITMAP
000700
001e00
007800
00e000
00c000
00c000
00c000
00c000
00c000
00c000
00c000
00c000
00c000
00c000
00c000
00c000
00c000
00c000
00c000
00c000
00e000
007800
001e00
000700
ENDCHAR
STARTCHAR Ca166
ENCODING 41318
SWIDTH 666 0
DWIDTH 24 0
BBX 24 24 0 -2
BITMAP
00e000
007800
001e00
000700
000300
000300
000300
000300
000300
000300
000300
000300
000300
000300
000300
000300
000300
000300
000300
000300
000700
001e00
007800
00e000
ENDCHAR
STARTCHAR Ca167
ENCODING 41319
SWIDTH 666 0
DWIDTH 24 0
BBX 24 24 0 -2
BITMAP
000000
000000
000000
000000
000000
000000
000000
000000
000000
000000
000000
000000
1ffff8
3ffffc
30000c
600006
600006
c00003
c00003
800001
000000
000000
000000
000000
ENDCHAR
STARTCHAR Ca168
ENCODING 41320
SWIDTH 666 0
DWIDTH 24 0
BBX 24 24 0 -2
BITMAP
000000
000000
000000
000000
800001
c00003
c00003
600006
700006
30000c
3ffffc
1ffff8
000000
000000
000000
000000
000000
000000
000000
000000
000000
000000
000000
000000
ENDCHAR
STARTCHAR Ca169
ENCODING 41321
SWIDTH 666 0
DWIDTH 24 0
BBX 24 24 0 -2
BITMAP
0003fc
0003f8
0003f0
0003e0
0003c0
0003c0
000380
000380
000380
000300
000300
000300
000300
000300
000300
000380
000380
000380
0003c0
0003c0
0003e0
0003f0
0003f8
0003fc
ENDCHAR
STARTCHAR Ca16a
ENCODING 41322
SWIDTH 666 0
DWIDTH 24 0
BBX 24 24 0 -2
BITMAP
3fc000
1fc000
0fc000
07c000
03c000
03c000
01c000
01c000
01c000
00c000
00c000
00c000
00c000
00c000
00c000
01c000
01c000
01c000
03c000
03c000
07c000
0fc000
1fc000
3fc000
ENDCHAR
STARTCHAR Ca16b
ENCODING 41323
SWIDTH 666 0
DWIDTH 24 0
BBX 24 24 0 -2
BITMAP
000000
000000
000000
000000
000000
000000
000000
000000
000000
000000
000000
000000
ffffff
ffffff
ff81ff
fc003f
f0000f
e00007
c00003
800001
000000
000000
000000
000000
ENDCHAR
STARTCHAR Ca16c
ENCODING 41324
SWIDTH 666 0
DWIDTH 24 0
BBX 24 24 0 -2
BITMAP
000000
000000
000000
000000
800001
c00003
e00007
f0000f
fc003f
ff81ff
ffffff
ffffff
000000
000000
000000
000000
000000
000000
000000
000000
000000
000000
000000
000000
ENDCHAR
STARTCHAR Ca16d
ENCODING 41325
SWIDTH 666 0
DWIDTH 24 0
BBX 24 24 0 -2
BITMAP
0000cc
0000cc
000198
000198
000330
000330
000660
000660
000cc0
000cc0
001980
003b80
003b80
001980
000cc0
000cc0
000660
000660
000330
000330
000198
000198
0000cc
0000cc
ENDCHAR
STARTCHAR Ca16e
ENCODING 41326
SWIDTH 666 0
DWIDTH 24 0
BBX 24 24 0 -2
BITMAP
330000
330000
198000
198000
0cc000
0cc000
066000
066000
033000
033000
019800
01dc00
01dc00
019800
033000
033000
066000
066000
0cc000
0cc000
198000
198000
330000
330000
ENDCHAR
STARTCHAR Ca16f
ENCODING 41327
SWIDTH 666 0
DWIDTH 24 0
BBX 24 24 0 -2
BITMAP
000000
000000
000000
000000
000000
000000
000000
000000
001800
003c00
00ff00
03c3c0
0f18f0
3c3c3c
f0ff0f
c3c3c7
0f00f0
3c003c
f0000f
c00007
000000
000000
000000
000000
ENDCHAR
STARTCHAR Ca170
ENCODING 41328
SWIDTH 666 0
DWIDTH 24 0
BBX 24 24 0 -2
BITMAP
000000
000000
000000
000000
c00003
f0000f
3c003c
0f00f0
c3c3c3
f0ff0f
3c3c3c
0f18f0
03c3c0
00ff00
003c00
001800
000000
000000
000000
000000
000000
000000
000000
000000
ENDCHAR
STARTCHAR Ca171
ENCODING 41329
SWIDTH 666 0
DWIDTH 24 0
BBX 24 24 0 -2
BITMAP
000018
000030
000030
000060
000060
0000c0
0000c0
000180
000180
000300
000300
000600
000600
000300
000300
000180
000180
0000c0
0000c0
000060
000060
000030
000030
000018
ENDCHAR
STARTCHAR Ca172
ENCODING 41330
SWIDTH 666 0
DWIDTH 24 0
BBX 24 24 0 -2
BITMAP
180000
180000
0c0000
0c0000
060000
060000
030000
030000
018000
018000
00c000
00e000
00e000
00c000
018000
018000
030000
030000
060000
060000
0c0000
0c0000
180000
180000
ENDCHAR
STARTCHAR Ca173
ENCODING 41331
SWIDTH 666 0
DWIDTH 24 0
BBX 24 24 0 -2
BITMAP
000000
000000
000000
000000
000000
000000
000000
000000
000000
000000
000000
000000
001800
003c00
007e00
00e700
01c380
0381c0
0700e0
0e0070
1c0038
38001c
30000e
000000
ENDCHAR
STARTCHAR Ca174
ENCODING 41332
SWIDTH 666 0
DWIDTH 24 0
BBX 24 24 0 -2
BITMAP
000000
30000e
38001c
1c0038
0e0070
0700e0
0381c0
01c380
00e700
007e00
003c00
001800
000000
000000
000000
000000
000000
000000
000000
000000
000000
000000
000000
000000
ENDCHAR
STARTCHAR Ca175
ENCODING 41333
SWIDTH 666 0
DWIDTH 24 0
BBX 24 24 0 -2
BITMAP
000ffc
000c00
000c00
000c00
000c00
000c00
000c00
000c00
000c00
000c00
000c00
000c00
000c00
000c00
000c00
000000
000000
000000
000000
000000
000000
000000
000000
000000
ENDCHAR
STARTCHAR Ca176
ENCODING 41334
SWIDTH 666 0
DWIDTH 24 0
BBX 24 24 0 -2
BITMAP
000000
000000
000000
000000
000000
000000
000000
000000
000000
003000
003000
003000
003000
003000
003000
003000
003000
003000
003000
003000
003000
003000
003000
3ff000
ENDCHAR
STARTCHAR Ca177
ENCODING 41335
SWIDTH 666 0
DWIDTH 24 0
BBX 24 24 0 -2
BITMAP
000000
000000
000000
000000
000000
000000
000000
000000
000000
000000
000000
000000
3ffffc
3ffffc
00000c
00000c
00000c
00000c
00000c
00000c
00000c
00000c
000000
000000
ENDCHAR
STARTCHAR Ca178
ENCODING 41336
SWIDTH 666 0
DWIDTH 24 0
BBX 24 24 0 -2
BITMAP
000000
000000
300000
300000
300000
300000
300000
300000
300000
300000
3ffffc
3ffffc
000000
000000
000000
000000
000000
000000
000000
000000
000000
000000
000000
000000
ENDCHAR
STARTCHAR Ca179
ENCODING 41337
SWIDTH 666 0
DWIDTH 24 0
BBX 24 24 0 -2
BITMAP
0007fc
000404
000404
0004fc
000480
000480
000480
000480
000480
000480
000480
000480
000480
000480
000480
000480
000780
000000
000000
000000
000000
000000
000000
000000
ENDCHAR
STARTCHAR Ca17a
ENCODING 41338
SWIDTH 666 0
DWIDTH 24 0
BBX 24 24 0 -2
BITMAP
000000
000000
000000
000000
000000
000000
000000
01e000
012000
012000
012000
012000
012000
012000
012000
012000
012000
012000
012000
012000
3f2000
202000
202000
3fe000
ENDCHAR
STARTCHAR Ca17b
ENCODING 41339
SWIDTH 666 0
DWIDTH 24 0
BBX 24 24 0 -2
BITMAP
000000
000000
000000
000000
000000
000000
000000
000000
000000
000000
000000
000000
3ffffc
200004
200004
3fffe4
000024
000024
000024
000024
000024
00003c
000000
000000
ENDCHAR
STARTCHAR Ca17c
ENCODING 41340
SWIDTH 666 0
DWIDTH 24 0
BBX 24 24 0 -2
BITMAP
000000
000000
3c0000
240000
240000
240000
240000
240000
27fffc
200004
200004
3ffffc
000000
000000
000000
000000
000000
000000
000000
000000
000000
000000
000000
000000
ENDCHAR
STARTCHAR Ca17d
ENCODING 41341
SWIDTH 666 0
DWIDTH 24 0
BBX 24 24 0 -2
BITMAP
000000
000000
000000
000000
00000c
00001c
000038
000030
000070
000060
000060
000060
000060
000060
000060
000060
000070
000030
000038
00001c
00000c
000000
000000
000000
ENDCHAR
STARTCHAR Ca17e
ENCODING 41342
SWIDTH 666 0
DWIDTH 24 0
BBX 24 24 0 -2
BITMAP
000000
000000
000000
000000
300000
380000
1c0000
0c0000
0e0000
060000
060000
060000
060000
060000
060000
060000
0e0000
0c0000
1c0000
380000
300000
000000
000000
000000
ENDCHAR
STARTCHAR Ca1a1
ENCODING 41377
SWIDTH 666 0
DWIDTH 24 0
BBX 24 24 0 -2
BITMAP
000000
000000
000000
00003c
00007c
000070
000060
000060
000060
000060
0000e0
0001c0
0001c0
0000e0
000060
000060
000060
000060
000070
00007c
00003c
000000
000000
000000
ENDCHAR
STARTCHAR Ca1a2
ENCODING 41378
SWIDTH 666 0
DWIDTH 24 0
BBX 24 24 0 -2
BITMAP
000000
000000
000000
3c0000
3e0000
0e0000
060000
060000
060000
060000
070000
038000
038000
070000
060000
060000
060000
060000
0e0000
3e0000
3c0000
000000
000000
000000
ENDCHAR
STARTCHAR Ca1a3
ENCODING 41379
SWIDTH 666 0
DWIDTH 24 0
BBX 24 24 0 -2
BITMAP
000000
000000
000000
000000
0000c0
0001c0
000180
000100
000100
000100
000100
000100
000100
000100
000100
000100
000100
000180
0001c0
0000c0
000000
000000
000000
000000
ENDCHAR
STARTCHAR Ca1a4
ENCODING 41380
SWIDTH 666 0
DWIDTH 24 0
BBX 24 24 0 -2
BITMAP
000000
000000
000000
000000
030000
038000
018000
008000
008000
008000
008000
008000
008000
008000
008000
008000
008000
018000
038000
030000
000000
000000
000000
000000
ENDCHAR
STARTCHAR Ca1a5
ENCODING 41381
SWIDTH 666 0
DWIDTH 24 0
BBX 24 24 0 -2
BITMAP
0001c0
000780
000e00
001c00
001f00
001f80
001f80
000f00
000000
000000
000000
000000
000000
000000
000000
000000
000000
000000
000000
000000
000000
000000
000000
000000
ENDCHAR
STARTCHAR Ca1a6
ENCODING 41382
SWIDTH 666 0
DWIDTH 24 0
BBX 24 24 0 -2
BITMAP
000000
00f000
01f800
01f800
00f800
003000
003000
00e000
01c000
000000
000000
000000
000000
000000
000000
000000
000000
000000
000000
000000
000000
000000
000000
000000
ENDCHAR
STARTCHAR Ca1a7
ENCODING 41383
SWIDTH 666 0
DWIDTH 24 0
BBX 24 24 0 -2
BITMAP
00031c
000e38
001c70
003cf0
003cf0
003cf0
003cf0
000000
000000
000000
000000
000000
000000
000000
000000
000000
000000
000000
000000
000000
000000
000000
000000
000000
ENDCHAR
STARTCHAR Ca1a8
ENCODING 41384
SWIDTH 666 0
DWIDTH 24 0
BBX 24 24 0 -2
BITMAP
03cf00
03cf00
03cf00
03cf00
01c700
038e00
0e3800
000000
000000
000000
000000
000000
000000
000000
000000
000000
000000
000000
000000
000000
000000
000000
000000
000000
ENDCHAR
STARTCHAR Ca1a9
ENCODING 41385
SWIDTH 666 0
DWIDTH 24 0
BBX 24 24 0 -2
BITMAP
000000
007000
0e7800
0f7800
0f3c00
079e00
03ce00
01c700
00e300
006000
000000
000000
000000
000000
000000
000000
000000
000000
000000
000000
000000
000000
000000
000000
ENDCHAR
STARTCHAR Ca1aa
ENCODING 41386
SWIDTH 666 0
DWIDTH 24 0
BBX 24 24 0 -2
BITMAP
000c00
001e70
001ef0
003cf0
0039e0
0073c0
006380
00c700
000600
000000
000000
000000
000000
000000
000000
000000
000000
000000
000000
000000
000000
000000
000000
000000
ENDCHAR
STARTCHAR Ca1ab
ENCODING 41387
SWIDTH 666 0
DWIDTH 24 0
BBX 24 24 0 -2
BITMAP
000000
000000
030000
038000
038000
03c000
01c000
00e000
006000
003000
000000
000000
000000
000000
000000
000000
000000
000000
000000
000000
000000
000000
000000
000000
ENDCHAR
STARTCHAR Ca1ac
ENCODING 41388
SWIDTH 666 0
DWIDTH 24 0
BBX 24 24 0 -2
BITMAP
000000
000000
000c00
000e00
001e00
001c00
003800
003000
006000
00c000
000000
000000
000000
000000
000000
000000
000000
000000
000000
000000
000000
000000
000000
000000
ENDCHAR
STARTCHAR Ca1ad
ENCODING 41389
SWIDTH 666 0
DWIDTH 24 0
BBX 24 24 0 -2
BITMAP
000000
00c300
00c300
00c300
00c300
00c3e0
00fff0
07ffe0
07f300
00c300
00c300
00c300
00c300
00c3e0
00fff0
0fffe0
0ff300
00c300
00c300
00c300
00c300
00c300
000000
000000
ENDCHAR
STARTCHAR Ca1ae
ENCODING 41390
SWIDTH 666 0
DWIDTH 24 0
BBX 24 24 0 -2
BITMAP
000000
000000
03e000
07f000
0e3000
0c3800
0e3000
0e7000
07e000
0783f8
0783f8
0dc060
1ce040
18f040
1878c0
1c3cc0
1c1ec0
0c0f80
0e07c0
07fff8
03fcf8
000000
000000
000000
ENDCHAR
STARTCHAR Ca1af
ENCODING 41391
SWIDTH 666 0
DWIDTH 24 0
BBX 24 24 0 -2
BITMAP
000000
000000
000000
000000
001800
e01807
78181e
1e1878
0799e0
01ff80
007e00
ffffff
ffffff
00ff00
03dbc0
0f18f0
3c183c
f0180f
c01803
000000
000000
000000
000000
000000
ENDCHAR
STARTCHAR Ca1b0
ENCODING 41392
SWIDTH 666 0
DWIDTH 24 0
BBX 24 24 0 -2
BITMAP
000000
000000
300000
38001c
3c3c3c
1e3c78
0f3cf0
07bde0
03c3c0
01e780
1eff78
1e7e78
1e3c78
1e7e78
00ff00
01e780
03c3c0
07bde0
0f3cf0
1e3c78
3c3c3c
38001c
000000
000000
ENDCHAR
STARTCHAR Ca1b1
ENCODING 41393
SWIDTH 666 0
DWIDTH 24 0
BBX 24 24 0 -2
BITMAP
007c00
00fe00
01c300
018700
018700
00c600
00f000
007800
00fe00
01cf00
018380
018180
01c180
00f380
007f00
001e00
000f00
000300
00c380
01e180
01e380
01e380
00ff00
003e00
ENDCHAR
STARTCHAR Ca1b2
ENCODING 41394
SWIDTH 666 0
DWIDTH 24 0
BBX 24 24 0 -2
BITMAP
000000
000000
003000
003b80
007380
007300
00e700
00c600
01cc00
018c00
001800
000000
000000
000000
000000
000000
000000
000000
000000
000000
000000
000000
000000
000000
ENDCHAR
STARTCHAR Ca1b3
ENCODING 41395
SWIDTH 666 0
DWIDTH 24 0
BBX 24 24 0 -2
BITMAP
000000
000000
00ff00
03e7c0
0f00e0
0c0030
180018
380018
30000c
30000c
600006
600006
600006
600006
30000e
30000c
38001c
180018
1c0038
0f00f0
03c3c0
00ff00
003c00
000000
ENDCHAR
STARTCHAR Ca1b4
ENCODING 41396
SWIDTH 666 0
DWIDTH 24 0
BBX 24 24 0 -2
BITMAP
000000
000000
01ff00
07ffc0
0ffff0
1ffff8
1ffff8
3ffffc
3ffffc
7ffffe
7ffffe
7ffffe
7ffffe
7ffffe
3ffffc
3ffffc
3ffffc
1ffff8
1ffff8
0ffff0
07ffc0
01ff00
000000
000000
ENDCHAR
STARTCHAR Ca1b5
ENCODING 41397
SWIDTH 666 0
DWIDTH 24 0
BBX 24 24 0 -2
BITMAP
001800
003800
003c00
006c00
006600
00c600
00c300
018300
018180
030180
0300c0
0600c0
060060
0c0060
0c0030
180030
180018
300018
30000c
60000c
600006
fffffe
fffffe
000000
ENDCHAR
STARTCHAR Ca1b6
ENCODING 41398
SWIDTH 666 0
DWIDTH 24 0
BBX 24 24 0 -2
BITMAP
001800
003800
003c00
007c00
007e00
00fe00
00ff00
01ff00
01ff80
03ff80
03ffc0
07ffc0
07ffe0
0fffe0
0ffff0
1ffff0
1ffff8
3ffff8
3ffffc
7ffffc
7ffffe
fffffe
fffffe
000000
ENDCHAR
STARTCHAR Ca1b7
ENCODING 41399
SWIDTH 666 0
DWIDTH 24 0
BBX 24 24 0 -2
BITMAP
000000
000000
00ff00
03e7c0
0f00e0
0c7e30
19ff18
3b8398
3700cc
3600cc
640066
640066
640026
660066
36006e
3300cc
3b81dc
19c398
1c7f38
0f00f0
03c3c0
00ff00
003c00
000000
ENDCHAR
STARTCHAR Ca1b8
ENCODING 41400
SWIDTH 666 0
DWIDTH 24 0
BBX 24 24 0 -2
BITMAP
001000
003800
002800
006c00
006c00
004600
00c600
00c600
ff83ff
ff83ff
78001e
1c0078
0701e0
038380
018300
030180
033180
027c80
06eec0
07c740
0f83e0
0f01e0
0e00e0
180070
ENDCHAR
STARTCHAR Ca1b9
ENCODING 41401
SWIDTH 666 0
DWIDTH 24 0
BBX 24 24 0 -2
BITMAP
001000
003800
003800
007c00
007c00
007e00
00fe00
00fe00
ffffff
ffffff
7ffffe
1ffff8
07ffe0
03ff80
01ff00
03ff80
03ff80
03ff80
07efc0
07c7c0
0f83e0
0f01e0
0e00e0
180070
ENDCHAR
STARTCHAR Ca1ba
ENCODING 41402
SWIDTH 666 0
DWIDTH 24 0
BBX 24 24 0 -2
BITMAP
001800
003c00
007e00
00e700
01c380
0381c0
0700e0
0e0070
1c0038
38001c
70000e
e00007
e0000e
70001c
380038
1c0070
0e00e0
0701c0
038380
01c700
00ee00
007c00
003800
001000
ENDCHAR
STARTCHAR Ca1bb
ENCODING 41403
SWIDTH 666 0
DWIDTH 24 0
BBX 24 24 0 -2
BITMAP
001800
003c00
007e00
00ff00
01ff80
03ffc0
07ffe0
0ffff0
1ffff8
3ffffc
7ffffe
ffffff
7fffff
3ffffe
1ffffc
0ffff8
07fff0
03ffe0
01ffc0
00ff80
007f00
003e00
001c00
000800
ENDCHAR
STARTCHAR Ca1bc
ENCODING 41404
SWIDTH 666 0
DWIDTH 24 0
BBX 24 24 0 -2
BITMAP
000000
000000
3ffffc
200004
200004
200004
200004
200004
200004
200004
200004
200004
200004
200004
200004
200004
200004
200004
200004
200004
200004
3ffffc
000000
000000
ENDCHAR
STARTCHAR Ca1bd
ENCODING 41405
SWIDTH 666 0
DWIDTH 24 0
BBX 24 24 0 -2
BITMAP
000000
000000
3ffffc
3ffffc
3ffffc
3ffffc
3ffffc
3ffffc
3ffffc
3ffffc
3ffffc
3ffffc
3ffffc
3ffffc
3ffffc
3ffffc
3ffffc
3ffffc
3ffffc
3ffffc
3ffffc
3ffffc
000000
000000
ENDCHAR
STARTCHAR Ca1be
ENCODING 41406
SWIDTH 666 0
DWIDTH 24 0
BBX 24 24 0 -2
BITMAP
000000
ffffff
ffffff
600006
600006
30000c
30000c
180018
180018
0c0030
0c0030
060060
060060
0300c0
0300c0
018180
018180
00c300
00c300
006600
006600
003c00
003c00
001800
ENDCHAR
STARTCHAR Ca1bf
ENCODING 41407
SWIDTH 666 0
DWIDTH 24 0
BBX 24 24 0 -2
BITMAP
000000
ffffff
ffffff
7ffffe
7ffffe
3ffffc
3ffffc
1ffff8
1ffff8
0ffff0
0ffff0
07ffe0
07ffe0
03ffc0
03ffc0
01ff80
01ff80
00ff00
00ff00
007e00
007e00
003c00
003c00
001800
ENDCHAR
STARTCHAR Ca1c0
ENCODING 41408
SWIDTH 666 0
DWIDTH 24 0
BBX 24 24 0 -2
BITMAP
000000
000000
00ff00
03e7c0
0f00e0
0ffff0
1bffd8
381818
30180c
30180c
611806
611fc6
611fc6
611806
31180e
31180c
39181c
1ffff8
1c0038
0f00f0
03c3c0
00ff00
003c00
000000
ENDCHAR
STARTCHAR Ca1c1
ENCODING 41409
SWIDTH 666 0
DWIDTH 24 0
BBX 24 24 0 -2
BITMAP
000003
0fc007
3ce00e
70601c
606038
e00070
c000e0
c001c0
c00380
c00700
e18e00
e79cfc
7f3bce
007306
00e606
01ce06
038c06
070c06
0e0c0e
1c0c0c
380c1c
700e78
e007e0
c00000
ENDCHAR
STARTCHAR Ca1c2
ENCODING 41410
SWIDTH 666 0
DWIDTH 24 0
BBX 24 24 0 -2
BITMAP
ffffff
000000
000000
000000
000000
000000
000000
000000
000000
000000
000000
000000
000000
000000
000000
000000
000000
000000
000000
000000
000000
000000
000000
000000
ENDCHAR
STARTCHAR Ca1c3
ENCODING 41411
SWIDTH 666 0
DWIDTH 24 0
BBX 24 24 0 -2
BITMAP
ffffff
ffffff
000000
000000
000000
000000
000000
000000
000000
000000
000000
000000
000000
000000
000000
000000
000000
000000
000000
000000
000000
000000
000000
000000
ENDCHAR
STARTCHAR Ca1c4
ENCODING 41412
SWIDTH 666 0
DWIDTH 24 0
BBX 24 24 0 -2
BITMAP
000000
000000
000000
000000
000000
000000
000000
000000
000000
000000
000000
000000
000000
000000
000000
000000
000000
000000
000000
000000
000000
000000
000000
ffffff
ENDCHAR
STARTCHAR Ca1c5
ENCODING 41413
SWIDTH 666 0
DWIDTH 24 0
BBX 24 24 0 -2
BITMAP
000000
000000
000000
000000
000000
000000
000000
000000
000000
000000
000000
000000
000000
000000
000000
000000
000000
000000
000000
000000
000000
000000
ffffff
ffffff
ENDCHAR
STARTCHAR Ca1c6
ENCODING 41414
SWIDTH 666 0
DWIDTH 24 0
BBX 24 24 0 -2
BITMAP
3c3c3c
3c3c3c
000000
000000
000000
000000
000000
000000
000000
000000
000000
000000
000000
000000
000000
000000
000000
000000
000000
000000
000000
000000
000000
000000
ENDCHAR
STARTCHAR Ca1c7
ENCODING 41415
SWIDTH 666 0
DWIDTH 24 0
BBX 24 24 0 -2
BITMAP
3f18fc
3f18fc
000000
000000
000000
000000
000000
000000
000000
000000
000000
000000
000000
000000
000000
000000
000000
000000
000000
000000
000000
000000
000000
000000
ENDCHAR
STARTCHAR Ca1c8
ENCODING 41416
SWIDTH 666 0
DWIDTH 24 0
BBX 24 24 0 -2
BITMAP
000000
000000
000000
000000
000000
000000
000000
000000
000000
000000
000000
000000
000000
000000
000000
000000
000000
000000
000000
000000
000000
000000
1e3c3c
1e3c3c
ENDCHAR
STARTCHAR Ca1c9
ENCODING 41417
SWIDTH 666 0
DWIDTH 24 0
BBX 24 24 0 -2
BITMAP
000000
000000
000000
000000
000000
000000
000000
000000
000000
000000
000000
000000
000000
000000
000000
000000
000000
000000
000000
000000
000000
000000
1f99f8
1f99f8
ENDCHAR
STARTCHAR Ca1ca
ENCODING 41418
SWIDTH 666 0
DWIDTH 24 0
BBX 24 24 0 -2
BITMAP
000000
000000
060060
0f00f0
1d81b8
38c31c
70660e
e03c07
c01803
000000
000000
000000
000000
000000
000000
000000
000000
000000
000000
000000
000000
000000
000000
000000
ENDCHAR
STARTCHAR Ca1cb
ENCODING 41419
SWIDTH 666 0
DWIDTH 24 0
BBX 24 24 0 -2
BITMAP
000000
000000
000000
000000
1f81f8
3fc3fc
70e70e
e07e07
c03c03
000000
000000
000000
000000
000000
000000
000000
000000
000000
000000
000000
000000
000000
000000
000000
ENDCHAR
STARTCHAR Ca1cc
ENCODING 41420
SWIDTH 666 0
DWIDTH 24 0
BBX 24 24 0 -2
BITMAP
000000
000000
000000
000000
008800
008800
008800
008800
07ff00
008800
008800
008800
008800
07ff00
008800
008800
008800
008800
000000
000000
000000
000000
000000
000000
ENDCHAR
STARTCHAR Ca1cd
ENCODING 41421
SWIDTH 666 0
DWIDTH 24 0
BBX 24 24 0 -2
BITMAP
000000
000000
000000
000000
000000
000000
00e000
01b000
011000
011000
01b000
00e000
00e000
01b000
031bc0
020f80
030f00
031f00
03f9c0
00e000
000000
000000
000000
000000
ENDCHAR
STARTCHAR Ca1ce
ENCODING 41422
SWIDTH 666 0
DWIDTH 24 0
BBX 24 24 0 -2
BITMAP
000000
000000
000000
000000
003800
003c00
003c00
0f38e0
0fb9e0
0fdfe0
07ffc0
00fe00
00ff00
07ffc0
0fdbe0
0fb9e0
0f38c0
003c00
003c00
003800
000000
000000
000000
000000
ENDCHAR
STARTCHAR Ca1cf
ENCODING 41423
SWIDTH 666 0
DWIDTH 24 0
BBX 24 24 0 -2
BITMAP
000000
000000
001800
001800
001800
001800
001800
001800
001800
001800
001800
3ffffc
3ffffc
001800
001800
001800
001800
001800
001800
001800
001800
000000
000000
000000
ENDCHAR
STARTCHAR Ca1d0
ENCODING 41424
SWIDTH 666 0
DWIDTH 24 0
BBX 24 24 0 -2
BITMAP
000000
000000
000000
000000
000000
000000
000000
000000
000000
000000
000000
1ffff8
1ffff8
000000
000000
000000
000000
000000
000000
000000
000000
000000
000000
000000
ENDCHAR
STARTCHAR Ca1d1
ENCODING 41425
SWIDTH 666 0
DWIDTH 24 0
BBX 24 24 0 -2
BITMAP
000000
000000
000000
000000
000000
0c0030
060060
0300c0
018180
00c300
006600
003c00
001800
003c00
006600
00c300
018180
0300c0
060060
0c0030
000000
000000
000000
000000
ENDCHAR
STARTCHAR Ca1d2
ENCODING 41426
SWIDTH 666 0
DWIDTH 24 0
BBX 24 24 0 -2
BITMAP
000000
000000
000000
003c00
003c00
003c00
003c00
000000
000000
000000
000000
3ffffc
3ffffc
000000
000000
000000
000000
003c00
003c00
003c00
003c00
000000
000000
000000
ENDCHAR
STARTCHAR Ca1d3
ENCODING 41427
SWIDTH 666 0
DWIDTH 24 0
BBX 24 24 0 -2
BITMAP
000000
000000
001800
001800
001800
001800
001800
001800
001800
001800
1ffff8
1ffff8
001800
001800
001800
001800
001800
001800
001800
000000
1ffff8
1ffff8
000000
000000
ENDCHAR
STARTCHAR Ca1d4
ENCODING 41428
SWIDTH 666 0
DWIDTH 24 0
BBX 24 24 0 -2
BITMAP
000000
000000
000000
000000
00fffe
00c000
018000
018000
018000
030000
630000
e30000
b60000
360000
1e0000
1c0000
0c0000
000000
000000
000000
000000
000000
000000
000000
ENDCHAR
STARTCHAR Ca1d5
ENCODING 41429
SWIDTH 666 0
DWIDTH 24 0
BBX 24 24 0 -2
BITMAP
000000
000000
000008
000038
0000f8
0003e0
000f80
003e00
00f800
03e000
0f8000
3e0000
1f0000
07c000
01f000
007c00
001f00
0007c0
0001f0
000078
000018
000000
000000
000000
ENDCHAR
STARTCHAR Ca1d6
ENCODING 41430
SWIDTH 666 0
DWIDTH 24 0
BBX 24 24 0 -2
BITMAP
000000
000000
100000
1c0000
1f0000
07c000
01f000
007c00
001f00
0007c0
0001f0
00007c
0000f8
0003e0
000f80
003e00
00f800
03e000
0f8000
1e0000
180000
000000
000000
000000
ENDCHAR
STARTCHAR Ca1d7
ENCODING 41431
SWIDTH 666 0
DWIDTH 24 0
BBX 24 24 0 -2
BITMAP
000000
000000
000000
000000
000000
000000
000000
000000
000000
3ffffc
3ffffc
000000
000000
3ffffc
3ffffc
000000
000000
000000
000000
000000
000000
000000
000000
000000
ENDCHAR
STARTCHAR Ca1d8
ENCODING 41432
SWIDTH 666 0
DWIDTH 24 0
BBX 24 24 0 -2
BITMAP
000000
000000
00003c
0001fc
000fc0
007e00
03f000
0f8000
1c0000
0f8000
03f000
007e00
000fc0
0001fc
00003c
000000
1ffffc
1ffffc
000000
000000
1ffffc
1ffffc
000000
000000
ENDCHAR
STARTCHAR Ca1d9
ENCODING 41433
SWIDTH 666 0
DWIDTH 24 0
BBX 24 24 0 -2
BITMAP
000000
000000
1e0000
0fc000
01f800
003f00
0007e0
0000f8
00001c
0000f8
0007e0
003f00
01f800
0fc000
1e0000
000000
1ffffc
1ffffc
000000
000000
1ffffc
1ffffc
000000
000000
ENDCHAR
STARTCHAR Ca1da
ENCODING 41434
SWIDTH 666 0
DWIDTH 24 0
BBX 24 24 0 -2
BITMAP
000000
0000c0
0001c0
000180
000180
000300
000300
000600
1ffff8
1ffff8
000c00
001800
001800
003000
1ffff8
1ffff8
006000
00c000
00c000
018000
018000
030000
030000
000000
ENDCHAR
STARTCHAR Ca1db
ENCODING 41435
SWIDTH 666 0
DWIDTH 24 0
BBX 24 24 0 -2
BITMAP
000000
000000
000000
000000
000000
000000
000000
1f81f8
39c39c
606606
603c02
403c02
403c02
603c02
706606
39c39c
1f81f8
000000
000000
000000
000000
000000
000000
000000
ENDCHAR
STARTCHAR Ca1dc
ENCODING 41436
SWIDTH 666 0
DWIDTH 24 0
BBX 24 24 0 -2
BITMAP
000000
000000
000000
000000
3c0000
3c0000
3c0000
3c0000
000000
7ffffe
7ffffe
000000
000000
7ffffe
7ffffe
000000
00003c
00003c
00003c
00003c
000000
000000
000000
000000
ENDCHAR
STARTCHAR Ca1dd
ENCODING 41437
SWIDTH 666 0
DWIDTH 24 0
BBX 24 24 0 -2
BITMAP
000000
000000
000000
000000
000000
000000
7ffffe
7ffffe
000000
000000
7ffffe
7ffffe
000000
000000
7ffffe
7ffffe
000000
000000
000000
000000
000000
000000
000000
000000
ENDCHAR
STARTCHAR Ca1de
ENCODING 41438
SWIDTH 666 0
DWIDTH 24 0
BBX 24 24 0 -2
BITMAP
000000
000000
000000
000000
000000
000000
001c00
001c00
001c00
001c00
03ffc0
03ffc0
03ffc0
001c00
001c00
001c00
001c00
000000
000000
000000
000000
000000
000000
000000
ENDCHAR
STARTCHAR Ca1df
ENCODING 41439
SWIDTH 666 0
DWIDTH 24 0
BBX 24 24 0 -2
BITMAP
000000
000000
000000
000000
000000
000000
000000
000000
000000
000000
000000
03ffc0
03ffc0
000000
000000
000000
000000
000000
000000
000000
000000
000000
000000
000000
ENDCHAR
STARTCHAR Ca1e0
ENCODING 41440
SWIDTH 666 0
DWIDTH 24 0
BBX 24 24 0 -2
BITMAP
000000
000000
000000
000000
000000
001800
003800
007000
00e000
01c000
038000
070000
070000
038000
01c000
00e000
007000
003800
001800
000800
000000
000000
000000
000000
ENDCHAR
STARTCHAR Ca1e1
ENCODING 41441
SWIDTH 666 0
DWIDTH 24 0
BBX 24 24 0 -2
BITMAP
000000
000000
000000
000000
000000
001800
001c00
000e00
000700
000380
0001c0
0000e0
0000e0
0001c0
000380
000700
000e00
001c00
001800
001000
000000
000000
000000
000000
ENDCHAR
STARTCHAR Ca1e2
ENCODING 41442
SWIDTH 666 0
DWIDTH 24 0
BBX 24 24 0 -2
BITMAP
000000
000000
000000
000000
000000
000000
000000
03ffc0
03ffc0
03ffc0
000000
000000
000000
03ffc0
03ffc0
03ffc0
000000
000000
000000
000000
000000
000000
000000
000000
ENDCHAR
STARTCHAR Ca1e3
ENCODING 41443
SWIDTH 666 0
DWIDTH 24 0
BBX 24 24 0 -2
BITMAP
000000
000000
000000
000000
000000
000000
000000
000000
000000
1fc000
3ff000
78fc03
e03f07
c00ffe
0003f8
000000
000000
000000
000000
000000
000000
000000
000000
000000
ENDCHAR
STARTCHAR Ca1e4
ENCODING 41444
SWIDTH 666 0
DWIDTH 24 0
BBX 24 24 0 -2
BITMAP
000000
000000
00ff00
01ff80
0381c0
0700e0
060060
0e0070
0c0030
0c0030
0c0030
1c0038
180018
180018
180018
180018
180018
180018
180018
180018
180018
000000
000000
000000
ENDCHAR
STARTCHAR Ca1e5
ENCODING 41445
SWIDTH 666 0
DWIDTH 24 0
BBX 24 24 0 -2
BITMAP
000000
000000
1c0018
1c0018
1c0018
1c0018
1c0018
1c0018
1c0018
1c0018
1c0018
1c0038
1c0038
0c0038
0c0030
0e0070
0e0070
060060
0700e0
0381c0
01c380
00ff00
000000
000000
ENDCHAR
STARTCHAR Ca1e6
ENCODING 41446
SWIDTH 666 0
DWIDTH 24 0
BBX 24 24 0 -2
BITMAP
000000
000000
000000
000000
001800
001800
001800
001800
001800
001800
001800
001800
001800
001800
001800
001800
001800
3ffffc
3ffffc
000000
000000
000000
000000
000000
ENDCHAR
STARTCHAR Ca1e7
ENCODING 41447
SWIDTH 666 0
DWIDTH 24 0
BBX 24 24 0 -2
BITMAP
000000
000000
000000
000030
000070
0000f0
0001e0
0003c0
000780
000f00
001e00
003c00
007800
00f000
01e000
03c000
078000
0f0000
1ffff8
1ffff8
000000
000000
000000
000000
ENDCHAR
STARTCHAR Ca1e8
ENCODING 41448
SWIDTH 666 0
DWIDTH 24 0
BBX 24 24 0 -2
BITMAP
000000
000000
000000
180000
180000
180000
180000
180000
180000
180000
180000
180000
180000
180000
180000
180000
180000
180000
1ffff8
1ffff8
000000
000000
000000
000000
ENDCHAR
STARTCHAR Ca1e9
ENCODING 41449
SWIDTH 666 0
DWIDTH 24 0
BBX 24 24 0 -2
BITMAP
000000
000008
000018
000038
000078
0000f8
0001d8
000398
000718
000e18
001c18
003818
007018
00e018
01c018
038018
070018
0e0018
1c0018
3ffff8
7ffff8
000000
000000
000000
ENDCHAR
STARTCHAR Ca1ea
ENCODING 41450
SWIDTH 666 0
DWIDTH 24 0
BBX 24 24 0 -2
BITMAP
000000
000000
f00000
300000
300000
300000
300000
300000
300000
31f1fb
33b98f
331d8c
370d8c
360ddc
360478
360460
360cf8
370dbc
331f06
33bb06
fdf202
000306
0003fe
0000f8
ENDCHAR
STARTCHAR Ca1eb
ENCODING 41451
SWIDTH 666 0
DWIDTH 24 0
BBX 24 24 0 -2
BITMAP
000000
000000
f00000
300000
300000
300000
300000
300000
31efe0
307c70
307830
306030
306030
306030
306030
306030
306030
306030
306030
306030
fdf0fc
000000
000000
000000
ENDCHAR
STARTCHAR Ca1ec
ENCODING 41452
SWIDTH 666 0
DWIDTH 24 0
BBX 24 24 0 -2
BITMAP
0003c0
0007e0
000e70
000e70
000c70
000c00
001c00
001c00
001c00
001c00
001800
001800
001800
001800
001800
001800
001800
003800
003000
0c7000
0c7000
0ee000
0fe000
07c000
ENDCHAR
STARTCHAR Ca1ed
ENCODING 41453
SWIDTH 666 0
DWIDTH 24 0
BBX 24 24 0 -2
BITMAP
0003e0
000770
000e70
000c30
000c00
003e00
00ff80
01cdc0
039ce0
071c60
061c30
061c30
061c30
071c60
039ce0
01fbc0
00ff80
001c00
003800
003800
0c3000
0e7000
07e000
03c000
ENDCHAR
STARTCHAR Ca1ee
ENCODING 41454
SWIDTH 666 0
DWIDTH 24 0
BBX 24 24 0 -2
BITMAP
000000
000000
000000
000000
000000
1e0078
1e0078
1e0078
1e0078
000000
000000
000000
000000
000000
000000
003c00
003c00
003c00
003c00
000000
000000
000000
000000
000000
ENDCHAR
STARTCHAR Ca1ef
ENCODING 41455
SWIDTH 666 0
DWIDTH 24 0
BBX 24 24 0 -2
BITMAP
000000
000000
000000
003c00
003c00
003c00
003c00
000000
000000
000000
000000
000000
000000
000000
000000
000000
3c003c
3c003c
3c003c
3c003c
000000
000000
000000
000000
ENDCHAR
STARTCHAR Ca1f0
ENCODING 41456
SWIDTH 666 0
DWIDTH 24 0
BBX 24 24 0 -2
BITMAP
00fe00
01c700
018300
030180
020080
020080
020080
030180
018300
01c700
00fe00
001000
001000
001000
001000
3ffff8
001000
001000
001000
001000
001000
001000
001000
001000
ENDCHAR
STARTCHAR Ca1f1
ENCODING 41457
SWIDTH 666 0
DWIDTH 24 0
BBX 24 24 0 -2
BITMAP
000000
003000
007800
00fc00
01f600
03b300
073180
0e30c0
1c3060
183030
003000
003000
003000
00fc00
01ce00
038300
030180
020180
020080
030080
030180
018380
01c700
00fe00
ENDCHAR
STARTCHAR Ca1f2
ENCODING 41458
SWIDTH 666 0
DWIDTH 24 0
BBX 24 24 0 -2
BITMAP
000000
000000
00ff00
03ffc0
0f18e0
0c1830
181818
381818
30180c
30180c
601806
7ffffe
7ffffe
70180e
30180c
30180c
18181c
1c1838
0e1870
0799e0
01ff80
007e00
000000
000000
ENDCHAR
STARTCHAR Ca1f3
ENCODING 41459
SWIDTH 666 0
DWIDTH 24 0
BBX 24 24 0 -2
BITMAP
000000
000000
00ff00
03e7c0
0f00e0
0c0030
180018
380018
30000c
303c0c
607e06
607e06
607e06
707e0e
303c0c
30000c
18001c
1c0038
0e0070
0781e0
01ff80
007e00
000000
000000
ENDCHAR
STARTCHAR Ca1f4
ENCODING 41460
SWIDTH 666 0
DWIDTH 24 0
BBX 24 24 0 -2
BITMAP
001000
001800
003800
003c00
007c00
007e00
00fe00
00db00
019900
001800
001800
001800
001800
001800
001800
001800
001800
001800
001800
001800
001800
001800
001800
001800
ENDCHAR
STARTCHAR Ca1f5
ENCODING 41461
SWIDTH 666 0
DWIDTH 24 0
BBX 24 24 0 -2
BITMAP
001800
001800
001800
001800
001800
001800
001800
001800
001800
001800
001800
001800
001800
001800
001800
011900
019b00
00df00
00fe00
007e00
003c00
003800
001800
001000
ENDCHAR
STARTCHAR Ca1f6
ENCODING 41462
SWIDTH 666 0
DWIDTH 24 0
BBX 24 24 0 -2
BITMAP
000000
000000
000000
000000
000000
000000
000000
008000
038000
0f0000
3e0000
ffffff
7fffff
1e0000
070000
018000
000000
000000
000000
000000
000000
000000
000000
000000
ENDCHAR
STARTCHAR Ca1f7
ENCODING 41463
SWIDTH 666 0
DWIDTH 24 0
BBX 24 24 0 -2
BITMAP
000000
000000
000000
000000
000000
000000
000000
000300
0001c0
0000f0
00007c
ffffff
fffffe
0000f8
0001e0
000380
000000
000000
000000
000000
000000
000000
000000
000000
ENDCHAR
STARTCHAR Ca1f8
ENCODING 41464
SWIDTH 666 0
DWIDTH 24 0
BBX 24 24 0 -2
BITMAP
000000
000000
000000
1fe000
1fe000
1e0000
1f0000
1b8000
19c000
18e000
007000
003800
001c00
000e00
000700
000380
0001c0
0000e0
000070
000038
00001c
00000c
000000
000000
ENDCHAR
STARTCHAR Ca1f9
ENCODING 41465
SWIDTH 666 0
DWIDTH 24 0
BBX 24 24 0 -2
BITMAP
000000
000000
000000
0007f8
0007f8
000078
0000f8
0001d8
000398
000718
000e18
001c00
003800
007000
00e000
01c000
038000
070000
0e0000
1c0000
180000
000000
000000
000000
ENDCHAR
STARTCHAR Ca1fa
ENCODING 41466
SWIDTH 666 0
DWIDTH 24 0
BBX 24 24 0 -2
BITMAP
000000
00000c
00001c
000038
000070
0000e0
0001c0
000380
000700
000e00
001c00
003800
187000
18e000
19c000
1b8000
1f0000
1e0000
1ff000
1ff000
000000
000000
000000
000000
ENDCHAR
STARTCHAR Ca1fb
ENCODING 41467
SWIDTH 666 0
DWIDTH 24 0
BBX 24 24 0 -2
BITMAP
000000
000000
180000
1c0000
0e0000
070000
038000
01c000
00e000
007000
003800
001c00
000e18
000718
000398
0001d8
0000f8
000078
000ff8
000ff8
000000
000000
000000
000000
ENDCHAR
STARTCHAR Ca1fc
ENCODING 41468
SWIDTH 666 0
DWIDTH 24 0
BBX 24 24 0 -2
BITMAP
006600
006600
006600
006600
006600
006600
006600
006600
006600
006600
006600
006600
006600
006600
006600
006600
006600
006600
006600
006600
006600
006600
006600
006600
ENDCHAR
STARTCHAR Ca1fd
ENCODING 41469
SWIDTH 666 0
DWIDTH 24 0
BBX 24 24 0 -2
BITMAP
001800
001800
001800
001800
001800
001800
001800
001800
001800
001800
001800
001800
001800
001800
001800
001800
001800
001800
001800
001800
001800
001800
001800
001800
ENDCHAR
STARTCHAR Ca1fe
ENCODING 41470
SWIDTH 666 0
DWIDTH 24 0
BBX 24 24 0 -2
BITMAP
000003
000007
00000e
00001c
000038
000070
0000e0
0001c0
000380
000700
000e00
001c00
003800
007000
00e000
01c000
038000
070000
0e0000
1c0000
380000
700000
e00000
c00000
ENDCHAR
STARTCHAR Ca240
ENCODING 41536
SWIDTH 666 0
DWIDTH 24 0
BBX 24 24 0 -2
BITMAP
c00000
e00000
700000
380000
1c0000
0e0000
070000
038000
01c000
00e000
007000
003800
001c00
000e00
000700
000380
0001c0
0000e0
000070
000038
00001c
00000e
000007
000003
ENDCHAR
STARTCHAR Ca241
ENCODING 41537
SWIDTH 666 0
DWIDTH 24 0
BBX 24 24 0 -2
BITMAP
000180
000180
000300
000300
000600
000600
000c00
000c00
001800
001800
003000
003000
006000
006000
00c000
00c000
018000
018000
030000
030000
060000
060000
0c0000
0c0000
ENDCHAR
STARTCHAR Ca242
ENCODING 41538
SWIDTH 666 0
DWIDTH 24 0
BBX 24 24 0 -2
BITMAP
018000
018000
00c000
00c000
006000
006000
003000
003000
001800
001800
000c00
000c00
000600
000600
000300
000300
000180
000180
0000c0
0000c0
000060
000060
000030
000030
ENDCHAR
STARTCHAR Ca243
ENCODING 41539
SWIDTH 666 0
DWIDTH 24 0
BBX 24 24 0 -2
BITMAP
001800
001800
00fe00
01df00
031980
0318c0
0319c0
0319c0
039800
01f800
00f800
003e00
001f00
001f80
0019c0
0318c0
0398c0
0318c0
0319c0
039b80
01ff00
003c00
001800
001000
ENDCHAR
STARTCHAR Ca244
ENCODING 41540
SWIDTH 666 0
DWIDTH 24 0
BBX 24 24 0 -2
BITMAP
000000
3f01f8
0c0060
0e00e0
0600c0
030180
030180
018300
018300
00c600
00ee00
1ffff0
003800
003800
003800
1ffff0
1ffff0
003800
003800
003800
003800
003800
00fe00
000000
ENDCHAR
STARTCHAR Ca245
ENCODING 41541
SWIDTH 666 0
DWIDTH 24 0
BBX 24 24 0 -2
BITMAP
000000
000000
3ffffc
3ffffc
000000
000000
000000
000000
3ffffc
3ffffc
001800
001800
001800
001800
001800
001800
001800
001800
001800
001800
001800
001800
001800
001800
ENDCHAR
STARTCHAR Ca246
ENCODING 41542
SWIDTH 666 0
DWIDTH 24 0
BBX 24 24 0 -2
BITMAP
000180
000180
001f80
007fe0
00f3f0
01c670
018670
038670
030c70
070c00
070c00
061800
061800
061800
063000
063040
063060
0760e0
03e1c0
03e780
01fe00
018000
018000
030000
ENDCHAR
STARTCHAR Ca247
ENCODING 41543
SWIDTH 666 0
DWIDTH 24 0
BBX 24 24 0 -2
BITMAP
000000
000000
003fc0
00f9e0
00e0e0
01c1e0
01c1e0
01c1e0
018000
018000
1ffe00
018000
01c000
01c000
00c000
1fc000
3de008
30f018
30dc18
30cf38
1dcff0
1fc3e0
000000
000000
ENDCHAR
STARTCHAR Ca248
ENCODING 41544
SWIDTH 666 0
DWIDTH 24 0
BBX 24 24 0 -2
BITMAP
000003
01c007
07e00e
0ee01c
1c6038
386070
3060e0
30e1c0
70c380
61c700
738e00
3f1c00
1c3878
0071ec
00e38e
01c306
03870e
07060c
0e061c
1c0618
380638
7007f0
e003c0
c00000
ENDCHAR
STARTCHAR Ca249
ENCODING 41545
SWIDTH 666 0
DWIDTH 24 0
BBX 24 24 0 -2
BITMAP
000000
000000
01ff80
03c1e0
070070
0c0030
187f98
38f798
31c188
338188
230188
230308
230318
230318
230f38
33dff0
31fbe0
180000
1c0030
0e0070
07c3c0
01ff80
000000
000000
ENDCHAR
STARTCHAR Ca24a
ENCODING 41546
SWIDTH 666 0
DWIDTH 24 0
BBX 24 24 0 -2
BITMAP
000000
1e0000
330000
210fc0
213c74
33703c
1ee01c
00e01c
01c00c
01c004
01c004
018000
018000
018000
018000
01c000
01c000
00c004
00e00c
00e01c
007038
003cf0
000fc0
000000
ENDCHAR
STARTCHAR Ca24b
ENCODING 41547
SWIDTH 666 0
DWIDTH 24 0
BBX 24 24 0 -2
BITMAP
000000
1e0000
330000
217ffe
21301e
333006
1e3006
003002
003000
003020
003060
003fe0
003fe0
003060
003020
003000
003000
003000
003000
003000
003000
003000
00fc00
000000
ENDCHAR
STARTCHAR Ca24c
ENCODING 41548
SWIDTH 666 0
DWIDTH 24 0
BBX 24 24 0 -2
BITMAP
000000
000000
001000
001000
00fe00
01d700
019300
019300
019300
01d000
00f000
007800
001e00
001f00
019700
019300
019300
00d700
00fe00
003c00
001000
001000
000000
000000
ENDCHAR
STARTCHAR Ca24d
ENCODING 41549
SWIDTH 666 0
DWIDTH 24 0
BBX 24 24 0 -2
BITMAP
000000
000000
000000
000000
000000
000000
03e0c0
0761c0
062380
046700
06ee00
07dc00
003800
0077c0
00eec0
01cc40
0388c0
070dc0
060f80
000000
000000
000000
000000
000000
ENDCHAR
STARTCHAR Ca24e
ENCODING 41550
SWIDTH 666 0
DWIDTH 24 0
BBX 24 24 0 -2
BITMAP
003c00
01ffc0
07c1e0
0f0070
1c0018
38009c
781dcc
707fcc
70778c
60e38c
60e38c
61c38c
61c78e
71c79a
71cffe
70fdf6
787806
38000c
1c001c
1e0038
0f00f0
07e7c0
00ff00
000000
ENDCHAR
STARTCHAR Ca24f
ENCODING 41551
SWIDTH 666 0
DWIDTH 24 0
BBX 24 24 0 -2
BITMAP
000000
000000
00033c
00078c
00078c
00030c
00000c
00000c
fde78c
7fe38c
66630c
66630c
66630c
66630c
66630c
66630c
66630c
66630c
66630c
66630c
ffffff
000000
000000
000000
ENDCHAR
STARTCHAR Ca250
ENCODING 41552
SWIDTH 666 0
DWIDTH 24 0
BBX 24 24 0 -2
BITMAP
000000
000000
000000
000000
000000
000000
000000
000000
fdefff
7fe3ff
666333
666333
666333
666333
666333
666333
666333
666333
666333
666333
f6f7b7
000000
000000
000000
ENDCHAR
STARTCHAR Ca251
ENCODING 41553
SWIDTH 666 0
DWIDTH 24 0
BBX 24 24 0 -2
BITMAP
000000
000000
000000
000000
000000
000000
000000
000000
1fe7de
30fffe
607666
60f666
c0f666
c00666
c00666
c00666
c00666
e00666
603666
70e666
3fcfff
000000
000000
000000
ENDCHAR
STARTCHAR Ca252
ENCODING 41554
SWIDTH 666 0
DWIDTH 24 0
BBX 24 24 0 -2
BITMAP
000000
000000
e00000
600000
600000
600000
600000
600000
600000
63effe
61c7fe
638666
670666
6e0666
7f0666
7b0666
618666
618666
60c666
60c666
f3ef6e
000000
000000
000000
ENDCHAR
STARTCHAR Ca253
ENCODING 41555
SWIDTH 666 0
DWIDTH 24 0
BBX 24 24 0 -2
BITMAP
000000
000000
f1f807
60ec07
60cc0f
618e0f
638e1f
670e1b
6e0b1b
7c0b33
7c09b3
7c09b3
6608e3
6608e3
6308e3
630803
618803
618803
60c803
60c803
f1f80f
000000
000000
000000
ENDCHAR
STARTCHAR Ca254
ENCODING 41556
SWIDTH 666 0
DWIDTH 24 0
BBX 24 24 0 -2
BITMAP
000078
00008c
00018c
000088
000030
000060
000080
000102
f33bfe
3dcc00
318c00
318c00
318c00
318c00
318c00
318c00
318c00
318c00
318c00
318c00
7bde00
000000
000000
000000
ENDCHAR
STARTCHAR Ca255
ENCODING 41557
SWIDTH 666 0
DWIDTH 24 0
BBX 24 24 0 -2
BITMAP
000000
000000
000000
000000
000000
000000
000000
ffe7fb
7fee3f
666c1e
666c0e
666c0c
666c1c
666f38
6663f0
666300
6667e0
666f7c
666e1f
f6fc07
000c07
000f0f
0007fe
0001f0
ENDCHAR
STARTCHAR Ca256
ENCODING 41558
SWIDTH 666 0
DWIDTH 24 0
BBX 24 24 0 -2
BITMAP
000000
e00000
600000
600000
600000
600000
600000
6007f3
63ef3b
61ce1e
638c0c
670c0c
6e0c0c
7f0f3c
7b03f8
718300
6187e0
60cf7c
60ce1f
f3fc07
000e07
000f0f
0007fe
000000
ENDCHAR
STARTCHAR Ca257
ENCODING 41559
SWIDTH 666 0
DWIDTH 24 0
BBX 24 24 0 -2
BITMAP
000000
000000
000000
000000
000000
000000
000000
3fc3fe
70e707
607607
e0fe07
c0ec07
c00c00
c00c00
c00c00
c00c00
c00c00
e00e00
603603
707707
3fe3fe
000000
000000
000000
ENDCHAR
STARTCHAR Ca258
ENCODING 41560
SWIDTH 666 0
DWIDTH 24 0
BBX 24 24 0 -2
BITMAP
000000
000000
1e0000
330000
210000
210000
330000
1e0000
000000
000000
000000
000000
000000
000000
000000
000000
000000
000000
000000
000000
000000
000000
000000
000000
ENDCHAR
STARTCHAR Ca259
ENCODING 41561
SWIDTH 666 0
DWIDTH 24 0
BBX 24 24 0 -2
BITMAP
070000
070060
070070
06f070
fff060
060060
060060
66606e
7ff7fe
606060
606060
606060
606060
606060
7fe060
198060
198060
198062
398062
318063
318063
61c003
61ffff
c0ffff
ENDCHAR
STARTCHAR Ca25a
ENCODING 41562
SWIDTH 666 0
DWIDTH 24 0
BBX 24 24 0 -2
BITMAP
060000
07000e
06001e
0630fc
fffbf0
060060
060060
667060
7ff060
607067
606fff
606060
606060
606060
7fe060
198060
198060
398060
398062
318063
318063
61c007
61ffff
c0fffe
ENDCHAR
STARTCHAR Ca25b
ENCODING 41563
SWIDTH 666 0
DWIDTH 24 0
BBX 24 24 0 -2
BITMAP
070000
070000
07003c
06e1fc
ffef80
060180
0601bc
6661fc
7feff0
606180
60619e
6061fe
607f80
606180
7fe184
198184
198186
19818e
3181fe
3181fd
318003
618007
61ffff
c0ffff
ENDCHAR
STARTCHAR Ca25c
ENCODING 41564
SWIDTH 666 0
DWIDTH 24 0
BBX 24 24 0 -2
BITMAP
070000
07001c
0603fc
06701c
fff318
06031c
06070e
06060f
667e07
7ff003
60701e
6067fe
60618e
60638e
60630e
7fe30c
19861c
39861c
398c1e
3198fb
71803b
61c007
e1ffff
c0fffe
ENDCHAR
STARTCHAR Ca25d
ENCODING 41565
SWIDTH 666 0
DWIDTH 24 0
BBX 24 24 0 -2
BITMAP
070000
07003c
060ffc
06f0c0
fff1c0
0601c0
06038e
6677fe
7ff60e
60760c
60760c
60660c
60660c
6067fc
7fe60c
19860c
19860c
19860c
39860c
3987fd
318003
71c007
61ffff
e0ffff
ENDCHAR
STARTCHAR Ca25e
ENCODING 41566
SWIDTH 666 0
DWIDTH 24 0
BBX 24 24 0 -2
BITMAP
0e0000
0e180f
0c1fff
0cd800
fffb0c
0c1bfe
0c1b6c
ccdb6c
fffbfc
c0db6c
c0db6c
c0dbfc
c0d860
c0d860
ffd87c
333bfc
333860
33306e
7377fe
736001
634003
638003
c3ffff
c1ffff
ENDCHAR
STARTCHAR Ca25f
ENCODING 41567
SWIDTH 666 0
DWIDTH 24 0
BBX 24 24 0 -2
BITMAP
0e0000
0e0000
0c761e
fff7fe
0c760c
0c660c
1ce60c
18e60c
38e60c
73c7fc
e1f60c
00f800
01ff00
0f8fe0
7e03fc
f9fe3f
000000
1ffff0
18c630
18c630
1ffff0
18c630
18c6f0
1800f0
ENDCHAR
STARTCHAR Ca260
ENCODING 41568
SWIDTH 666 0
DWIDTH 24 0
BBX 24 24 0 -2
BITMAP
00e000
ffe01c
30007c
3001f8
3007c0
30eec0
3fe0c0
30c0c0
30c0ce
3cdffe
3ec0c0
3ec0c0
37c0c0
37c0c0
33c0c0
30c0c0
30c0c0
30c0c0
37c0c0
3fc0c2
fcc0c3
e0c007
00ffff
00ffff
ENDCHAR
STARTCHAR Ca261
ENCODING 41569
SWIDTH 666 0
DWIDTH 24 0
BBX 24 24 0 -2
BITMAP
0c0000
0c1806
cc1fff
ecd800
ecdb07
eddbff
6ddb76
7d9b76
3c1b76
ffdbfe
0c1b76
0c1b76
3c1b76
3e1bfe
7f1870
7fb870
6fb870
6db876
cdbbfe
cdb070
cc3070
0c6070
0c6077
0cc7ff
ENDCHAR
STARTCHAR Ca262
ENCODING 41570
SWIDTH 666 0
DWIDTH 24 0
BBX 24 24 0 -2
BITMAP
000000
000000
000000
000000
000000
000000
000000
000000
000000
000000
000000
000000
000000
000000
000000
000000
000000
000000
000000
000000
000000
ffffff
ffffff
ffffff
ENDCHAR
STARTCHAR Ca263
ENCODING 41571
SWIDTH 666 0
DWIDTH 24 0
BBX 24 24 0 -2
BITMAP
000000
000000
000000
000000
000000
000000
000000
000000
000000
000000
000000
000000
000000
000000
000000
000000
000000
000000
ffffff
ffffff
ffffff
ffffff
ffffff
ffffff
ENDCHAR
STARTCHAR Ca264
ENCODING 41572
SWIDTH 666 0
DWIDTH 24 0
BBX 24 24 0 -2
BITMAP
000000
000000
000000
000000
000000
000000
000000
000000
000000
000000
000000
000000
000000
000000
000000
ffffff
ffffff
ffffff
ffffff
ffffff
ffffff
ffffff
ffffff
ffffff
ENDCHAR
STARTCHAR Ca265
ENCODING 41573
SWIDTH 666 0
DWIDTH 24 0
BBX 24 24 0 -2
BITMAP
000000
000000
000000
000000
000000
000000
000000
000000
000000
000000
000000
000000
ffffff
ffffff
ffffff
ffffff
ffffff
ffffff
ffffff
ffffff
ffffff
ffffff
ffffff
ffffff
ENDCHAR
STARTCHAR Ca266
ENCODING 41574
SWIDTH 666 0
DWIDTH 24 0
BBX 24 24 0 -2
BITMAP
000000
000000
000000
000000
000000
000000
000000
000000
000000
ffffff
ffffff
ffffff
ffffff
ffffff
ffffff
ffffff
ffffff
ffffff
ffffff
ffffff
ffffff
ffffff
ffffff
ffffff
ENDCHAR
STARTCHAR Ca267
ENCODING 41575
SWIDTH 666 0
DWIDTH 24 0
BBX 24 24 0 -2
BITMAP
000000
000000
000000
000000
000000
000000
ffffff
ffffff
ffffff
ffffff
ffffff
ffffff
ffffff
ffffff
ffffff
ffffff
ffffff
ffffff
ffffff
ffffff
ffffff
ffffff
ffffff
ffffff
ENDCHAR
STARTCHAR Ca268
ENCODING 41576
SWIDTH 666 0
DWIDTH 24 0
BBX 24 24 0 -2
BITMAP
000000
000000
000000
ffffff
ffffff
ffffff
ffffff
ffffff
ffffff
ffffff
ffffff
ffffff
ffffff
ffffff
ffffff
ffffff
ffffff
ffffff
ffffff
ffffff
ffffff
ffffff
ffffff
ffffff
ENDCHAR
STARTCHAR Ca269
ENCODING 41577
SWIDTH 666 0
DWIDTH 24 0
BBX 24 24 0 -2
BITMAP
ffffff
ffffff
ffffff
ffffff
ffffff
ffffff
ffffff
ffffff
ffffff
ffffff
ffffff
ffffff
ffffff
ffffff
ffffff
ffffff
ffffff
ffffff
ffffff
ffffff
ffffff
ffffff
ffffff
ffffff
ENDCHAR
STARTCHAR Ca26a
ENCODING 41578
SWIDTH 666 0
DWIDTH 24 0
BBX 24 24 0 -2
BITMAP
e00000
e00000
e00000
e00000
e00000
e00000
e00000
e00000
e00000
e00000
e00000
e00000
e00000
e00000
e00000
e00000
e00000
e00000
e00000
e00000
e00000
e00000
e00000
e00000
ENDCHAR
STARTCHAR Ca26b
ENCODING 41579
SWIDTH 666 0
DWIDTH 24 0
BBX 24 24 0 -2
BITMAP
fc0000
fc0000
fc0000
fc0000
fc0000
fc0000
fc0000
fc0000
fc0000
fc0000
fc0000
fc0000
fc0000
fc0000
fc0000
fc0000
fc0000
fc0000
fc0000
fc0000
fc0000
fc0000
fc0000
fc0000
ENDCHAR
STARTCHAR Ca26c
ENCODING 41580
SWIDTH 666 0
DWIDTH 24 0
BBX 24 24 0 -2
BITMAP
ff8000
ff8000
ff8000
ff8000
ff8000
ff8000
ff8000
ff8000
ff8000
ff8000
ff8000
ff8000
ff8000
ff8000
ff8000
ff8000
ff8000
ff8000
ff8000
ff8000
ff8000
ff8000
ff8000
ff8000
ENDCHAR
STARTCHAR Ca26d
ENCODING 41581
SWIDTH 666 0
DWIDTH 24 0
BBX 24 24 0 -2
BITMAP
fff000
fff000
fff000
fff000
fff000
fff000
fff000
fff000
fff000
fff000
fff000
fff000
fff000
fff000
fff000
fff000
fff000
fff000
fff000
fff000
fff000
fff000
fff000
fff000
ENDCHAR
STARTCHAR Ca26e
ENCODING 41582
SWIDTH 666 0
DWIDTH 24 0
BBX 24 24 0 -2
BITMAP
fffe00
fffe00
fffe00
fffe00
fffe00
fffe00
fffe00
fffe00
fffe00
fffe00
fffe00
fffe00
fffe00
fffe00
fffe00
fffe00
fffe00
fffe00
fffe00
fffe00
fffe00
fffe00
fffe00
fffe00
ENDCHAR
STARTCHAR Ca26f
ENCODING 41583
SWIDTH 666 0
DWIDTH 24 0
BBX 24 24 0 -2
BITMAP
ffffc0
ffffc0
ffffc0
ffffc0
ffffc0
ffffc0
ffffc0
ffffc0
ffffc0
ffffc0
ffffc0
ffffc0
ffffc0
ffffc0
ffffc0
ffffc0
ffffc0
ffffc0
ffffc0
ffffc0
ffffc0
ffffc0
ffffc0
ffffc0
ENDCHAR
STARTCHAR Ca270
ENCODING 41584
SWIDTH 666 0
DWIDTH 24 0
BBX 24 24 0 -2
BITMAP
fffff8
fffff8
fffff8
fffff8
fffff8
fffff8
fffff8
fffff8
fffff8
fffff8
fffff8
fffff8
fffff8
fffff8
fffff8
fffff8
fffff8
fffff8
fffff8
fffff8
fffff8
fffff8
fffff8
fffff8
ENDCHAR
STARTCHAR Ca271
ENCODING 41585
SWIDTH 666 0
DWIDTH 24 0
BBX 24 24 0 -2
BITMAP
001800
001800
001800
001800
001800
001800
001800
001800
001800
001800
001800
ffffff
ffffff
001800
001800
001800
001800
001800
001800
001800
001800
001800
001800
001800
ENDCHAR
STARTCHAR Ca272
ENCODING 41586
SWIDTH 666 0
DWIDTH 24 0
BBX 24 24 0 -2
BITMAP
001800
001800
001800
001800
001800
001800
001800
001800
001800
001800
001800
ffffff
ffffff
000000
000000
000000
000000
000000
000000
000000
000000
000000
000000
000000
ENDCHAR
STARTCHAR Ca273
ENCODING 41587
SWIDTH 666 0
DWIDTH 24 0
BBX 24 24 0 -2
BITMAP
000000
000000
000000
000000
000000
000000
000000
000000
000000
000000
000000
ffffff
ffffff
001800
001800
001800
001800
001800
001800
001800
001800
001800
001800
001800
ENDCHAR
STARTCHAR Ca274
ENCODING 41588
SWIDTH 666 0
DWIDTH 24 0
BBX 24 24 0 -2
BITMAP
001800
001800
001800
001800
001800
001800
001800
001800
001800
001800
001800
fff800
fff800
001800
001800
001800
001800
001800
001800
001800
001800
001800
001800
001800
ENDCHAR
STARTCHAR Ca275
ENCODING 41589
SWIDTH 666 0
DWIDTH 24 0
BBX 24 24 0 -2
BITMAP
001800
001800
001800
001800
001800
001800
001800
001800
001800
001800
001800
001fff
001fff
001800
001800
001800
001800
001800
001800
001800
001800
001800
001800
001800
ENDCHAR
STARTCHAR Ca276
ENCODING 41590
SWIDTH 666 0
DWIDTH 24 0
BBX 24 24 0 -2
BITMAP
ffffff
ffffff
000000
000000
000000
000000
000000
000000
000000
000000
000000
000000
000000
000000
000000
000000
000000
000000
000000
000000
000000
000000
000000
000000
ENDCHAR
STARTCHAR Ca277
ENCODING 41591
SWIDTH 666 0
DWIDTH 24 0
BBX 24 24 0 -2
BITMAP
000000
000000
000000
000000
000000
000000
000000
000000
000000
000000
000000
ffffff
ffffff
000000
000000
000000
000000
000000
000000
000000
000000
000000
000000
000000
ENDCHAR
STARTCHAR Ca278
ENCODING 41592
SWIDTH 666 0
DWIDTH 24 0
BBX 24 24 0 -2
BITMAP
001800
001800
001800
001800
001800
001800
001800
001800
001800
001800
001800
001800
001800
001800
001800
001800
001800
001800
001800
001800
001800
001800
001800
001800
ENDCHAR
STARTCHAR Ca279
ENCODING 41593
SWIDTH 666 0
DWIDTH 24 0
BBX 24 24 0 -2
BITMAP
000007
000007
000007
000007
000007
000007
000007
000007
000007
000007
000007
000007
000007
000007
000007
000007
000007
000007
000007
000007
000007
000007
000007
000007
ENDCHAR
STARTCHAR Ca27a
ENCODING 41594
SWIDTH 666 0
DWIDTH 24 0
BBX 24 24 0 -2
BITMAP
000000
000000
000000
000000
000000
000000
000000
000000
000000
000000
000000
001fff
001fff
001800
001800
001800
001800
001800
001800
001800
001800
001800
001800
001800
ENDCHAR
STARTCHAR Ca27b
ENCODING 41595
SWIDTH 666 0
DWIDTH 24 0
BBX 24 24 0 -2
BITMAP
000000
000000
000000
000000
000000
000000
000000
000000
000000
000000
000000
fff800
fff800
001800
001800
001800
001800
001800
001800
001800
001800
001800
001800
001800
ENDCHAR
STARTCHAR Ca27c
ENCODING 41596
SWIDTH 666 0
DWIDTH 24 0
BBX 24 24 0 -2
BITMAP
001800
001800
001800
001800
001800
001800
001800
001800
001800
001800
001800
001fff
001fff
000000
000000
000000
000000
000000
000000
000000
000000
000000
000000
000000
ENDCHAR
STARTCHAR Ca27d
ENCODING 41597
SWIDTH 666 0
DWIDTH 24 0
BBX 24 24 0 -2
BITMAP
001800
001800
001800
001800
001800
001800
001800
001800
001800
001800
001800
fff800
fff800
000000
000000
000000
000000
000000
000000
000000
000000
000000
000000
000000
ENDCHAR
STARTCHAR Ca27e
ENCODING 41598
SWIDTH 666 0
DWIDTH 24 0
BBX 24 24 0 -2
BITMAP
000000
000000
000000
000000
000000
000000
000000
000000
000000
000000
000000
00000f
00007f
0000fc
0001e0
0003c0
000780
000700
000e00
000e00
001c00
001c00
001c00
001800
ENDCHAR
STARTCHAR Ca2a1
ENCODING 41633
SWIDTH 666 0
DWIDTH 24 0
BBX 24 24 0 -2
BITMAP
000000
000000
000000
000000
000000
000000
000000
000000
000000
000000
000000
f00000
fc0000
3f0000
078000
03c000
01e000
00e000
007000
003000
003800
003800
001800
001800
ENDCHAR
STARTCHAR Ca2a2
ENCODING 41634
SWIDTH 666 0
DWIDTH 24 0
BBX 24 24 0 -2
BITMAP
001800
001800
001c00
000c00
000e00
000600
000700
000380
0001c0
0000f0
00007c
00001f
000007
000000
000000
000000
000000
000000
000000
000000
000000
000000
000000
000000
ENDCHAR
STARTCHAR Ca2a3
ENCODING 41635
SWIDTH 666 0
DWIDTH 24 0
BBX 24 24 0 -2
BITMAP
001800
001800
003800
003000
007000
006000
00e000
01c000
038000
0f0000
3e0000
f80000
e00000
000000
000000
000000
000000
000000
000000
000000
000000
000000
000000
000000
ENDCHAR
STARTCHAR Ca2a4
ENCODING 41636
SWIDTH 666 0
DWIDTH 24 0
BBX 24 24 0 -2
BITMAP
000000
000000
000000
000000
000000
000000
ffffff
ffffff
000000
000000
000000
000000
000000
000000
000000
000000
ffffff
ffffff
000000
000000
000000
000000
000000
000000
ENDCHAR
STARTCHAR Ca2a5
ENCODING 41637
SWIDTH 666 0
DWIDTH 24 0
BBX 24 24 0 -2
BITMAP
001800
001800
001800
001800
001800
001800
001fff
001fff
001800
001800
001800
001800
001800
001800
001800
001800
001fff
001fff
001800
001800
001800
001800
001800
001800
ENDCHAR
STARTCHAR Ca2a6
ENCODING 41638
SWIDTH 666 0
DWIDTH 24 0
BBX 24 24 0 -2
BITMAP
001800
001800
001800
001800
001800
001800
ffffff
ffffff
001800
001800
001800
001800
001800
001800
001800
001800
ffffff
ffffff
001800
001800
001800
001800
001800
001800
ENDCHAR
STARTCHAR Ca2a7
ENCODING 41639
SWIDTH 666 0
DWIDTH 24 0
BBX 24 24 0 -2
BITMAP
001800
001800
001800
001800
001800
001800
fff800
fff800
001800
001800
001800
001800
001800
001800
001800
001800
fff800
fff800
001800
001800
001800
001800
001800
001800
ENDCHAR
STARTCHAR Ca2a8
ENCODING 41640
SWIDTH 666 0
DWIDTH 24 0
BBX 24 24 0 -2
BITMAP
000001
000003
000007
00000f
00001f
00003f
00007f
0000ff
0001ff
0003ff
0007ff
000fff
001fff
003fff
007fff
00ffff
01ffff
03ffff
07ffff
0fffff
1fffff
3fffff
7fffff
ffffff
ENDCHAR
STARTCHAR Ca2a9
ENCODING 41641
SWIDTH 666 0
DWIDTH 24 0
BBX 24 24 0 -2
BITMAP
800000
c00000
e00000
f00000
f80000
fc0000
fe0000
ff0000
ff8000
ffc000
ffe000
fff000
fff800
fffc00
fffe00
ffff00
ffff80
ffffc0
ffffe0
fffff0
fffff8
fffffc
fffffe
ffffff
ENDCHAR
STARTCHAR Ca2aa
ENCODING 41642
SWIDTH 666 0
DWIDTH 24 0
BBX 24 24 0 -2
BITMAP
ffffff
7fffff
3fffff
1fffff
0fffff
07ffff
03ffff
01ffff
00ffff
007fff
003fff
001fff
000fff
0007ff
0003ff
0001ff
0000ff
00007f
00003f
00001f
00000f
000007
000003
000001
ENDCHAR
STARTCHAR Ca2ab
ENCODING 41643
SWIDTH 666 0
DWIDTH 24 0
BBX 24 24 0 -2
BITMAP
ffffff
fffffe
fffffc
fffff8
fffff0
ffffe0
ffffc0
ffff80
ffff00
fffe00
fffc00
fff800
fff000
ffe000
ffc000
ff8000
ff0000
fe0000
fc0000
f80000
f00000
e00000
c00000
800000
ENDCHAR
STARTCHAR Ca2ac
ENCODING 41644
SWIDTH 666 0
DWIDTH 24 0
BBX 24 24 0 -2
BITMAP
0000c0
0000c0
0001c0
000180
000380
000300
000700
000600
000600
000c00
000c00
001800
001800
003000
003000
007000
006000
00e000
00c000
01c000
018000
030000
030000
060000
ENDCHAR
STARTCHAR Ca2ad
ENCODING 41645
SWIDTH 666 0
DWIDTH 24 0
BBX 24 24 0 -2
BITMAP
060000
060000
030000
038000
018000
01c000
00c000
00e000
006000
007000
003000
003800
001800
000c00
000e00
000600
000700
000300
000380
000180
0001c0
0000e0
000060
000030
ENDCHAR
STARTCHAR Ca2ae
ENCODING 41646
SWIDTH 666 0
DWIDTH 24 0
BBX 24 24 0 -2
BITMAP
c00003
e00007
70000e
38001c
1c0038
0e0070
0700e0
0381c0
01c380
00e700
007e00
003c00
003c00
007e00
00e700
01c380
0381c0
0700e0
0e0070
1c0038
38001c
70000e
e00007
c00003
ENDCHAR
STARTCHAR Ca2af
ENCODING 41647
SWIDTH 666 0
DWIDTH 24 0
BBX 24 24 0 -2
BITMAP
000000
000000
001800
007e00
00e700
01c380
018180
018180
0381c0
0381c0
0381c0
0381c0
0381c0
0381c0
0381c0
0381c0
038180
018180
01c300
00e700
007c00
000000
000000
000000
ENDCHAR
STARTCHAR Ca2b0
ENCODING 41648
SWIDTH 666 0
DWIDTH 24 0
BBX 24 24 0 -2
BITMAP
000000
000000
001c00
007c00
00fc00
001c00
001c00
001c00
001c00
001c00
001c00
001c00
001c00
001c00
001c00
001c00
001c00
001c00
001c00
01ff80
01ff80
000000
000000
000000
ENDCHAR
STARTCHAR Ca2b1
ENCODING 41649
SWIDTH 666 0
DWIDTH 24 0
BBX 24 24 0 -2
BITMAP
000000
000000
000000
007e00
00e780
018380
0181c0
03c1c0
01c1c0
000380
000780
000f00
001e00
003800
003000
006000
00c0c0
01c0c0
0181c0
03ff80
03ff80
000000
000000
000000
ENDCHAR
STARTCHAR Ca2b2
ENCODING 41650
SWIDTH 666 0
DWIDTH 24 0
BBX 24 24 0 -2
BITMAP
000000
000000
007c00
00ff00
01c300
01c380
01c380
000380
000380
000700
003e00
003f00
000380
000180
0001c0
0181c0
0381c0
0381c0
018380
01ef00
007e00
000000
000000
000000
ENDCHAR
STARTCHAR Ca2b3
ENCODING 41651
SWIDTH 666 0
DWIDTH 24 0
BBX 24 24 0 -2
BITMAP
000000
000000
000000
000600
000e00
001e00
001e00
003600
003600
006600
00e600
00c600
018600
018600
030600
03ffc0
03ffc0
000600
000600
001f80
001f80
000000
000000
000000
ENDCHAR
STARTCHAR Ca2b4
ENCODING 41652
SWIDTH 666 0
DWIDTH 24 0
BBX 24 24 0 -2
BITMAP
000000
000000
000100
01ff80
01ff00
018000
018000
018000
018000
01bc00
01ff00
01c780
000380
000180
0001c0
0001c0
038180
038380
038380
01cf00
00fc00
000000
000000
000000
ENDCHAR
STARTCHAR Ca2b5
ENCODING 41653
SWIDTH 666 0
DWIDTH 24 0
BBX 24 24 0 -2
BITMAP
000000
000000
001f00
007f80
006380
00c380
01c000
018000
018000
03be00
03ff00
03c380
038380
0381c0
0381c0
0381c0
0181c0
018180
01c380
00f700
007e00
000000
000000
000000
ENDCHAR
STARTCHAR Ca2b6
ENCODING 41654
SWIDTH 666 0
DWIDTH 24 0
BBX 24 24 0 -2
BITMAP
000000
000000
000380
03ff80
03ff80
038180
030300
030300
000600
000600
000c00
000c00
001800
001800
003800
003000
003000
007000
007000
007000
007000
000000
000000
000000
ENDCHAR
STARTCHAR Ca2b7
ENCODING 41655
SWIDTH 666 0
DWIDTH 24 0
BBX 24 24 0 -2
BITMAP
000000
000000
003c00
00ff00
01c380
018180
038180
038180
01c380
01f700
00fe00
007f00
01ef80
03c3c0
0381c0
0301c0
0300c0
0381c0
03c380
01ef80
00fe00
000000
000000
000000
ENDCHAR
STARTCHAR Ca2b8
ENCODING 41656
SWIDTH 666 0
DWIDTH 24 0
BBX 24 24 0 -2
BITMAP
000000
000000
003c00
00ff00
01c700
018380
038180
038180
0381c0
0381c0
0181c0
01c3c0
00ffc0
007dc0
000180
000180
000380
01c300
01c700
01ee00
00fc00
000000
000000
000000
ENDCHAR
STARTCHAR Ca2b9
ENCODING 41657
SWIDTH 666 0
DWIDTH 24 0
BBX 24 24 0 -2
BITMAP
000000
01ff00
03ff80
003800
003800
003800
003800
003800
003800
003800
003800
003800
003800
003800
003800
003800
003800
003800
003800
003800
01ff00
03ff80
000000
000000
ENDCHAR
STARTCHAR Ca2ba
ENCODING 41658
SWIDTH 666 0
DWIDTH 24 0
BBX 24 24 0 -2
BITMAP
000000
0ffff0
0ffff0
018180
018180
018180
018180
018180
018180
018180
018180
018180
018180
018180
018180
018180
018180
018180
018180
018180
0ffff0
0ffff0
000000
000000
ENDCHAR
STARTCHAR Ca2bb
ENCODING 41659
SWIDTH 666 0
DWIDTH 24 0
BBX 24 24 0 -2
BITMAP
000000
1ffff8
1ffff8
061860
061860
061860
061860
061860
061860
061860
061860
061860
061860
061860
061860
061860
061860
061860
061860
061860
1ffff8
1ffff8
000000
000000
ENDCHAR
STARTCHAR Ca2bc
ENCODING 41660
SWIDTH 666 0
DWIDTH 24 0
BBX 24 24 0 -2
BITMAP
000000
1ff8fc
3ff8fc
076070
077070
077070
077060
0738e0
0738e0
0738e0
0738e0
071cc0
071dc0
071dc0
070fc0
070fc0
070f80
070f80
070780
070780
1fc780
1fc300
000000
000000
ENDCHAR
STARTCHAR Ca2bd
ENCODING 41661
SWIDTH 666 0
DWIDTH 24 0
BBX 24 24 0 -2
BITMAP
000000
1fc7f8
1fc7f8
0700e0
0700e0
0701c0
0381c0
0381c0
038180
018380
01c380
01c700
01c700
00e700
00ee00
00ee00
007e00
007c00
007c00
003c00
003800
003800
000000
000000
ENDCHAR
STARTCHAR Ca2be
ENCODING 41662
SWIDTH 666 0
DWIDTH 24 0
BBX 24 24 0 -2
BITMAP
000000
7f1ffc
7f1ffc
1c0e70
0e0e70
0e0e70
0e1c70
0e1c70
071c70
071c70
071870
073870
033870
03b870
03b870
03f070
01f070
01f070
01f070
01e070
00e1fc
00e1fc
000000
000000
ENDCHAR
STARTCHAR Ca2bf
ENCODING 41663
SWIDTH 666 0
DWIDTH 24 0
BBX 24 24 0 -2
BITMAP
000000
7e7bfe
7e7bfe
1c3198
1c7198
1c7198
1c7198
0c7198
0e6198
0e6198
0ee198
06e198
07e198
07e198
07c198
07c198
03c198
03c198
03c198
038198
0187fe
0187fe
000000
000000
ENDCHAR
STARTCHAR Ca2c0
ENCODING 41664
SWIDTH 666 0
DWIDTH 24 0
BBX 24 24 0 -2
BITMAP
000000
000000
fdffff
fdffff
38e6ec
38e6ec
38e6ec
18e6ec
1cc6ec
1cc6ec
1dc6ec
1dc6ec
0dc6ec
0fc6ec
0fc6ec
0f86ec
0786ec
0786ec
0786ec
0786ec
078ffe
031fff
000000
000000
ENDCHAR
STARTCHAR Ca2c1
ENCODING 41665
SWIDTH 666 0
DWIDTH 24 0
BBX 24 24 0 -2
BITMAP
000000
7f7cfe
7f7cfe
1c3838
1c3870
1c1c70
1c1ce0
1c0ee0
1c0fc0
1c07c0
1c0780
1c0380
1c0380
1c07c0
1c07c0
1c0ee0
1c0ee0
1c1c70
1c1c70
1c1c38
7f7efe
7f7efe
000000
000000
ENDCHAR
STARTCHAR Ca2c2
ENCODING 41666
SWIDTH 666 0
DWIDTH 24 0
BBX 24 24 0 -2
BITMAP
000000
0fe3f0
0fe3f8
03c1c0
01c3c0
00e380
00e780
006700
007700
007e00
003e00
003c00
003c00
003e00
007e00
007700
00e700
00e380
01e380
01c180
1ff3f8
1ff3f8
000000
000000
ENDCHAR
STARTCHAR Ca2c3
ENCODING 41667
SWIDTH 666 0
DWIDTH 24 0
BBX 24 24 0 -2
BITMAP
000000
000000
002000
003000
003000
003000
003000
003000
003000
003000
003000
003000
003000
003000
003000
003000
003000
003000
003000
003000
003000
001000
000000
000000
ENDCHAR
STARTCHAR Ca2c4
ENCODING 41668
SWIDTH 666 0
DWIDTH 24 0
BBX 24 24 0 -2
BITMAP
000000
000000
000200
000600
000600
008600
018600
018600
018600
018600
018600
018600
018600
018600
018600
018600
018600
018600
008600
000600
000600
000200
000000
000000
ENDCHAR
STARTCHAR Ca2c5
ENCODING 41669
SWIDTH 666 0
DWIDTH 24 0
BBX 24 24 0 -2
BITMAP
000000
000000
000040
0000c0
0000c0
0300c0
0300c0
0318c0
0318c0
0318c0
0318c0
0318c0
0318c0
0318c0
0318c0
0318c0
0318c0
0300c0
0300c0
0000c0
0000c0
000040
000000
000000
ENDCHAR
STARTCHAR Ca2c6
ENCODING 41670
SWIDTH 666 0
DWIDTH 24 0
BBX 24 24 0 -2
BITMAP
000000
000000
000000
180030
1c0070
0e0070
0700f0
0381e0
01c3c0
00e780
007700
003e00
001c00
003c00
007e00
00e700
01c380
0381c0
0700e0
0e0078
1c003c
000000
000000
000000
ENDCHAR
STARTCHAR Ca2c7
ENCODING 41671
SWIDTH 666 0
DWIDTH 24 0
BBX 24 24 0 -2
BITMAP
000000
000000
000000
0018c0
003980
007180
006300
006700
006e00
003c00
001e00
003300
006300
00c180
01c180
01c180
018180
018180
018180
00c300
00c700
00ee00
007c00
000000
ENDCHAR
STARTCHAR Ca2c8
ENCODING 41672
SWIDTH 666 0
DWIDTH 24 0
BBX 24 24 0 -2
BITMAP
000000
000000
000000
000000
000000
003800
003800
003800
003000
003000
003000
003078
1ffff8
1ffff8
000000
000000
000000
000000
000000
000000
000000
000000
000000
000000
ENDCHAR
STARTCHAR Ca2c9
ENCODING 41673
SWIDTH 666 0
DWIDTH 24 0
BBX 24 24 0 -2
BITMAP
000000
000000
000000
000000
003800
003800
003800
003800
003000
0030e0
3ffff0
3ffff0
000000
000000
0001c0
0fffe0
0fffe0
000000
000000
000000
000000
000000
000000
000000
ENDCHAR
STARTCHAR Ca2ca
ENCODING 41674
SWIDTH 666 0
DWIDTH 24 0
BBX 24 24 0 -2
BITMAP
000000
000000
000000
003800
003800
003800
003800
003000
0030e0
1ffff0
1ffff0
000000
000000
000180
03ffc0
03ffc0
000000
000000
000038
3ffff8
3ffff8
000000
000000
000000
ENDCHAR
STARTCHAR Ca2cb
ENCODING 41675
SWIDTH 666 0
DWIDTH 24 0
BBX 24 24 0 -2
BITMAP
000000
003000
007000
00f000
01e000
03c000
07fff0
07fff0
000070
0600f0
0701e0
0783c0
03c780
01ef00
00fe00
007c00
007e00
00ff00
01e7c0
03c3f0
0f81fe
1f007e
000000
000000
ENDCHAR
STARTCHAR Ca2cc
ENCODING 41676
SWIDTH 666 0
DWIDTH 24 0
BBX 24 24 0 -2
BITMAP
000000
000000
001800
001800
001800
001800
001800
001800
001800
00183c
1ffffc
1ffffc
001800
001800
001800
001800
001800
001800
001800
001800
001800
001800
000000
000000
ENDCHAR
STARTCHAR Ca2cd
ENCODING 41677
SWIDTH 666 0
DWIDTH 24 0
BBX 24 24 0 -2
BITMAP
000000
000000
00e300
00e380
00e380
00e380
00c300
00c300
00c300
00c338
3ffffc
3ffffc
00c300
00c300
00c300
00c300
00c300
00c300
00c300
000000
000000
000000
000000
000000
ENDCHAR
STARTCHAR Ca2ce
ENCODING 41678
SWIDTH 666 0
DWIDTH 24 0
BBX 24 24 0 -2
BITMAP
000000
000000
000000
0318c0
0318c0
0318c0
0318c0
0318c0
0318c0
0318dc
3ffffc
3ffffc
0318c0
0318c0
0318c0
0318c0
0318c0
0318c0
0318c0
0318c0
0318c0
000000
000000
000000
ENDCHAR
STARTCHAR Ca2cf
ENCODING 41679
SWIDTH 666 0
DWIDTH 24 0
BBX 24 24 0 -2
BITMAP
000000
000000
000800
001c00
001c00
003c00
003e00
007e00
006700
006700
00e700
00c380
00c380
01ff80
01ffc0
0181c0
0301c0
0300e0
0300e0
0f00f0
1f81f8
000000
000000
000000
ENDCHAR
STARTCHAR Ca2d0
ENCODING 41680
SWIDTH 666 0
DWIDTH 24 0
BBX 24 24 0 -2
BITMAP
000000
000000
0fff00
07ff80
0381c0
0380e0
0380e0
0380e0
0380e0
0381c0
03ff80
03ff80
0383e0
0380e0
0380f0
038070
038070
0380f0
0380e0
0fffc0
0fff80
000000
000000
000000
ENDCHAR
STARTCHAR Ca2d1
ENCODING 41681
SWIDTH 666 0
DWIDTH 24 0
BBX 24 24 0 -2
BITMAP
000000
000000
003e00
00ffe0
01e1e0
0380e0
038060
070060
070020
0e0000
0e0000
0e0000
0e0000
0e0000
0e0000
070020
070070
038060
03c0e0
01f3c0
007f00
001c00
000000
000000
ENDCHAR
STARTCHAR Ca2d2
ENCODING 41682
SWIDTH 666 0
DWIDTH 24 0
BBX 24 24 0 -2
BITMAP
000000
000000
0ffc00
0fff80
0303c0
0300e0
0300e0
030070
030070
030070
030070
030070
030070
030070
030070
030070
0300e0
0301e0
0303c0
0fff80
0ffe00
000000
000000
000000
ENDCHAR
STARTCHAR Ca2d3
ENCODING 41683
SWIDTH 666 0
DWIDTH 24 0
BBX 24 24 0 -2
BITMAP
000000
000000
0fffc0
0fffe0
0700e0
030060
030060
030000
030600
030600
038e00
03fe00
038e00
030600
030600
030000
030030
030070
030070
0ffff0
0ffff0
000000
000000
000000
ENDCHAR
STARTCHAR Ca2d4
ENCODING 41684
SWIDTH 666 0
DWIDTH 24 0
BBX 24 24 0 -2
BITMAP
000000
000000
000000
0ffff0
0380f0
038030
038030
038000
038000
038600
038600
03fe00
039e00
038600
038200
038000
038000
038000
038000
03c000
0ff000
000000
000000
000000
ENDCHAR
STARTCHAR Ca2d5
ENCODING 41685
SWIDTH 666 0
DWIDTH 24 0
BBX 24 24 0 -2
BITMAP
000000
000000
007e00
01ffc0
0381e0
0300e0
0700e0
060040
0e0000
0e0000
0e0000
0c0000
0e0000
0e03f0
0e01e0
0e00e0
0600c0
0701c0
0381c0
01ffe0
00fe60
000000
000000
000000
ENDCHAR
STARTCHAR Ca2d6
ENCODING 41686
SWIDTH 666 0
DWIDTH 24 0
BBX 24 24 0 -2
BITMAP
000000
000000
000000
0f83f0
0701e0
0700c0
0700c0
0700c0
0700c0
0700c0
0700c0
07ffc0
07ffc0
0700c0
0700c0
0700c0
0700c0
0700c0
0700c0
0701c0
0f83f0
000000
000000
000000
ENDCHAR
STARTCHAR Ca2d7
ENCODING 41687
SWIDTH 666 0
DWIDTH 24 0
BBX 24 24 0 -2
BITMAP
000000
000000
000000
00fe00
003800
003800
003800
003800
003800
003800
003800
003800
003800
003800
003800
003800
003800
003800
003800
007c00
00ff00
000000
000000
000000
ENDCHAR
STARTCHAR Ca2d8
ENCODING 41688
SWIDTH 666 0
DWIDTH 24 0
BBX 24 24 0 -2
BITMAP
000000
000000
001f80
001f80
000600
000600
000600
000600
000600
000600
000600
000600
000600
000600
000600
000600
070600
070600
070e00
03fe00
01fc00
000000
000000
000000
ENDCHAR
STARTCHAR Ca2d9
ENCODING 41689
SWIDTH 666 0
DWIDTH 24 0
BBX 24 24 0 -2
BITMAP
000000
000000
0fc7e0
0fc7e0
030380
030700
030e00
031c00
033800
037000
03f000
03f800
03bc00
031c00
030e00
030f00
030700
030380
0303c0
0fc3f0
0fc3f0
000000
000000
000000
ENDCHAR
STARTCHAR Ca2da
ENCODING 41690
SWIDTH 666 0
DWIDTH 24 0
BBX 24 24 0 -2
BITMAP
000000
000000
000000
0fe000
038000
038000
038000
038000
038000
038000
038000
038000
038000
038000
038000
038000
038030
038030
038070
0ffff0
0ffff0
000000
000000
000000
ENDCHAR
STARTCHAR Ca2db
ENCODING 41691
SWIDTH 666 0
DWIDTH 24 0
BBX 24 24 0 -2
BITMAP
000000
000000
000000
3e007c
0e0070
0f00f0
0f00f0
0f01b0
0f81b0
0d8130
0dc330
0dc330
0ce230
0ce630
0c6630
0c7c30
0c7c30
0c3c30
0c3830
1c1878
3e10fc
000000
000000
000000
ENDCHAR
STARTCHAR Ca2dc
ENCODING 41692
SWIDTH 666 0
DWIDTH 24 0
BBX 24 24 0 -2
BITMAP
000000
000000
0e01f0
0f01f0
0780e0
07c040
07c040
06e040
06f040
067040
067840
063c40
061c40
061e40
060e40
060740
0607c0
0603c0
0601c0
0f01c0
1f80c0
000000
000000
000000
ENDCHAR
STARTCHAR Ca2dd
ENCODING 41693
SWIDTH 666 0
DWIDTH 24 0
BBX 24 24 0 -2
BITMAP
000000
000000
003c00
00ff00
018380
0381c0
0700e0
0700e0
0e00e0
0e0060
0e0070
0e0070
0e0070
0e0070
0e0060
060060
0700e0
0700c0
0381c0
01c380
00ff00
001800
000000
000000
ENDCHAR
STARTCHAR Ca2de
ENCODING 41694
SWIDTH 666 0
DWIDTH 24 0
BBX 24 24 0 -2
BITMAP
000000
000000
000000
0fff80
0383c0
0380e0
0380f0
038070
038070
038070
0380e0
0383e0
03ff80
038000
038000
038000
038000
038000
038000
07e000
0fe000
000000
000000
000000
ENDCHAR
STARTCHAR Ca2df
ENCODING 41695
SWIDTH 666 0
DWIDTH 24 0
BBX 24 24 0 -2
BITMAP
000000
000000
007e00
01e700
038380
0301c0
0700c0
0600e0
0e00e0
0e0060
0e0070
0e0070
0e0060
0e0060
0e38e0
067ce0
07cec0
03c7c0
03c780
01ff00
007f00
000380
0003e0
000000
ENDCHAR
STARTCHAR Ca2e0
ENCODING 41696
SWIDTH 666 0
DWIDTH 24 0
BBX 24 24 0 -2
BITMAP
000000
000000
000000
0ffe00
070780
030380
0301c0
0301c0
0301c0
030180
030780
03ff00
03fe00
030600
030700
030300
030380
030380
030380
0781f0
0fc1f0
000000
000000
000000
ENDCHAR
STARTCHAR Ca2e1
ENCODING 41697
SWIDTH 666 0
DWIDTH 24 0
BBX 24 24 0 -2
BITMAP
000000
000000
007800
01ffc0
0383c0
0301c0
0700c0
0700c0
078000
03c000
01f800
00ff00
001f80
0007c0
0001c0
0600e0
0600e0
0700c0
0781c0
07e380
00ff00
001c00
000000
000000
ENDCHAR
STARTCHAR Ca2e2
ENCODING 41698
SWIDTH 666 0
DWIDTH 24 0
BBX 24 24 0 -2
BITMAP
000000
000000
000000
1ffff0
1e3870
1c3830
183830
103810
003800
003800
003800
003800
003800
003800
003800
003800
003800
003800
003800
007c00
00fe00
000000
000000
000000
ENDCHAR
STARTCHAR Ca2e3
ENCODING 41699
SWIDTH 666 0
DWIDTH 24 0
BBX 24 24 0 -2
BITMAP
000000
000000
1fc1f8
0f81f8
070060
070040
070040
070040
070040
070040
070040
070040
070040
070040
070040
070040
070040
0700c0
0381c0
03e780
00ff00
000000
000000
000000
ENDCHAR
STARTCHAR Ca2e4
ENCODING 41700
SWIDTH 666 0
DWIDTH 24 0
BBX 24 24 0 -2
BITMAP
000000
000000
000000
1f83f8
0f00e0
0700c0
0700c0
030080
038180
018180
01c100
01c300
00c300
00e200
00e600
007600
007400
003c00
003c00
003800
001800
001800
000000
000000
ENDCHAR
STARTCHAR Ca2e5
ENCODING 41701
SWIDTH 666 0
DWIDTH 24 0
BBX 24 24 0 -2
BITMAP
000000
000000
f87c3e
f87c3e
703818
303810
383830
387c30
187c30
186c20
1ccc60
1cce60
0cce60
0e8640
0f87c0
0f87c0
078380
070380
070380
070380
020100
000000
000000
000000
ENDCHAR
STARTCHAR Ca2e6
ENCODING 41702
SWIDTH 666 0
DWIDTH 24 0
BBX 24 24 0 -2
BITMAP
000000
000000
000000
1fc3f0
0781e0
03c180
01c380
01e700
00e600
007e00
007c00
003800
003c00
007e00
006e00
00cf00
01c700
038380
0703c0
1f83f0
1f87f8
000000
000000
000000
ENDCHAR
STARTCHAR Ca2e7
ENCODING 41703
SWIDTH 666 0
DWIDTH 24 0
BBX 24 24 0 -2
BITMAP
000000
000000
000000
1f83f0
0f81f0
0780c0
038180
01c180
01c300
00e700
00f600
007c00
003c00
003800
003800
003800
003800
003800
003800
007c00
00fe00
000000
000000
000000
ENDCHAR
STARTCHAR Ca2e8
ENCODING 41704
SWIDTH 666 0
DWIDTH 24 0
BBX 24 24 0 -2
BITMAP
000000
000000
000000
07ffe0
0701e0
0603c0
060780
000780
000f00
001e00
001c00
003c00
007800
00f000
00e000
01c000
03c020
078060
0f0060
0fffe0
0fffe0
000000
000000
000000
ENDCHAR
STARTCHAR Ca2e9
ENCODING 41705
SWIDTH 666 0
DWIDTH 24 0
BBX 24 24 0 -2
BITMAP
000000
000000
000000
000000
000000
000000
000000
000000
000000
00f800
01fc00
01ce00
01ce00
003e00
00fe00
01c600
038600
030e80
039f80
03ff80
01e300
000000
000000
000000
ENDCHAR
STARTCHAR Ca2ea
ENCODING 41706
SWIDTH 666 0
DWIDTH 24 0
BBX 24 24 0 -2
BITMAP
000000
000000
000000
03c000
01c000
00c000
00c000
00c000
00c000
00c000
00ff00
00f780
00e380
01c1c0
01c1c0
01c1c0
01c1c0
01c180
01e380
01f700
01be00
000000
000000
000000
ENDCHAR
STARTCHAR Ca2eb
ENCODING 41707
SWIDTH 666 0
DWIDTH 24 0
BBX 24 24 0 -2
BITMAP
000000
000000
000000
000000
000000
000000
000000
000000
000000
007e00
00e300
01c380
01c380
018000
018000
018000
018080
01c180
00e380
007f00
003c00
000000
000000
000000
ENDCHAR
STARTCHAR Ca2ec
ENCODING 41708
SWIDTH 666 0
DWIDTH 24 0
BBX 24 24 0 -2
BITMAP
000000
000000
000e00
001f00
000700
000700
000700
000700
000700
000700
00ff00
01cf00
038700
030700
070700
070700
070700
030700
038700
01ffc0
00fbc0
000000
000000
000000
ENDCHAR
STARTCHAR Ca2ed
ENCODING 41709
SWIDTH 666 0
DWIDTH 24 0
BBX 24 24 0 -2
BITMAP
000000
000000
000000
000000
000000
000000
000000
000000
001800
007e00
00e700
01c380
018380
01ff80
01ff80
018000
018000
01c180
00e380
007f00
001c00
000000
000000
000000
ENDCHAR
STARTCHAR Ca2ee
ENCODING 41710
SWIDTH 666 0
DWIDTH 24 0
BBX 24 24 0 -2
BITMAP
000000
000000
000000
001e00
003f00
003700
003000
003000
003000
003000
00fe00
003000
003000
003000
003000
003000
003000
003000
003000
007800
00fc00
000000
000000
000000
ENDCHAR
STARTCHAR Ca2ef
ENCODING 41711
SWIDTH 666 0
DWIDTH 24 0
BBX 24 24 0 -2
BITMAP
000000
000000
000000
000000
003800
00ffc0
00c7c0
01c300
01c300
01c300
00ef00
01fe00
018000
01fc00
01ff00
03ff80
038180
030180
03c380
01ff00
003c00
000000
000000
000000
ENDCHAR
STARTCHAR Ca2f0
ENCODING 41712
SWIDTH 666 0
DWIDTH 24 0
BBX 24 24 0 -2
BITMAP
000000
000000
000000
03c000
00c000
00c000
00c000
00c000
00c000
00c000
00df00
00ff80
00e380
00c180
00c180
00c180
00c180
00c180
00c180
01c180
03e7e0
000000
000000
000000
ENDCHAR
STARTCHAR Ca2f1
ENCODING 41713
SWIDTH 666 0
DWIDTH 24 0
BBX 24 24 0 -2
BITMAP
000000
000000
000000
001c00
001c00
001c00
000000
000000
000000
003800
007c00
001c00
001c00
001c00
001c00
001c00
001c00
001c00
001c00
003e00
003e00
000000
000000
000000
ENDCHAR
STARTCHAR Ca2f2
ENCODING 41714
SWIDTH 666 0
DWIDTH 24 0
BBX 24 24 0 -2
BITMAP
000000
000c00
001e00
001e00
000000
000000
000000
003c00
001c00
000c00
000c00
000c00
000c00
000c00
000c00
000c00
000c00
000c00
000c00
002c00
007c00
007c00
000000
000000
ENDCHAR
STARTCHAR Ca2f3
ENCODING 41715
SWIDTH 666 0
DWIDTH 24 0
BBX 24 24 0 -2
BITMAP
000000
000000
000000
03c000
00c000
00c000
00c000
00c000
00c000
00c000
00c380
00c380
00c600
00cc00
00dc00
00fe00
00ee00
00c700
00c380
00c3c0
01e3e0
000000
000000
000000
ENDCHAR
STARTCHAR Ca2f4
ENCODING 41716
SWIDTH 666 0
DWIDTH 24 0
BBX 24 24 0 -2
BITMAP
000000
000000
000000
007800
003800
001800
001800
001800
001800
001800
001800
001800
001800
001800
001800
001800
001800
001800
001800
007e00
007e00
000000
000000
000000
ENDCHAR
STARTCHAR Ca2f5
ENCODING 41717
SWIDTH 666 0
DWIDTH 24 0
BBX 24 24 0 -2
BITMAP
000000
000000
000000
000000
000000
000000
000000
000000
000000
000000
1ff3e0
0ffee0
0f3c70
0e1870
0e1870
0e1870
0e1870
0e1870
0e1870
1f3cf0
1f7cf8
000000
000000
000000
ENDCHAR
STARTCHAR Ca2f6
ENCODING 41718
SWIDTH 666 0
DWIDTH 24 0
BBX 24 24 0 -2
BITMAP
000000
000000
000000
000000
000000
000000
000000
000000
000000
018e00
03ff00
01f380
01c380
01c380
01c380
01c380
01c380
01c380
01c380
03e7c0
03e7c0
000000
000000
000000
ENDCHAR
STARTCHAR Ca2f7
ENCODING 41719
SWIDTH 666 0
DWIDTH 24 0
BBX 24 24 0 -2
BITMAP
000000
000000
000000
000000
000000
000000
000000
000000
000000
001800
00fe00
01c700
018380
038180
038180
038180
038180
018380
01c300
00e700
007c00
000000
000000
000000
ENDCHAR
STARTCHAR Ca2f8
ENCODING 41720
SWIDTH 666 0
DWIDTH 24 0
BBX 24 24 0 -2
BITMAP
000000
000000
000000
000000
000000
000000
000000
03de00
03ff00
00e380
00e180
00c1c0
00c1c0
00c1c0
00c1c0
00c180
00e380
00ff00
00dc00
00c000
00c000
03f000
000000
000000
ENDCHAR
STARTCHAR Ca2f9
ENCODING 41721
SWIDTH 666 0
DWIDTH 24 0
BBX 24 24 0 -2
BITMAP
000000
000000
000000
000000
000000
000000
000000
00ff00
01cf00
018700
038300
038300
038300
038300
038300
018700
01ff00
00fb00
000300
000300
000700
000fc0
000000
000000
ENDCHAR
STARTCHAR Ca2fa
ENCODING 41722
SWIDTH 666 0
DWIDTH 24 0
BBX 24 24 0 -2
BITMAP
000000
000000
000000
000000
000000
000000
000000
000000
000000
000000
01ef00
00ff80
007380
007300
006000
006000
006000
006000
006000
006000
01fc00
000000
000000
000000
ENDCHAR
STARTCHAR Ca2fb
ENCODING 41723
SWIDTH 666 0
DWIDTH 24 0
BBX 24 24 0 -2
BITMAP
000000
000000
000000
000000
000000
000000
000000
000000
000000
003c00
007f00
00c300
00c100
00f000
007c00
003f00
000f80
018380
01c180
01f700
01be00
000000
000000
000000
ENDCHAR
STARTCHAR Ca2fc
ENCODING 41724
SWIDTH 666 0
DWIDTH 24 0
BBX 24 24 0 -2
BITMAP
000000
000000
000000
000000
000000
000000
003000
003000
003000
00fe00
00fe00
003000
003000
003000
003000
003000
003000
003300
003300
003e00
000800
000000
000000
000000
ENDCHAR
STARTCHAR Ca2fd
ENCODING 41725
SWIDTH 666 0
DWIDTH 24 0
BBX 24 24 0 -2
BITMAP
000000
000000
000000
000000
000000
000000
000000
000000
000000
000000
03c780
01c380
00c380
00c380
00c380
00c380
00c380
00c380
00c780
00ef80
007dc0
000000
000000
000000
ENDCHAR
STARTCHAR Ca2fe
ENCODING 41726
SWIDTH 666 0
DWIDTH 24 0
BBX 24 24 0 -2
BITMAP
000000
000000
000000
000000
000000
000000
000000
000000
000000
000000
07c7e0
03c180
01c300
01c300
00e600
00e600
007600
007c00
003c00
003800
003800
000000
000000
000000
ENDCHAR
STARTCHAR Ca340
ENCODING 41792
SWIDTH 666 0
DWIDTH 24 0
BBX 24 24 0 -2
BITMAP
000000
000000
000000
000000
000000
000000
000000
000000
000000
000000
1f3cf8
0e3870
061c60
063c40
073cc0
036ec0
03ef80
03c780
01c700
01c700
018300
000000
000000
000000
ENDCHAR
STARTCHAR Ca341
ENCODING 41793
SWIDTH 666 0
DWIDTH 24 0
BBX 24 24 0 -2
BITMAP
000000
000000
000000
000000
000000
000000
000000
000000
000000
03c7c0
03e7c0
01e300
00e600
007c00
003800
003c00
007e00
00ee00
01c700
07c7c0
07c7c0
000000
000000
000000
ENDCHAR
STARTCHAR Ca342
ENCODING 41794
SWIDTH 666 0
DWIDTH 24 0
BBX 24 24 0 -2
BITMAP
000000
000000
000000
000000
000000
000000
03c380
03c7c0
01c300
00c300
00e600
006600
007400
007c00
003c00
003800
001800
001000
003000
032000
03e000
03c000
000000
000000
ENDCHAR
STARTCHAR Ca343
ENCODING 41795
SWIDTH 666 0
DWIDTH 24 0
BBX 24 24 0 -2
BITMAP
000000
000000
000000
000000
000000
000000
000000
000000
000000
000000
01ff80
018700
018f00
001e00
001c00
003800
007800
00f080
00e180
01ff80
01ff80
000000
000000
000000
ENDCHAR
STARTCHAR Ca344
ENCODING 41796
SWIDTH 666 0
DWIDTH 24 0
BBX 24 24 0 -2
BITMAP
000000
001800
003800
003c00
007c00
006e00
00e600
00c600
00c700
01c300
018380
038180
030180
0301c0
07ffc0
0600e0
0e0060
0c0060
0c0070
1c0070
180030
3e00fc
000000
000000
ENDCHAR
STARTCHAR Ca345
ENCODING 41797
SWIDTH 666 0
DWIDTH 24 0
BBX 24 24 0 -2
BITMAP
000000
000000
0fff00
0303c0
0300e0
0300e0
030060
030060
0300e0
0300e0
0303c0
03ff80
0301c0
030070
030038
030038
030018
030018
030038
030078
0301f0
0fffc0
000000
000000
ENDCHAR
STARTCHAR Ca346
ENCODING 41798
SWIDTH 666 0
DWIDTH 24 0
BBX 24 24 0 -2
BITMAP
000000
000000
0ffff0
030070
030030
030010
030010
030000
030000
030000
030000
030000
030000
030000
030000
030000
030000
030000
030000
030000
078000
0fc000
000000
000000
ENDCHAR
STARTCHAR Ca347
ENCODING 41799
SWIDTH 666 0
DWIDTH 24 0
BBX 24 24 0 -2
BITMAP
000000
001800
003c00
003c00
006e00
006e00
00c700
00c700
018380
018380
0301c0
0301c0
0600e0
0600e0
0c0070
0c0070
180038
180038
30001c
30001c
3ffffc
3ffffc
000000
000000
ENDCHAR
STARTCHAR Ca348
ENCODING 41800
SWIDTH 666 0
DWIDTH 24 0
BBX 24 24 0 -2
BITMAP
000000
000000
0fffe0
0300e0
030060
030020
030020
030000
030200
030600
030600
03fe00
030600
030600
030200
030000
030000
030020
030020
030060
0300e0
0fffe0
000000
000000
ENDCHAR
STARTCHAR Ca349
ENCODING 41801
SWIDTH 666 0
DWIDTH 24 0
BBX 24 24 0 -2
BITMAP
000000
000000
0ffff0
0f0070
0e00f0
0c00e0
0801c0
0003c0
000780
000700
000e00
001e00
003c00
007800
00f000
01e000
03c000
038008
070018
0f0038
1e0078
1ffff8
000000
000000
ENDCHAR
STARTCHAR Ca34a
ENCODING 41802
SWIDTH 666 0
DWIDTH 24 0
BBX 24 24 0 -2
BITMAP
000000
000000
1f81f8
0f00f0
060060
060060
060060
060060
060060
060060
060060
07ffe0
060060
060060
060060
060060
060060
060060
060060
060060
0f00f0
1f81f8
000000
000000
ENDCHAR
STARTCHAR Ca34b
ENCODING 41803
SWIDTH 666 0
DWIDTH 24 0
BBX 24 24 0 -2
BITMAP
000000
000000
01ff00
0783c0
0f00e0
0e0060
1c0070
1c0070
1c0070
180030
188230
18fe30
18fe30
188230
180030
1c0070
0c0070
0c0060
0e00e0
0701c0
03c780
01ff00
000000
000000
ENDCHAR
STARTCHAR Ca34c
ENCODING 41804
SWIDTH 666 0
DWIDTH 24 0
BBX 24 24 0 -2
BITMAP
000000
000000
00ff00
003c00
001800
001800
001800
001800
001800
001800
001800
001800
001800
001800
001800
001800
001800
001800
001800
001800
003c00
00ff00
000000
000000
ENDCHAR
STARTCHAR Ca34d
ENCODING 41805
SWIDTH 666 0
DWIDTH 24 0
BBX 24 24 0 -2
BITMAP
000000
000000
1f83f0
0601c0
060380
060700
060e00
061c00
063800
067000
06f000
07f800
079c00
070c00
060e00
060700
060380
060180
0601c0
0600e0
0600e0
1f83f8
000000
000000
ENDCHAR
STARTCHAR Ca34e
ENCODING 41806
SWIDTH 666 0
DWIDTH 24 0
BBX 24 24 0 -2
BITMAP
000000
001800
003800
003c00
007c00
006e00
00e600
00c600
00c700
01c300
018380
038180
030180
0301c0
0700c0
0600e0
0e0060
0c0060
0c0070
1c0070
180030
3e00fc
000000
000000
ENDCHAR
STARTCHAR Ca34f
ENCODING 41807
SWIDTH 666 0
DWIDTH 24 0
BBX 24 24 0 -2
BITMAP
000000
000000
7c007e
1e0078
160078
1700f8
1300d8
1381d8
138198
118198
11c318
11c318
10c318
10e618
10e618
106618
107c18
103c18
103c18
101818
100018
7c007e
000000
000000
ENDCHAR
STARTCHAR Ca350
ENCODING 41808
SWIDTH 666 0
DWIDTH 24 0
BBX 24 24 0 -2
BITMAP
000000
000000
1f00f8
078020
078020
05c020
05e020
04e020
047020
047020
043820
041c20
041e20
040e20
040720
040720
0403a0
0401e0
0401e0
0400e0
040060
1f0020
000000
000000
ENDCHAR
STARTCHAR Ca351
ENCODING 41809
SWIDTH 666 0
DWIDTH 24 0
BBX 24 24 0 -2
BITMAP
000000
000000
07fff8
07fff8
0e0030
0c0030
000000
000000
000000
018060
03ffe0
03ffe0
0300c0
000000
000000
000000
000000
000000
0c0018
0c0038
1ffff0
1ffff0
000000
000000
ENDCHAR
STARTCHAR Ca352
ENCODING 41810
SWIDTH 666 0
DWIDTH 24 0
BBX 24 24 0 -2
BITMAP
000000
000000
01ff80
07c1e0
0f0060
0e0070
1c0038
1c0038
1c0038
180018
180018
180018
180018
180018
180018
1c0038
1c0038
1c0038
0c0030
0e0070
0781e0
01ff80
000000
000000
ENDCHAR
STARTCHAR Ca353
ENCODING 41811
SWIDTH 666 0
DWIDTH 24 0
BBX 24 24 0 -2
BITMAP
000000
000000
1ffff8
060060
060060
060060
060060
060060
060060
060060
060060
060060
060060
060060
060060
060060
060060
060060
060060
060060
0f00f0
1f81f8
000000
000000
ENDCHAR
STARTCHAR Ca354
ENCODING 41812
SWIDTH 666 0
DWIDTH 24 0
BBX 24 24 0 -2
BITMAP
000000
000000
0fff80
0303e0
0300f0
030070
030030
030030
030030
030070
030070
0303e0
03ff80
030000
030000
030000
030000
030000
030000
030000
078000
0fc000
000000
000000
ENDCHAR
STARTCHAR Ca355
ENCODING 41813
SWIDTH 666 0
DWIDTH 24 0
BBX 24 24 0 -2
BITMAP
000000
07ffe0
07ffe0
038060
038060
01c060
00e060
00e060
007000
003800
003800
003000
003000
006000
004060
00c060
018060
018060
030060
030060
07ffe0
07ffe0
000000
000000
ENDCHAR
STARTCHAR Ca356
ENCODING 41814
SWIDTH 666 0
DWIDTH 24 0
BBX 24 24 0 -2
BITMAP
000000
000000
0ffff0
0e1870
0c1830
081810
081810
001800
001800
001800
001800
001800
001800
001800
001800
001800
001800
001800
001800
001800
001800
007e00
000000
000000
ENDCHAR
STARTCHAR Ca357
ENCODING 41815
SWIDTH 666 0
DWIDTH 24 0
BBX 24 24 0 -2
BITMAP
000000
000000
07c3e0
0fe7f0
1c7e38
183c18
101808
101808
001800
001800
001800
001800
001800
001800
001800
001800
001800
001800
001800
001800
001800
007e00
000000
000000
ENDCHAR
STARTCHAR Ca358
ENCODING 41816
SWIDTH 666 0
DWIDTH 24 0
BBX 24 24 0 -2
BITMAP
000000
000000
007e00
001800
001800
03ffc0
0f99f0
1c1838
181818
38181c
30180c
30180c
30180c
30180c
38181c
181818
1c1838
0f99f0
03ffc0
001800
001800
007e00
000000
000000
ENDCHAR
STARTCHAR Ca359
ENCODING 41817
SWIDTH 666 0
DWIDTH 24 0
BBX 24 24 0 -2
BITMAP
000000
000000
3fc1fc
0f0070
070070
0380e0
03c1c0
01c380
00e300
007600
007e00
003c00
003e00
007e00
006700
00c780
01c380
0381c0
0701e0
0e00f0
3f83fc
3f83fc
000000
000000
ENDCHAR
STARTCHAR Ca35a
ENCODING 41818
SWIDTH 666 0
DWIDTH 24 0
BBX 24 24 0 -2
BITMAP
000000
000000
7c7e3e
fe187f
ee1877
061860
0718e0
0718e0
0718e0
0318c0
0318c0
0318c0
0318c0
0199c0
019980
01db80
00ff80
00ff00
001800
001800
001800
007e00
000000
000000
ENDCHAR
STARTCHAR Ca35b
ENCODING 41819
SWIDTH 666 0
DWIDTH 24 0
BBX 24 24 0 -2
BITMAP
000000
000000
00ff00
03c3c0
0300c0
0700e0
060060
0e0070
0c0030
0c0030
0c0030
0e0070
060060
0700e0
0301c0
0381c0
01e780
006600
082410
082430
0fe7f0
0fe7f0
000000
000000
ENDCHAR
STARTCHAR Ca35c
ENCODING 41820
SWIDTH 666 0
DWIDTH 24 0
BBX 24 24 0 -2
BITMAP
000000
000000
000000
000000
000000
000000
007c00
00ffc0
01c7c0
01c780
038780
038700
030700
030600
030c00
039f80
01f780
00e200
000000
000000
000000
000000
000000
000000
ENDCHAR
STARTCHAR Ca35d
ENCODING 41821
SWIDTH 666 0
DWIDTH 24 0
BBX 24 24 0 -2
BITMAP
000300
000fc0
001ce0
001860
003060
003060
006060
0060e0
007fc0
00df80
00c380
00c180
0181c0
0181c0
0381c0
03c380
03e780
077f00
071c00
060000
060000
0e0000
0e0000
000000
ENDCHAR
STARTCHAR Ca35e
ENCODING 41822
SWIDTH 666 0
DWIDTH 24 0
BBX 24 24 0 -2
BITMAP
000000
000000
000000
000000
000000
000000
000000
000000
000000
03f180
07f180
063b80
061b00
041f00
000e00
000e00
000c00
001c00
001800
003800
003000
006000
000000
000000
ENDCHAR
STARTCHAR Ca35f
ENCODING 41823
SWIDTH 666 0
DWIDTH 24 0
BBX 24 24 0 -2
BITMAP
000000
000000
003f00
0073c0
0060e0
007060
001c60
000f00
000300
007f80
00e180
01c1c0
0181c0
0380c0
0300c0
0300c0
0300c0
030180
038180
038300
01c600
00fc00
000000
000000
ENDCHAR
STARTCHAR Ca360
ENCODING 41824
SWIDTH 666 0
DWIDTH 24 0
BBX 24 24 0 -2
BITMAP
000000
000000
000000
000000
000000
000000
000000
000000
000000
00ff80
01e3c0
01c0c0
018000
01c000
00fe00
03de00
038000
030000
0380c0
03c1c0
01ffc0
00ff00
000000
000000
ENDCHAR
STARTCHAR Ca361
ENCODING 41825
SWIDTH 666 0
DWIDTH 24 0
BBX 24 24 0 -2
BITMAP
000000
000000
007000
01e000
01c300
01c700
00fe00
007c00
007000
00e000
00c000
018000
018000
038000
030000
030000
038000
01f800
00fe00
000f00
000300
018700
01ff00
000000
ENDCHAR
STARTCHAR Ca362
ENCODING 41826
SWIDTH 666 0
DWIDTH 24 0
BBX 24 24 0 -2
BITMAP
000000
000000
000000
000000
000000
000000
000000
000000
000000
079f80
07bfc0
00f1c0
01e0c0
01c1c0
01c1c0
01c1c0
0381c0
038180
038380
038380
038380
030300
000300
000300
ENDCHAR
STARTCHAR Ca363
ENCODING 41827
SWIDTH 666 0
DWIDTH 24 0
BBX 24 24 0 -2
BITMAP
000000
000000
003f00
00f380
01c1c0
0181c0
0380c0
0300c0
0700c0
0700c0
0700c0
07ffc0
0601c0
0601c0
0601c0
060180
060180
060380
070300
070700
039e00
01f800
000000
000000
ENDCHAR
STARTCHAR Ca364
ENCODING 41828
SWIDTH 666 0
DWIDTH 24 0
BBX 24 24 0 -2
BITMAP
000000
000000
000000
000000
000000
000000
000000
000000
000000
003800
003800
007800
007000
00e000
00e000
01e000
01c000
01c000
018200
01c600
01fe00
01f800
000000
000000
ENDCHAR
STARTCHAR Ca365
ENCODING 41829
SWIDTH 666 0
DWIDTH 24 0
BBX 24 24 0 -2
BITMAP
000000
000000
000000
000000
000000
000000
000000
000000
000000
07c380
07c780
00cf00
019e00
019c00
01b800
037800
036c00
03cc00
03cc20
078e60
0707e0
0603c0
000000
000000
ENDCHAR
STARTCHAR Ca366
ENCODING 41830
SWIDTH 666 0
DWIDTH 24 0
BBX 24 24 0 -2
BITMAP
000000
000000
000000
003000
007800
003c00
000c00
000c00
000c00
000c00
000c00
001c00
003c00
003c00
006600
00e600
01c600
01c700
038380
0383c0
000080
000000
000000
000000
ENDCHAR
STARTCHAR Ca367
ENCODING 41831
SWIDTH 666 0
DWIDTH 24 0
BBX 24 24 0 -2
BITMAP
000000
000000
000000
000000
000000
000000
000000
000000
000000
00c040
00c0c0
01c1c0
01c1c0
01c1c0
018380
038380
038380
030300
030300
078320
07cfe0
07fce0
060000
060000
ENDCHAR
STARTCHAR Ca368
ENCODING 41832
SWIDTH 666 0
DWIDTH 24 0
BBX 24 24 0 -2
BITMAP
000000
000000
000000
000000
000000
000000
01c180
01c180
00c180
00c300
00c300
00c700
00c600
00de00
01bc00
01f800
01e000
010000
000000
000000
000000
000000
000000
000000
ENDCHAR
STARTCHAR Ca369
ENCODING 41833
SWIDTH 666 0
DWIDTH 24 0
BBX 24 24 0 -2
BITMAP
000000
001e00
003800
003800
003fc0
00f3c0
00e000
00c000
00e000
00f800
007fc0
00f3c0
01c000
01c000
038000
038000
03c000
01f800
007e00
000f80
000380
007380
007f80
000000
ENDCHAR
STARTCHAR Ca36a
ENCODING 41834
SWIDTH 666 0
DWIDTH 24 0
BBX 24 24 0 -2
BITMAP
000000
000000
000000
000000
000000
000000
000000
000000
000000
007f00
00e380
01c180
0180c0
0380c0
0300c0
0300c0
0300c0
0301c0
030180
038380
018f00
01fc00
007000
000000
ENDCHAR
STARTCHAR Ca36b
ENCODING 41835
SWIDTH 666 0
DWIDTH 24 0
BBX 24 24 0 -2
BITMAP
000000
000000
000000
000000
000000
000000
00f0c0
01ffc0
03ffc0
006600
006600
00cc00
00cc00
01cc00
039800
079f00
071f00
000400
000000
000000
000000
000000
000000
000000
ENDCHAR
STARTCHAR Ca36c
ENCODING 41836
SWIDTH 666 0
DWIDTH 24 0
BBX 24 24 0 -2
BITMAP
000000
000000
000000
000000
000000
000000
000000
000000
001e00
007f80
0061c0
00c1c0
00c0c0
0180c0
0180c0
0180c0
0380c0
03c180
03c380
036700
077e00
070000
060000
060000
ENDCHAR
STARTCHAR Ca36d
ENCODING 41837
SWIDTH 666 0
DWIDTH 24 0
BBX 24 24 0 -2
BITMAP
000000
000000
000000
000000
000000
000000
000000
000000
000008
00fff8
01e3f0
038180
030180
070180
060180
060180
060180
060380
060300
070700
038e00
01fc00
000000
000000
ENDCHAR
STARTCHAR Ca36e
ENCODING 41838
SWIDTH 666 0
DWIDTH 24 0
BBX 24 24 0 -2
BITMAP
000000
000000
000000
000000
000000
000000
000000
000000
000180
03ff80
07ff00
063000
007000
006000
00e000
00e000
00c000
01c000
01c200
01c600
01fe00
00f800
000000
000000
ENDCHAR
STARTCHAR Ca36f
ENCODING 41839
SWIDTH 666 0
DWIDTH 24 0
BBX 24 24 0 -2
BITMAP
000000
000000
000000
000000
000000
000000
000000
000000
000000
0181c0
01c0c0
01c0c0
01c1c0
00c1c0
0181c0
0181c0
018180
010380
018300
018300
01c600
00fe00
000000
000000
ENDCHAR
STARTCHAR Ca370
ENCODING 41840
SWIDTH 666 0
DWIDTH 24 0
BBX 24 24 0 -2
BITMAP
000000
000000
000700
000700
000600
000e00
000e00
000c00
007f80
01edc0
039cc0
071ce0
071c60
061860
061860
0638e0
0738c0
0331c0
03b780
01fe00
007800
006000
00e000
00e000
ENDCHAR
STARTCHAR Ca371
ENCODING 41841
SWIDTH 666 0
DWIDTH 24 0
BBX 24 24 0 -2
BITMAP
000000
000000
000000
00f060
01f0e0
0139c0
0019c0
001b80
001f00
001e00
001e00
001c00
001800
003800
007800
00f800
00d800
01d800
038c00
070f80
070700
000000
000000
000000
ENDCHAR
STARTCHAR Ca372
ENCODING 41842
SWIDTH 666 0
DWIDTH 24 0
BBX 24 24 0 -2
BITMAP
000000
000000
000300
000300
000700
000700
000700
000600
000600
01cee0
038ce0
030c60
070c60
061c60
0618e0
0618e0
0618c0
0739c0
033180
03b780
01fe00
007c00
007000
006000
ENDCHAR
STARTCHAR Ca373
ENCODING 41843
SWIDTH 666 0
DWIDTH 24 0
BBX 24 24 0 -2
BITMAP
000000
000000
000000
000000
000000
000000
000000
000000
000000
01e030
03c030
070018
060c18
0e0c18
0c1c18
0c1c18
0c1818
0c1838
061830
071c70
03bfe0
01f780
000000
000000
ENDCHAR
STARTCHAR Ca374
ENCODING 41844
SWIDTH 666 0
DWIDTH 24 0
BBX 24 24 0 -2
BITMAP
038000
03c000
07c000
078000
0f0000
0f0060
1e1ff8
3ffff8
3ffc7c
3f803c
1c0078
000078
000078
000070
0000f0
0000f0
0001e0
0001e0
0003e0
0037c0
003f80
001f80
000f00
000e00
ENDCHAR
STARTCHAR Ca375
ENCODING 41845
SWIDTH 666 0
DWIDTH 24 0
BBX 24 24 0 -2
BITMAP
038000
03c000
03c000
07c000
078040
0701f0
0f1ff8
0ffff8
1ff8f8
1fc0f0
0e01f0
0001e0
0003c0
01e7c0
00ff80
003f00
001f00
003fc0
007fe0
00fbf0
03e1f0
07c0f8
0f0078
1c0010
ENDCHAR
STARTCHAR Ca376
ENCODING 41846
SWIDTH 666 0
DWIDTH 24 0
BBX 24 24 0 -2
BITMAP
000000
000000
0000f8
00fffc
7ffffe
7ff83c
7f003c
70003c
70003c
70003c
70003c
70003c
70003c
70003c
70003c
70003c
70003c
70003c
70003c
30003c
000038
000018
000000
000000
ENDCHAR
STARTCHAR Ca377
ENCODING 41847
SWIDTH 666 0
DWIDTH 24 0
BBX 24 24 0 -2
BITMAP
000000
000000
000000
000078
001ffc
7ffffe
7fff80
3f8000
1c0000
1c0000
1c0000
1c0000
1c0000
1c0000
1c0000
1c0000
1e0000
1f0078
0ffffc
07fffc
03fffc
000000
000000
000000
ENDCHAR
STARTCHAR Ca378
ENCODING 41848
SWIDTH 666 0
DWIDTH 24 0
BBX 24 24 0 -2
BITMAP
030000
038000
07c000
07c000
078000
0f0000
0e0070
1e1ff8
3ffffc
3ffc3c
3fe03c
1ce038
00e078
01e078
01e078
03c0f0
0380f0
0700f0
0f01e0
1e01e0
183bc0
301fc0
001f80
000f00
ENDCHAR
STARTCHAR Ca379
ENCODING 41849
SWIDTH 666 0
DWIDTH 24 0
BBX 24 24 0 -2
BITMAP
001000
003c00
001e00
001e00
003c00
003c00
003c00
003830
007ff8
00fffc
3fffe0
3ff800
1fe000
01e000
01e380
03c3c0
03c1f0
0787f8
07bff8
0ffe78
0ff838
07c010
030000
000000
ENDCHAR
STARTCHAR Ca37a
ENCODING 41850
SWIDTH 666 0
DWIDTH 24 0
BBX 24 24 0 -2
BITMAP
00fc00
1ffe00
0fff00
073f00
003c00
007c00
00f800
00f3c0
01ffe0
01fff0
01fcf0
00c0f0
0001e0
0001e0
0001e0
0001c0
0003c0
0003c0
000780
008f80
00ff80
007f00
003e00
003c00
ENDCHAR
STARTCHAR Ca37b
ENCODING 41851
SWIDTH 666 0
DWIDTH 24 0
BBX 24 24 0 -2
BITMAP
001e00
001e00
031e00
039e00
079e00
079c00
073cf0
0f3ff8
0e7ff8
1fff78
1ff838
1ff078
0cf078
00f078
01e070
01c070
03c0f0
0380f0
0701e0
0e1fe0
0c0fe0
180fc0
100780
000300
ENDCHAR
STARTCHAR Ca37c
ENCODING 41852
SWIDTH 666 0
DWIDTH 24 0
BBX 24 24 0 -2
BITMAP
0100c0
01c0e0
01e0e0
01e0f0
03e1f0
03c1e0
0383c0
078380
070780
0f0700
0e0e00
0c0e00
0e0c00
0e0e00
070f00
078780
0387c0
03c3c0
03c3e0
01c1e0
01c1e0
01c0e0
00c0e0
000000
ENDCHAR
STARTCHAR Ca37d
ENCODING 41853
SWIDTH 666 0
DWIDTH 24 0
BBX 24 24 0 -2
BITMAP
000000
0007fc
7ffffe
7fff3e
3c7000
00f000
00f000
01e000
03cfe0
03fff8
03fc78
018078
000070
000070
0000f0
0000f0
0001e0
0001e0
0003c0
0023c0
003f80
001f80
000f00
000000
ENDCHAR
STARTCHAR Ca37e
ENCODING 41854
SWIDTH 666 0
DWIDTH 24 0
BBX 24 24 0 -2
BITMAP
000000
000000
0003fc
0ffffe
0ffffe
07f000
070000
070000
070000
070000
070000
070000
0f0000
0e0000
0e0000
0e0000
1c0000
1c0000
380000
380000
700000
600000
000000
000000
ENDCHAR
STARTCHAR Ca3a1
ENCODING 41889
SWIDTH 666 0
DWIDTH 24 0
BBX 24 24 0 -2
BITMAP
0001c0
0001e0
0401e0
0781e0
07c1c0
03c1c0
0381c0
0381c0
0381c0
0381c0
0381c0
0381c0
0383c0
038fc0
03bfc0
03fdc0
03f1c0
01e1c0
0001c0
0001c0
0001c0
0001c0
0001c0
0000c0
ENDCHAR
STARTCHAR Ca3a2
ENCODING 41890
SWIDTH 666 0
DWIDTH 24 0
BBX 24 24 0 -2
BITMAP
000380
0003c0
0007c0
0007c0
000f80
001f00
001e00
003c00
007800
00f000
01e000
03c000
038000
03c000
01e000
00f000
007c00
003e00
001f00
000f80
000f80
0007c0
0003c0
000180
ENDCHAR
STARTCHAR Ca3a3
ENCODING 41891
SWIDTH 666 0
DWIDTH 24 0
BBX 24 24 0 -2
BITMAP
000000
000078
003ffc
3ffffc
3fff00
3fbe00
181e00
001c00
001c00
001c00
001c00
001c00
001c00
001c00
001c00
001c00
001c00
001c00
001c00
001c00
001c00
001c00
000c00
000000
ENDCHAR
STARTCHAR Ca3a4
ENCODING 41892
SWIDTH 666 0
DWIDTH 24 0
BBX 24 24 0 -2
BITMAP
000000
007000
007c00
003c60
0e3c70
0f3c78
0e3c70
0e3870
0e3c70
0e3870
0f3cf0
0f3ff0
0fffe0
0fffc0
07fc00
003800
003800
003800
003df8
03fffc
3ffffc
3ff000
0c0000
000000
ENDCHAR
STARTCHAR Ca3a5
ENCODING 41893
SWIDTH 666 0
DWIDTH 24 0
BBX 24 24 0 -2
BITMAP
000380
0007c0
0007c0
000f00
001f00
003c80
0079e0
00f3e0
01e3e0
0387c0
020f80
001f00
003e00
007e00
00fe00
01ee00
03ce00
070f00
0c0f00
000f00
000f00
000f00
000f00
000e00
ENDCHAR
STARTCHAR Ca3a6
ENCODING 41894
SWIDTH 666 0
DWIDTH 24 0
BBX 24 24 0 -2
BITMAP
000000
0003f0
03fff8
01fff8
00f878
000070
000070
0007f0
03fff0
03fff0
03f000
01c000
03c000
03c000
03c000
038000
038000
070000
070000
0e0000
0e0000
1c0000
100000
000000
ENDCHAR
STARTCHAR Ca3a7
ENCODING 41895
SWIDTH 666 0
DWIDTH 24 0
BBX 24 24 0 -2
BITMAP
000000
0000c0
003fe0
03fff0
0ffff0
0fe0f0
0f00f0
0f00f0
0e00f0
0e60f0
0e70f0
0e3cf0
0e1ef0
0e1ef0
0e0ef0
0e0cf0
0e00f0
0e00f0
0f7ff0
0ffff0
07fff0
07e0f0
000060
000000
ENDCHAR
STARTCHAR Ca3a8
ENCODING 41896
SWIDTH 666 0
DWIDTH 24 0
BBX 24 24 0 -2
BITMAP
000000
0007f0
00fff8
3ffffc
1ff078
0fe078
00e078
00e070
00e0f0
00e0f0
00e0f0
00e7e0
00e7e0
00e3c0
00e180
01e000
01e000
01e000
01e000
01e000
01e000
00e000
00c000
000000
ENDCHAR
STARTCHAR Ca3a9
ENCODING 41897
SWIDTH 666 0
DWIDTH 24 0
BBX 24 24 0 -2
BITMAP
003000
003c00
003c00
003c00
003c00
003c38
003ffc
03fffc
3ffe00
3ff800
187800
0078c0
007ff0
007ff0
007e70
0000f0
0000e0
0001e0
0003c0
0003c0
000780
000f00
001c00
001800
ENDCHAR
STARTCHAR Ca3aa
ENCODING 41898
SWIDTH 666 0
DWIDTH 24 0
BBX 24 24 0 -2
BITMAP
000000
003000
003800
003c00
003e00
007c00
007c00
007800
00f000
00f000
01e000
01c000
03c000
0780c0
0780e0
0f00f0
0f0ff8
1ffffc
3ffc3c
3fe01c
1f801c
1c0000
000000
000000
ENDCHAR
STARTCHAR Ca3ab
ENCODING 41899
SWIDTH 666 0
DWIDTH 24 0
BBX 24 24 0 -2
BITMAP
000070
1e0078
1f0078
0f80f8
0780f8
03c1f0
01e1e0
01f3c0
00ff80
007f00
003e00
001e00
001e00
001e00
001e00
001e00
001e00
001e00
001e00
001e00
001e00
001e00
001e00
000c00
ENDCHAR
STARTCHAR Ca3ac
ENCODING 41900
SWIDTH 666 0
DWIDTH 24 0
BBX 24 24 0 -2
BITMAP
000000
000000
000ffc
7ffffe
7fffee
3f9e00
001e00
001e00
001e00
00fe00
03fe00
07fc00
078000
070000
070000
070000
070070
0780f0
07e3f0
03ffe0
01ffc0
007f00
000000
000000
ENDCHAR
STARTCHAR Ca3ad
ENCODING 41901
SWIDTH 666 0
DWIDTH 24 0
BBX 24 24 0 -2
BITMAP
001000
003e00
003e00
001e00
001c00
001c38
001ffe
67fffe
7fff00
3fdc00
181c00
001c00
00fc00
03fc00
07fc00
078000
070000
070000
070060
0780f0
03ffe0
03ffe0
01ffc0
003e00
ENDCHAR
STARTCHAR Ca3ae
ENCODING 41902
SWIDTH 666 0
DWIDTH 24 0
BBX 24 24 0 -2
BITMAP
000000
000700
0707c0
07c3c0
03c3c0
03c380
03c380
03c380
03c3fc
03fffe
7ffffe
ffff80
7fc380
1bc380
01c380
01c300
01c300
01c300
01c000
01f7f0
00fff0
007ff0
001fc0
000000
ENDCHAR
STARTCHAR Ca3af
ENCODING 41903
SWIDTH 666 0
DWIDTH 24 0
BBX 24 24 0 -2
BITMAP
000000
0007f8
03fff8
1fffc0
1ffc00
001e00
071e00
071e00
073fe0
0f7ff0
0ffff0
0ffcf0
0ff8e0
0470e0
00f0e0
00e1c0
01e1c0
01c1c0
038380
078380
070300
0e0700
080600
000000
ENDCHAR
STARTCHAR Ca3b0
ENCODING 41904
SWIDTH 666 0
DWIDTH 24 0
BBX 24 24 0 -2
BITMAP
000000
000000
0c0000
1e0000
3e0000
7f0000
770000
038000
038000
01c000
01e000
00f000
007800
003c00
003e00
001f80
000fc0
0007f0
0003fc
0001fe
000078
000000
000000
000000
ENDCHAR
STARTCHAR Ca3b1
ENCODING 41905
SWIDTH 666 0
DWIDTH 24 0
BBX 24 24 0 -2
BITMAP
000000
003800
007800
007800
00f000
01e1c0
03c1e0
07c3e0
0f87e0
0f8f80
0fff00
07fe00
01fc00
007800
00f000
01e380
03c1c0
07c3e0
0ffff0
1ffff0
0ff870
0fc070
060020
000000
ENDCHAR
STARTCHAR Ca3b2
ENCODING 41906
SWIDTH 666 0
DWIDTH 24 0
BBX 24 24 0 -2
BITMAP
000000
0000c0
0003e0
003ff0
07fff0
0ff9f0
07c1e0
0003c0
0003c0
000780
000780
03cf00
01ff00
007e00
003f00
007fc0
00ffe0
01f3f0
03e0f8
078078
0f0038
1c0018
300000
000000
ENDCHAR
STARTCHAR Ca3b3
ENCODING 41907
SWIDTH 666 0
DWIDTH 24 0
BBX 24 24 0 -2
BITMAP
0001c0
003fe0
0ffff0
0ffff0
07c3e0
0383c0
078780
070700
0f0fe0
1ffff0
1ffff8
0fe078
0e00f0
0000f0
0000f0
0001e0
0001c0
0003c0
000380
000780
000700
000e00
001c00
000000
ENDCHAR
STARTCHAR Ca3b4
ENCODING 41908
SWIDTH 666 0
DWIDTH 24 0
BBX 24 24 0 -2
BITMAP
000000
380000
3c0000
3e0000
3c0000
3c0000
3c0000
3c0000
3c0000
3c0070
3c1ff8
3ffff8
3ffffc
3fe078
1c00f0
0000f0
0001e0
0001e0
0003c0
000380
000700
000e00
000c00
000000
ENDCHAR
STARTCHAR Ca3b5
ENCODING 41909
SWIDTH 666 0
DWIDTH 24 0
BBX 24 24 0 -2
BITMAP
003800
003e00
003e00
003e00
003c00
003c00
003c00
0039f0
007ff8
3ffffc
3fff00
1ffc00
00fe00
00fe00
01fc00
01dc00
03dc00
079c00
071c00
0f1c00
1e1ffc
381ffe
700ffe
0007f8
ENDCHAR
STARTCHAR Ca3b6
ENCODING 41910
SWIDTH 666 0
DWIDTH 24 0
BBX 24 24 0 -2
BITMAP
000000
000000
003800
003800
007c00
007c00
007800
00f000
00f000
01e000
03e000
03c000
078000
078000
0f0000
0f0000
1e0078
3c3ffc
3ffffc
3ffffc
3f8000
180000
000000
000000
ENDCHAR
STARTCHAR Ca3b7
ENCODING 41911
SWIDTH 666 0
DWIDTH 24 0
BBX 24 24 0 -2
BITMAP
000000
001c00
071e00
079e00
079e00
079e00
079e00
079e00
079c00
079c00
071c00
071c00
0f1c00
0f1c00
0f1c00
0e1c00
1e1c08
1c1c08
3c1e1c
381f7e
701ffe
e00ffe
0001e0
000000
ENDCHAR
STARTCHAR Ca3b8
ENCODING 41912
SWIDTH 666 0
DWIDTH 24 0
BBX 24 24 0 -2
BITMAP
000000
000000
000000
000000
000000
000000
000000
000000
000000
000018
003ffc
fffffe
7ffffe
3e0000
000000
000000
000000
000000
000000
000000
000000
000000
000000
000000
ENDCHAR
STARTCHAR Ca3b9
ENCODING 41913
SWIDTH 666 0
DWIDTH 24 0
BBX 24 24 0 -2
BITMAP
000300
000380
0003c0
0003e0
0003c0
0007c0
000780
0c0780
0f0f00
07cf00
01ff00
00fe00
007e00
003f00
007f80
00ffc0
00f3e0
01e1f0
03c0f8
0780f8
0f0078
1c0038
300000
000000
ENDCHAR
STARTCHAR Ca3ba
ENCODING 41914
SWIDTH 666 0
DWIDTH 24 0
BBX 24 24 0 -2
BITMAP
000000
000000
000070
000078
30007c
380038
3c0038
3c0038
3c0038
3c0038
3c0038
1c0038
1c0038
1c0038
1c0038
1c0078
1c0ff8
1ffff8
1ffff8
1ffc38
1f0010
000000
000000
000000
ENDCHAR
STARTCHAR Ca3bb
ENCODING 41915
SWIDTH 666 0
DWIDTH 24 0
BBX 24 24 0 -2
BITMAP
001c00
003e00
007e00
007e00
007e00
003c00
000000
000000
000000
000000
000000
000000
000000
000000
000000
000000
000000
000000
000000
000000
000000
000000
000000
000000
ENDCHAR
STARTCHAR Ca3bc
ENCODING 41916
SWIDTH 666 0
DWIDTH 24 0
BBX 24 24 0 -2
BITMAP
000000
000000
000000
000000
000000
000000
000000
000000
000000
000000
000000
000000
000000
000000
000000
000000
000000
000000
000000
000000
000000
000000
000000
000000
ENDCHAR
STARTCHAR Ca3bd
ENCODING 41917
SWIDTH 666 0
DWIDTH 24 0
BBX 24 24 0 -2
BITMAP
000000
000000
000000
000000
000000
000000
000000
000180
000300
000700
000e00
001e00
007c00
00f800
01f000
01f000
006000
000000
000000
000000
000000
000000
000000
000000
ENDCHAR
STARTCHAR Ca3be
ENCODING 41918
SWIDTH 666 0
DWIDTH 24 0
BBX 24 24 0 -2
BITMAP
000000
000000
000000
000000
000000
000040
0000e0
0780e0
07c1e0
03c1c0
01e3c0
00e380
00f780
007f00
003f00
003e00
001e00
000c00
000000
000000
000000
000000
000000
000000
ENDCHAR
STARTCHAR Ca3bf
ENCODING 41919
SWIDTH 666 0
DWIDTH 24 0
BBX 24 24 0 -2
BITMAP
000000
000000
000000
000000
000000
000000
000000
000000
01f000
01f800
00fc00
007e00
001e00
000f00
000380
000180
000000
000000
000000
000000
000000
000000
000000
000000
ENDCHAR
STARTCHAR Ca3c0
ENCODING 41920
SWIDTH 666 0
DWIDTH 24 0
BBX 24 24 0 -2
BITMAP
000000
00c300
00c300
07ffe0
00c300
00c300
00ff00
00c300
00c300
00ff00
00c300
00c300
1ffff8
01c1c0
03c1e0
07fff0
0fe078
1fc1bc
3bff9e
77c19f
0ec18e
0cff80
00ff80
000000
ENDCHAR
STARTCHAR Ca3c1
ENCODING 41921
SWIDTH 666 0
DWIDTH 24 0
BBX 24 24 0 -2
BITMAP
000f00
001f80
001980
0f1b8f
1fdfbf
3fe67f
7fecfc
79fff8
f8fff0
f0ffe0
00ffc0
00ef80
01ef00
01ff00
03ff00
03ef00
07e787
07c787
0fc7c7
0f83cf
1f83ff
3f01fe
7f00fe
7e0078
ENDCHAR
STARTCHAR Ca3c2
ENCODING 41922
SWIDTH 666 0
DWIDTH 24 0
BBX 24 24 0 -2
BITMAP
000000
000000
000000
000000
000000
000070
000070
000070
000070
038070
0f8070
3f8070
7ffff0
7ffff0
3f8000
0f8000
038000
000000
000000
000000
000000
000000
000000
000000
ENDCHAR
STARTCHAR Ca3c3
ENCODING 41923
SWIDTH 666 0
DWIDTH 24 0
BBX 24 24 0 -2
BITMAP
000000
01ff80
07c1e0
0e0070
1c3c38
38fc1c
30fc0c
701c0e
601c06
601c06
601c06
601c06
601c06
601c06
601c06
601c06
701c0e
301c0c
39ff9c
1dffb8
0e0070
0781e0
01ff80
000000
ENDCHAR
STARTCHAR Ca3c4
ENCODING 41924
SWIDTH 666 0
DWIDTH 24 0
BBX 24 24 0 -2
BITMAP
000000
01ff80
07c1e0
0e0070
1c7f38
38e79c
31c1cc
71c1ce
61c0c6
61c1c6
6001c6
600786
600e06
603c06
607006
60e046
70c0ce
31c0cc
39ffdc
1dfff8
0e0070
0781e0
01ff80
000000
ENDCHAR
STARTCHAR Ca3c5
ENCODING 41925
SWIDTH 666 0
DWIDTH 24 0
BBX 24 24 0 -2
BITMAP
000000
01ff80
07c1e0
0e0070
1c7e38
38e71c
31c38c
71c38e
60c386
600306
601e06
603e06
600706
600386
6081c6
61c1c6
71c1ce
31c38c
38ef1c
1c7e38
0e0070
0781e0
01ff80
000000
ENDCHAR
STARTCHAR Ca3c6
ENCODING 41926
SWIDTH 666 0
DWIDTH 24 0
BBX 24 24 0 -2
BITMAP
000000
01ff80
07c1e0
0e0070
1c0e38
380e1c
301e0c
703e0e
603606
606606
60c606
61c606
618606
630606
63ffc6
63ffc6
70060e
30060c
381f9c
1c1fb8
0e0070
0781e0
01ff80
000000
ENDCHAR
STARTCHAR Ca3c7
ENCODING 41927
SWIDTH 666 0
DWIDTH 24 0
BBX 24 24 0 -2
BITMAP
000000
01ff80
07c1e0
0e0070
1cffb8
38ff9c
30ff0c
70c00e
60c006
60c006
60ff06
60f786
608386
6001c6
6001c6
6181c6
71c1ce
31c38c
38e71c
1c7e38
0e0070
0781e0
01ff80
000000
ENDCHAR
STARTCHAR Ca3c8
ENCODING 41928
SWIDTH 666 0
DWIDTH 24 0
BBX 24 24 0 -2
BITMAP
000000
01ff80
07c1e0
0e0070
1c1f38
387f9c
30e1cc
70c1ce
61c006
619806
63fe06
63e786
638386
6381c6
6381c6
6181c6
71818e
31c38c
38f71c
1c7e38
0e0070
0781e0
01ff80
000000
ENDCHAR
STARTCHAR Ca3c9
ENCODING 41929
SWIDTH 666 0
DWIDTH 24 0
BBX 24 24 0 -2
BITMAP
000000
01ff80
07c1e0
0e0070
1c03b8
39ffdc
31ffcc
71818e
610186
600306
600306
600606
600e06
600c06
601c06
601806
70380e
30380c
38381c
1c3838
0e3070
0781e0
01ff80
000000
ENDCHAR
STARTCHAR Ca3ca
ENCODING 41930
SWIDTH 666 0
DWIDTH 24 0
BBX 24 24 0 -2
BITMAP
000000
01ff80
07c1e0
0e0070
1c7e38
38e71c
31c38c
71818e
61c386
61e306
60fe06
607e06
60ff06
61c786
618386
6381c6
73818e
31c38c
39ef1c
1cfe38
0e0070
0781e0
01ff80
000000
ENDCHAR
STARTCHAR Ca3cb
ENCODING 41931
SWIDTH 666 0
DWIDTH 24 0
BBX 24 24 0 -2
BITMAP
000000
01ff80
07c1e0
0e0070
1c7e38
38c71c
31c38c
71818e
6381c6
6381c6
6381c6
61c3c6
60ffc6
607dc6
600186
600386
71c38e
31c70c
39ee1c
1cfc38
0e0070
0781e0
01ff80
000000
ENDCHAR
STARTCHAR Ca3cc
ENCODING 41932
SWIDTH 666 0
DWIDTH 24 0
BBX 24 24 0 -2
BITMAP
000000
01ff80
07c1e0
0e0070
1d83b8
3b87dc
338eec
719c6e
619876
619836
619836
619836
619836
619836
619836
619876
719c6e
318cec
3fefdc
1fe3b8
0e0070
0781e0
01ff80
000000
ENDCHAR
STARTCHAR Ca3cd
ENCODING 41933
SWIDTH 666 0
DWIDTH 24 0
BBX 24 24 0 -2
BITMAP
000000
000000
30000c
301c0c
607c06
60fc06
601c06
c01c03
c01c03
c01c03
c01c03
c01c03
c01c03
c01c03
c01c03
c01c03
c01c03
c01c03
601c06
60ff06
21ff84
30000c
100008
000000
ENDCHAR
STARTCHAR Ca3ce
ENCODING 41934
SWIDTH 666 0
DWIDTH 24 0
BBX 24 24 0 -2
BITMAP
000000
000000
30000c
303c0c
607f06
60ff86
61c386
c1c3c3
c1e3c3
c1e3c3
c00783
c00783
c00f03
c01e03
c03c03
c07003
c0e0c3
c0c1c3
61ff86
61ff86
21ff84
30000c
100008
000000
ENDCHAR
STARTCHAR Ca3cf
ENCODING 41935
SWIDTH 666 0
DWIDTH 24 0
BBX 24 24 0 -2
BITMAP
000000
000000
30000c
303c0c
60ff06
60ef86
61e386
c1e383
c0c383
c00783
c00f03
c03e03
c03f03
c00783
c003c3
c003c3
c1c3c3
c1c3c3
61c386
61ff86
20ff04
30000c
100008
000000
ENDCHAR
STARTCHAR Ca3d0
ENCODING 41936
SWIDTH 666 0
DWIDTH 24 0
BBX 24 24 0 -2
BITMAP
000000
000000
30000c
30040c
600c06
601c06
601c06
c03c03
c07c03
c06c03
c0ec03
c0cc03
c1cc03
c38c03
c30c03
c7ff83
c3ff83
c00c03
601e06
603f06
203f04
30000c
100008
000000
ENDCHAR
STARTCHAR Ca3d1
ENCODING 41937
SWIDTH 666 0
DWIDTH 24 0
BBX 24 24 0 -2
BITMAP
000000
000000
30000c
30000c
61ff86
61ff06
618006
c18003
c18003
c19803
c1fe03
c1ff03
c1c783
c00383
c00383
c18383
c3c383
c3c383
61c706
61ff06
20fc04
30000c
100008
000000
ENDCHAR
STARTCHAR Ca3d2
ENCODING 41938
SWIDTH 666 0
DWIDTH 24 0
BBX 24 24 0 -2
BITMAP
000000
000000
30000c
301c0c
607f06
60ff06
60e706
c1c303
c1c003
c1c003
c3bf03
c3ff03
c3e783
c3c383
c3c383
c3c383
c1c383
c1c383
61c786
60ff06
207e04
30180c
100008
000000
ENDCHAR
STARTCHAR Ca3d3
ENCODING 41939
SWIDTH 666 0
DWIDTH 24 0
BBX 24 24 0 -2
BITMAP
000000
000000
30000c
30000c
61ffc6
61ffc6
63c186
c38303
c30703
c30603
c00e03
c00c03
c01c03
c01c03
c03803
c03803
c07803
c07803
607806
607806
207804
30300c
100008
000000
ENDCHAR
STARTCHAR Ca3d4
ENCODING 41940
SWIDTH 666 0
DWIDTH 24 0
BBX 24 24 0 -2
BITMAP
000000
000000
30000c
30180c
60fe06
61ef06
61c386
c18383
c1c383
c1e703
c1fe03
c0fc03
c0ff03
c1ef83
c1c783
c38383
c38183
c38183
63c386
61ff06
20fe04
30000c
100008
000000
ENDCHAR
STARTCHAR Ca3d5
ENCODING 41941
SWIDTH 666 0
DWIDTH 24 0
BBX 24 24 0 -2
BITMAP
000000
000000
30000c
30180c
607e06
60ff06
61c386
c1c383
c38183
c381c3
c383c3
c1c3c3
c1e7c3
c1ffc3
c0ff83
c00383
c00383
c0c303
61c706
61fe06
20fc04
30300c
100008
000000
ENDCHAR
STARTCHAR Ca3d6
ENCODING 41942
SWIDTH 666 0
DWIDTH 24 0
BBX 24 24 0 -2
BITMAP
000000
000000
30000c
3383cc
6f87e6
6f8766
638676
c38e73
c38e33
c38c33
c38c33
c38c33
c38c33
c38c33
c38c33
c38c73
c38e73
c38e63
6fc7e6
6fe7c6
200184
30000c
100008
000000
ENDCHAR
STARTCHAR Ca3d7
ENCODING 41943
SWIDTH 666 0
DWIDTH 24 0
BBX 24 24 0 -2
BITMAP
000000
000000
000000
003800
003800
003800
003800
000000
000000
007800
007800
001800
001800
001800
001800
001800
001800
001800
001800
007e00
007e00
000000
000000
000000
ENDCHAR
STARTCHAR Ca3d8
ENCODING 41944
SWIDTH 666 0
DWIDTH 24 0
BBX 24 24 0 -2
BITMAP
000000
000000
000000
00c100
01e380
01e380
00c100
000000
000000
03c780
03c780
00c380
00c380
00c380
00c380
00c380
00c380
00c380
00c380
03f7c0
03f7c0
000000
000000
000000
ENDCHAR
STARTCHAR Ca3d9
ENCODING 41945
SWIDTH 666 0
DWIDTH 24 0
BBX 24 24 0 -2
BITMAP
000000
000000
000000
0e1870
0e3c70
0e3c70
0e1870
000000
000000
000000
1e79f0
0e1870
0e1870
0e1870
0e1870
0e1870
0e1870
0e1870
0e1870
1f7ef8
1f7ef8
000000
000000
000000
ENDCHAR
STARTCHAR Ca3da
ENCODING 41946
SWIDTH 666 0
DWIDTH 24 0
BBX 24 24 0 -2
BITMAP
000000
000000
000000
0e0000
0e0000
0e0000
000000
000000
000000
1efc7c
1efc7c
0e3830
0e1820
0e1c60
0e1c40
0e0ec0
0e0ec0
0e0780
0e0780
1f0300
000300
000000
000000
000000
ENDCHAR
STARTCHAR Ca3db
ENCODING 41947
SWIDTH 666 0
DWIDTH 24 0
BBX 24 24 0 -2
BITMAP
000000
000000
000000
000000
000000
000000
000000
000000
07e3e0
07e3e0
01c180
01c300
00e300
00e200
007600
007600
003c00
003c00
003800
001800
000000
000000
000000
000000
ENDCHAR
STARTCHAR Ca3dc
ENCODING 41948
SWIDTH 666 0
DWIDTH 24 0
BBX 24 24 0 -2
BITMAP
000000
000000
000000
000070
0000f0
000070
000000
000000
000000
3f1ef0
0e0c70
0e0c70
070870
071870
039070
03b070
01b070
01e070
01e070
00c1f8
00c000
000000
000000
000000
ENDCHAR
STARTCHAR Ca3dd
ENCODING 41949
SWIDTH 666 0
DWIDTH 24 0
BBX 24 24 0 -2
BITMAP
000000
000000
000000
00018c
0003de
00018c
000000
000000
000000
f87f9e
70318e
38318e
38618e
1c618e
1cc18e
0ec18e
0f818e
07818e
07018e
0703ff
030000
000000
000000
000000
ENDCHAR
STARTCHAR Ca3de
ENCODING 41950
SWIDTH 666 0
DWIDTH 24 0
BBX 24 24 0 -2
BITMAP
000000
000000
000000
003186
0039ce
0039ce
000000
000000
000000
fbf39e
fbf39e
70b186
31b186
39b186
193186
193186
1f3186
0f3186
0e3186
0e7bff
040000
000000
000000
000000
ENDCHAR
STARTCHAR Ca3df
ENCODING 41951
SWIDTH 666 0
DWIDTH 24 0
BBX 24 24 0 -2
BITMAP
000000
000000
000000
0e0000
0e0000
0e0000
000000
000000
000000
1e7cf8
1e7cf8
061ce0
061ec0
060f80
060700
060780
060fc0
061de0
0638f0
1ff8f8
1ff8f8
000000
000000
000000
ENDCHAR
STARTCHAR Ca3e0
ENCODING 41952
SWIDTH 666 0
DWIDTH 24 0
BBX 24 24 0 -2
BITMAP
000000
000000
000000
000000
000000
000000
000000
000000
000000
0f83e0
0f83e0
0301c0
038380
01c700
00ee00
007c00
007c00
00ee00
01c700
038380
0f83e0
0f83e0
0f83e0
000000
ENDCHAR
STARTCHAR Ca3e1
ENCODING 41953
SWIDTH 666 0
DWIDTH 24 0
BBX 24 24 0 -2
BITMAP
000000
001800
001800
001800
001800
001800
001800
001800
001800
001800
001800
001800
001800
001800
001800
001800
001800
001800
001800
001800
001800
001800
001800
000000
ENDCHAR
STARTCHAR Ca3e2
ENCODING 41954
SWIDTH 666 0
DWIDTH 24 0
BBX 24 24 0 -2
BITMAP
000000
000000
000600
000600
000600
000600
000600
000600
000600
000600
000600
000600
000600
000e00
000e00
000c00
001c00
001800
003800
007000
01e000
078000
000000
000000
ENDCHAR
STARTCHAR Ca3e3
ENCODING 41955
SWIDTH 666 0
DWIDTH 24 0
BBX 24 24 0 -2
BITMAP
000000
000000
000000
000c00
000c00
000c00
000c00
000c00
000c00
000c00
000c00
000c00
000c00
000c00
000c00
000c00
000c00
000c00
000c00
000c00
01fc00
01fc00
000000
000000
ENDCHAR
STARTCHAR Ca3e4
ENCODING 41956
SWIDTH 666 0
DWIDTH 24 0
BBX 24 24 0 -2
BITMAP
000000
000000
000000
000000
007000
007800
003800
001800
001800
7ffffe
7ffffe
000000
000000
000000
000000
000000
000000
000000
000000
000000
000000
000000
000000
000000
ENDCHAR
STARTCHAR Ca3e5
ENCODING 41957
SWIDTH 666 0
DWIDTH 24 0
BBX 24 24 0 -2
BITMAP
000000
000000
006300
006300
006300
006300
006300
006300
006300
006300
006300
00e300
00e300
00e300
00c300
01c300
01c300
018300
038306
07030e
1e03fe
3c03fe
000000
000000
ENDCHAR
STARTCHAR Ca3e6
ENCODING 41958
SWIDTH 666 0
DWIDTH 24 0
BBX 24 24 0 -2
BITMAP
000000
000000
000000
000000
000000
0ffff0
0ffff0
0c0030
0c0030
0c0030
0c0030
0c0030
0c0030
0c0030
0c0030
0c0030
0c0030
0c0030
0c0030
0c0030
0c0030
0c01f0
0c01f0
000000
ENDCHAR
STARTCHAR Ca3e7
ENCODING 41959
SWIDTH 666 0
DWIDTH 24 0
BBX 24 24 0 -2
BITMAP
000000
000000
000000
000000
000000
000000
3ffffc
3ffffc
30000c
30001c
300018
300038
300070
000000
000000
000000
000000
000000
000000
000000
000000
000000
000000
000000
ENDCHAR
STARTCHAR Ca3e8
ENCODING 41960
SWIDTH 666 0
DWIDTH 24 0
BBX 24 24 0 -2
BITMAP
000000
000000
00e000
00f000
007800
003800
001800
000000
000000
000200
000600
000600
000c00
001c00
003800
007800
00f000
00f000
007000
006000
006000
006000
000000
000000
ENDCHAR
STARTCHAR Ca3e9
ENCODING 41961
SWIDTH 666 0
DWIDTH 24 0
BBX 24 24 0 -2
BITMAP
000000
018000
018000
018000
038000
03fffc
07fffc
06000c
0e000c
0c000c
1c000c
38000c
70000c
40000c
00000c
00000c
00001c
00001c
000018
000038
000070
0000f0
0007e0
000000
ENDCHAR
STARTCHAR Ca3ea
ENCODING 41962
SWIDTH 666 0
DWIDTH 24 0
BBX 24 24 0 -2
BITMAP
000000
000000
0c0000
0c0000
0c0000
0c0180
0c0380
0c0780
0c0f00
0c1e00
0c7800
0df000
0f8000
0c0000
0c0000
0c0018
0c0018
0c0018
0c0018
0e001c
0ffffc
07fffc
000000
000000
ENDCHAR
STARTCHAR Ca3eb
ENCODING 41963
SWIDTH 666 0
DWIDTH 24 0
BBX 24 24 0 -2
BITMAP
000000
000000
7ffff8
3ffff8
180000
180000
180000
180000
180000
180000
180000
180000
180000
180000
180000
180000
180000
180000
180000
1c0000
1ffff8
0ffff8
000000
000000
ENDCHAR
STARTCHAR Ca3ec
ENCODING 41964
SWIDTH 666 0
DWIDTH 24 0
BBX 24 24 0 -2
BITMAP
000000
000030
01fff0
01fff0
00c030
00c030
00c030
00c030
00c030
00c030
00c030
00c030
00c0f0
00c3f0
00c1e0
00c000
00c000
00c000
00c000
00c000
00c000
00c000
00c000
000000
ENDCHAR
STARTCHAR Ca3ed
ENCODING 41965
SWIDTH 666 0
DWIDTH 24 0
BBX 24 24 0 -2
BITMAP
000000
000000
000000
000700
000700
000f00
001e00
003c00
003800
007000
00e000
01e0c0
03c0f0
038078
0ffff8
0ffffc
0f001c
00001c
000000
000000
000000
000000
000000
000000
ENDCHAR
STARTCHAR Ca3ee
ENCODING 41966
SWIDTH 666 0
DWIDTH 24 0
BBX 24 24 0 -2
BITMAP
000000
000000
000000
000000
000000
060060
07ffe0
07ffe0
060060
060060
060060
060060
060060
060060
060060
060060
060060
07ffe0
07ffe0
060060
000000
000000
000000
000000
ENDCHAR
STARTCHAR Ca3ef
ENCODING 41967
SWIDTH 666 0
DWIDTH 24 0
BBX 24 24 0 -2
BITMAP
000000
000000
000000
000060
1fffe0
1fffe0
1c00e0
0e01c0
0e01c0
0701c0
070380
038380
018700
01ce00
00ec00
007c00
007c00
007e00
00e700
01c7c0
0783f8
1f01fe
7c007e
000038
ENDCHAR
STARTCHAR Ca3f0
ENCODING 41968
SWIDTH 666 0
DWIDTH 24 0
BBX 24 24 0 -2
BITMAP
000000
000000
007000
007800
007800
003800
001800
3ffffe
300006
30000e
30000e
30001c
100018
000000
000000
000000
000000
000000
000000
000000
000000
000000
000000
000000
ENDCHAR
STARTCHAR Ca3f1
ENCODING 41969
SWIDTH 666 0
DWIDTH 24 0
BBX 24 24 0 -2
BITMAP
000000
000000
03060c
03060c
070e1c
070e1c
060c38
0e1c38
0c1870
3c78e0
3870e0
3870e0
1c3870
0c1830
0e1c38
0e1c38
060c1c
070e1c
070e0c
03060c
03060c
000000
000000
000000
ENDCHAR
STARTCHAR Ca3f2
ENCODING 41970
SWIDTH 666 0
DWIDTH 24 0
BBX 24 24 0 -2
BITMAP
000000
003800
003800
007800
007000
00f000
00e000
01c300
038700
038700
038700
038e00
01ce00
00dc00
00dc00
003800
003800
007180
00e1c0
01e0c0
03cfe0
07fee0
07f060
070000
ENDCHAR
STARTCHAR Ca3f3
ENCODING 41971
SWIDTH 666 0
DWIDTH 24 0
BBX 24 24 0 -2
BITMAP
000000
001c00
001c00
000c00
0ffffc
0ffffc
0c0000
0c0000
0c0000
0c0000
0c0000
0c0000
0c0000
0c0000
0c0000
0c0000
1c0000
1c0000
1c0000
180000
180000
380000
700000
000000
ENDCHAR
STARTCHAR Ca3f4
ENCODING 41972
SWIDTH 666 0
DWIDTH 24 0
BBX 24 24 0 -2
BITMAP
000000
000000
7f0000
7f0000
030000
070000
060000
0c0000
1d8000
3f8000
018000
018000
618000
738000
3b8000
1f0000
0f0000
070000
0f8000
0fc000
19f800
387fff
701fff
000000
ENDCHAR
STARTCHAR Ca3f5
ENCODING 41973
SWIDTH 666 0
DWIDTH 24 0
BBX 24 24 0 -2
BITMAP
000000
000000
000000
000000
000000
000000
07ffe0
07ffe0
000060
000060
000060
07ffe0
07ffe0
000060
000060
000060
7ffffe
7ffffe
000000
000000
000000
000000
000000
000000
ENDCHAR
STARTCHAR Ca3f6
ENCODING 41974
SWIDTH 666 0
DWIDTH 24 0
BBX 24 24 0 -2
BITMAP
000000
000300
000600
000e00
001c00
007800
01f000
0fe300
0f8700
000e00
001c00
007800
01f000
07e000
0f8300
000700
000e00
001c00
007800
01f000
1fc000
3f0000
000000
000000
ENDCHAR
STARTCHAR Ca3f7
ENCODING 41975
SWIDTH 666 0
DWIDTH 24 0
BBX 24 24 0 -2
BITMAP
000000
003000
003000
003000
003fe0
003fe0
003000
003000
003000
0fffc0
0fffc0
0fffc0
038380
03c380
01c700
00e700
007e00
003c00
003c00
00ff00
03e7e0
7fc1fe
7f00fe
000038
ENDCHAR
STARTCHAR Ca3f8
ENCODING 41976
SWIDTH 666 0
DWIDTH 24 0
BBX 24 24 0 -2
BITMAP
000000
000000
000000
000000
1ffff0
003000
003000
003000
007000
007000
3ffff8
006c00
00ec00
00ec00
00cc00
01cc00
018c00
038c00
030c0c
070c0c
1e0e0c
3c0f0c
0007fc
000000
ENDCHAR
STARTCHAR Ca3f9
ENCODING 41977
SWIDTH 666 0
DWIDTH 24 0
BBX 24 24 0 -2
BITMAP
000000
000060
000060
018060
018060
018060
018060
018060
01ffe0
01ffe0
000060
000060
000060
01ffe0
01ffe0
018060
018060
038060
038060
030060
070060
0e0060
1c0060
000000
ENDCHAR
STARTCHAR Ca3fa
ENCODING 41978
SWIDTH 666 0
DWIDTH 24 0
BBX 24 24 0 -2
BITMAP
000000
000e00
000e00
000600
07fffe
07fffe
360000
3e0000
3e0000
1e0000
060000
0e0000
1e0000
3e0000
760000
760000
2e0000
0e0000
0c0000
1c0000
180000
380000
300000
000000
ENDCHAR
STARTCHAR Ca3fb
ENCODING 41979
SWIDTH 666 0
DWIDTH 24 0
BBX 24 24 0 -2
BITMAP
000000
000000
000000
000000
03f060
03fee0
003ffc
1c77bc
1e73f8
0ee3f0
07c1c0
0780f0
3f007c
7c001f
000000
000000
000000
000000
000000
000000
000000
000000
000000
000000
ENDCHAR
STARTCHAR Ca3fc
ENCODING 41980
SWIDTH 666 0
DWIDTH 24 0
BBX 24 24 0 -2
BITMAP
000000
060060
060060
060060
060060
666666
666666
666666
666666
666666
666666
666666
666666
7fe7fe
060060
060060
0e0060
0e0060
0e0060
1c0060
1c0060
380060
700060
000000
ENDCHAR
STARTCHAR Ca3fd
ENCODING 41981
SWIDTH 666 0
DWIDTH 24 0
BBX 24 24 0 -2
BITMAP
000000
0001c0
0007c0
003f80
00fe70
07f1f0
0007f0
001f80
00fe38
07f1f8
0007f0
003f80
01fc00
0fd800
001800
061800
061ff8
0e1800
0f1800
1f9800
3dd800
79ffff
607fff
000000
ENDCHAR
STARTCHAR Ca3fe
ENCODING 41982
SWIDTH 666 0
DWIDTH 24 0
BBX 24 24 0 -2
BITMAP
000000
001800
001800
03ffe0
001860
001860
001860
1ffff8
001860
001860
001860
03ffe0
001800
001870
0e18f0
0799e0
039b80
001b80
0199c0
0718c0
0f18e0
1e3870
00f878
000000
ENDCHAR
STARTCHAR Ca440
ENCODING 42048
SWIDTH 666 0
DWIDTH 24 0
BBX 24 24 0 -2
BITMAP
000000
000000
000000
000000
000000
000000
000000
000000
000000
000000
0001f8
03fffe
7ffffe
3e0000
000000
000000
000000
000000
000000
000000
000000
000000
000000
000000
ENDCHAR
STARTCHAR Ca441
ENCODING 42049
SWIDTH 666 0
DWIDTH 24 0
BBX 24 24 0 -2
BITMAP
000000
000000
018000
03e000
0fe000
3fc000
3f8000
0e0000
0e0000
1c0000
180000
380000
300000
300008
300018
300018
30001c
38003c
3e00fc
1ffffc
07fff8
000000
000000
000000
ENDCHAR
STARTCHAR Ca442
ENCODING 42050
SWIDTH 666 0
DWIDTH 24 0
BBX 24 24 0 -2
BITMAP
000000
000000
000070
007ffc
7ffffc
7ffc00
3c1c00
001c00
001c00
001c00
001c00
001c00
001c00
001c00
001c00
001c00
001c00
00fc00
00fc00
003c00
001800
000000
000000
000000
ENDCHAR
STARTCHAR Ca443
ENCODING 42051
SWIDTH 666 0
DWIDTH 24 0
BBX 24 24 0 -2
BITMAP
000000
000000
00f000
00f800
007800
007000
007000
007000
00701e
0070ff
007fff
00ffc0
07f800
3ff000
fe7000
f87000
007000
007000
0079e0
003ff0
001ff0
000060
000000
000000
ENDCHAR
STARTCHAR Ca444
ENCODING 42052
SWIDTH 666 0
DWIDTH 24 0
BBX 24 24 0 -2
BITMAP
000000
000060
0003f8
001ff8
01fc70
0ffce0
0f38e0
0039c0
0071f8
0073fc
00e11c
00e01c
01c01c
038038
070038
0e0038
1c0070
380070
2000e0
000fe0
0007c0
0007c0
000300
000000
ENDCHAR
STARTCHAR Ca445
ENCODING 42053
SWIDTH 666 0
DWIDTH 24 0
BBX 24 24 0 -2
BITMAP
000000
000000
018000
01e000
00e300
00ef80
01ff80
01ff00
07cf00
7f8e00
7f8e00
039c00
071c00
0e1c00
0e1800
1c1802
381806
701c07
e01e0f
c00fff
0007ff
0001fc
000000
000000
ENDCHAR
STARTCHAR Ca446
ENCODING 42054
SWIDTH 666 0
DWIDTH 24 0
BBX 24 24 0 -2
BITMAP
000080
0007c0
007fe0
0ff9e0
0fc3c0
070700
003e00
001c00
000e00
000e00
000e00
000e00
000e00
000600
000600
000e00
000e00
000e00
000e00
01ce00
00fe00
007e00
003c00
000800
ENDCHAR
STARTCHAR Ca447
ENCODING 42055
SWIDTH 666 0
DWIDTH 24 0
BBX 24 24 0 -2
BITMAP
000000
000000
000000
000000
000000
0007c0
07ffc0
03ffc0
010000
000000
000000
000000
000000
000000
000000
0001fc
ffffff
ffffff
7c0002
000000
000000
000000
000000
000000
ENDCHAR
STARTCHAR Ca448
ENCODING 42056
SWIDTH 666 0
DWIDTH 24 0
BBX 24 24 0 -2
BITMAP
000000
000000
000000
006000
007000
007000
00f000
00e000
00e000
01c000
01e000
03f000
033800
071c00
0e0f00
1c0780
1803e0
3001f8
7000fe
c0007f
80003e
000000
000000
000000
ENDCHAR
STARTCHAR Ca449
ENCODING 42057
SWIDTH 666 0
DWIDTH 24 0
BBX 24 24 0 -2
BITMAP
000000
000c00
040e00
060f00
060e00
060e00
060e00
060e00
060c00
060c00
060c00
060c00
060c00
060c00
0e0c00
0c0c00
0c0c00
1c0c04
180e0c
38070c
7007fe
e003fe
80003c
000000
ENDCHAR
STARTCHAR Ca44a
ENCODING 42058
SWIDTH 666 0
DWIDTH 24 0
BBX 24 24 0 -2
BITMAP
000000
000000
000000
000000
0e0000
1f8000
03c000
00e000
00e000
01f000
01f800
039c00
078e00
070700
0e0780
1c03e0
3801f0
7000fc
e000ff
80007f
000000
000000
000000
000000
ENDCHAR
STARTCHAR Ca44b
ENCODING 42059
SWIDTH 666 0
DWIDTH 24 0
BBX 24 24 0 -2
BITMAP
000000
000000
000000
000000
01e000
01f000
003800
001c00
000c00
070e00
038700
078380
0703c0
0e01e0
1e01f0
3c00f8
78007c
f0007f
c0003f
800000
000000
000000
000000
000000
ENDCHAR
STARTCHAR Ca44c
ENCODING 42060
SWIDTH 666 0
DWIDTH 24 0
BBX 24 24 0 -2
BITMAP
000000
000e00
067f00
07ef00
070e00
070e00
070e00
070e00
060c00
060c00
060c00
060c00
060c00
060c00
060c00
0c0c00
0c0c00
1c0e04
180604
30079e
7003fe
c000fe
000000
000000
ENDCHAR
STARTCHAR Ca44d
ENCODING 42061
SWIDTH 666 0
DWIDTH 24 0
BBX 24 24 0 -2
BITMAP
000000
000000
000030
0003f8
0ffffc
0ffc3c
0e3c38
003838
003838
007038
007038
00e030
00e070
01c070
03c070
038070
0700e0
0e0ce0
1c0fe0
3807e0
6003c0
000180
000000
000000
ENDCHAR
STARTCHAR Ca44e
ENCODING 42062
SWIDTH 666 0
DWIDTH 24 0
BBX 24 24 0 -2
BITMAP
000000
000000
0000f0
001ff8
1fff3c
1ff03c
0f0038
000038
000438
001c38
003870
00f070
03e070
3f8070
3f00e0
1e00e0
0c00e0
0001e0
000fc0
000fc0
000780
000380
000000
000000
ENDCHAR
STARTCHAR Ca44f
ENCODING 42063
SWIDTH 666 0
DWIDTH 24 0
BBX 24 24 0 -2
BITMAP
000000
001c00
001e00
001e00
001c00
001c30
001ffc
1fff3c
1ff838
003038
007038
007038
00e070
00c070
01c070
0380e0
0700e0
0e00e0
1e39c0
381fc0
300f80
000780
000300
000000
ENDCHAR
STARTCHAR Ca450
ENCODING 42064
SWIDTH 666 0
DWIDTH 24 0
BBX 24 24 0 -2
BITMAP
000000
0f0000
0f0000
070000
060000
061000
061800
063c00
067800
06f000
07e000
078000
070000
060000
060000
060000
060000
060060
060060
070060
03c3f0
03ffe0
007f80
000000
ENDCHAR
STARTCHAR Ca451
ENCODING 42065
SWIDTH 666 0
DWIDTH 24 0
BBX 24 24 0 -2
BITMAP
003000
007800
003800
003800
003800
003800
003800
003800
00381c
007ffe
fffffe
ff3800
703800
003800
003800
003800
003800
003800
003800
003800
003800
003800
003800
003000
ENDCHAR
STARTCHAR Ca452
ENCODING 42066
SWIDTH 666 0
DWIDTH 24 0
BBX 24 24 0 -2
BITMAP
000000
038000
01c000
01c000
01c000
01c000
01c000
018000
01c000
01fc00
019f00
018f80
018380
018080
01c000
01c000
01c000
01c000
01c000
01c000
01c000
01c000
008000
000000
ENDCHAR
STARTCHAR Ca453
ENCODING 42067
SWIDTH 666 0
DWIDTH 24 0
BBX 24 24 0 -2
BITMAP
000000
000000
000e00
003f00
1ff700
0f8700
0e0e00
100e00
3e1c00
071c00
01f800
00f000
007000
00fc00
01de00
038780
0703e0
0e01f8
1c00ff
78007f
e0003e
800000
000000
000000
ENDCHAR
STARTCHAR Ca454
ENCODING 42068
SWIDTH 666 0
DWIDTH 24 0
BBX 24 24 0 -2
BITMAP
000000
000000
000000
0007c0
00ffc0
07fc00
03c000
000000
000000
000000
000780
03ff80
03ff80
01c000
000000
000000
000000
0003fc
07ffff
ffffff
fe0002
000000
000000
000000
ENDCHAR
STARTCHAR Ca455
ENCODING 42069
SWIDTH 666 0
DWIDTH 24 0
BBX 24 24 0 -2
BITMAP
000000
00003c
00fffe
ffffff
ffb806
203800
003800
003800
003f00
003fc0
003bc0
0039c0
0038c0
003800
003800
003800
003800
003800
003800
007800
007800
003800
003000
000000
ENDCHAR
STARTCHAR Ca456
ENCODING 42070
SWIDTH 666 0
DWIDTH 24 0
BBX 24 24 0 -2
BITMAP
006000
007800
003800
003800
003800
003000
0031e0
007fe0
0fffe0
063000
0c7000
0f7000
03e000
01e000
00f000
01f800
039c00
070f00
1e0780
7803e0
e001f8
0000ff
00007f
000000
ENDCHAR
STARTCHAR Ca457
ENCODING 42071
SWIDTH 666 0
DWIDTH 24 0
BBX 24 24 0 -2
BITMAP
000000
000000
007000
007800
003800
003800
003800
003980
003fc0
003fc0
003e00
003800
003800
003800
003800
003800
003800
003804
007fff
3fffff
ff800f
f80000
000000
000000
ENDCHAR
STARTCHAR Ca458
ENCODING 42072
SWIDTH 666 0
DWIDTH 24 0
BBX 24 24 0 -2
BITMAP
0000e0
0c00f0
0f80f0
07c1c0
03c380
00c700
003c00
003800
001800
001800
001800
001800
001800
001800
001800
001800
001800
001800
001800
001800
003800
003800
001800
001800
ENDCHAR
STARTCHAR Ca459
ENCODING 42073
SWIDTH 666 0
DWIDTH 24 0
BBX 24 24 0 -2
BITMAP
000000
018000
01c000
01e000
01e000
01c400
01df00
01ff00
0fcf00
7f8e00
739c00
039c00
079800
07d800
0fd800
0cf800
1c3002
383803
701807
e01e0f
800fff
0003ff
000000
000000
ENDCHAR
STARTCHAR Ca45a
ENCODING 42074
SWIDTH 666 0
DWIDTH 24 0
BBX 24 24 0 -2
BITMAP
000000
000000
000800
0c1e00
0ffe00
078e00
070c00
070c00
071c00
07dc00
07f800
067800
063800
0e1800
0c1800
0c1806
1c1806
181c06
300c0e
600fff
c007ff
00007e
000000
000000
ENDCHAR
STARTCHAR Ca45b
ENCODING 42075
SWIDTH 666 0
DWIDTH 24 0
BBX 24 24 0 -2
BITMAP
000000
000000
00e000
007000
00f000
00e700
01ff80
03ff00
070e00
0e1c00
1c3c00
383800
207000
00f800
01cc00
038600
070380
0e01c0
1c01f0
3800fc
e0007f
80003f
000000
000000
ENDCHAR
STARTCHAR Ca45c
ENCODING 42076
SWIDTH 666 0
DWIDTH 24 0
BBX 24 24 0 -2
BITMAP
000000
003000
003800
007800
007800
00f000
00e000
01c000
038600
070700
0e0f00
1c0e00
381c00
001c00
003800
007040
006070
00e078
01c3fc
03bfbc
0ffc1c
0fe01c
0f000c
000000
ENDCHAR
STARTCHAR Ca45d
ENCODING 42077
SWIDTH 666 0
DWIDTH 24 0
BBX 24 24 0 -2
BITMAP
000000
008000
01e000
00e000
00e000
00e000
00ef00
1cff80
1cff00
0ce700
0fc700
0fce00
3ece00
fccc00
fccc00
0cc006
0cc006
0e0006
0f000e
07ffff
01ffff
003ffe
000000
000000
ENDCHAR
STARTCHAR Ca45e
ENCODING 42078
SWIDTH 666 0
DWIDTH 24 0
BBX 24 24 0 -2
BITMAP
000000
070000
078000
070000
0e1f80
1dff80
1ff000
380000
700000
40e000
07f000
1fe000
1b8000
038000
070000
0e0000
0c000c
0c000c
0c000c
0e001c
07fffe
03fffe
007ff0
000000
ENDCHAR
STARTCHAR Ca45f
ENCODING 42079
SWIDTH 666 0
DWIDTH 24 0
BBX 24 24 0 -2
BITMAP
000000
000fc0
01ffc0
07f800
003800
001800
001818
001ffe
0ffffe
ffd806
781800
001800
001800
001800
001800
001800
001800
001800
001800
01f800
00f800
007800
003800
000000
ENDCHAR
STARTCHAR Ca460
ENCODING 42080
SWIDTH 666 0
DWIDTH 24 0
BBX 24 24 0 -2
BITMAP
000000
000000
004000
00f800
007c00
003c00
001c00
000038
001ffe
fffffe
ff8000
370000
030000
030000
030000
030000
030000
070000
070fe0
07fff0
03f070
010000
000000
000000
ENDCHAR
STARTCHAR Ca461
ENCODING 42081
SWIDTH 666 0
DWIDTH 24 0
BBX 24 24 0 -2
BITMAP
000000
000000
000000
0000f0
000ff8
01fff0
3ff700
3c7600
007600
006600
00e600
01c600
018600
038600
070601
0e0301
1c0383
3801ff
7000ff
e00000
800000
000000
000000
000000
ENDCHAR
STARTCHAR Ca462
ENCODING 42082
SWIDTH 666 0
DWIDTH 24 0
BBX 24 24 0 -2
BITMAP
000078
001ffc
07fffc
03f81c
001c1c
001c1c
001c18
0e3838
073838
07b838
03b838
01f038
01f038
00e038
00e070
01c070
01c070
038070
070ef0
0e07e0
1e07e0
3c03c0
380180
200000
ENDCHAR
STARTCHAR Ca463
ENCODING 42083
SWIDTH 666 0
DWIDTH 24 0
BBX 24 24 0 -2
BITMAP
000000
018000
01c000
038000
038000
0701f8
07fffc
0ff81c
0c001c
1c001c
18001c
30001c
00f81c
007c18
001c18
000818
000038
000038
000038
0003f8
0003f0
0000f0
000060
000000
ENDCHAR
STARTCHAR Ca464
ENCODING 42084
SWIDTH 666 0
DWIDTH 24 0
BBX 24 24 0 -2
BITMAP
000c00
001e00
007f00
00fc00
07f800
073800
003800
003838
003ffe
07fffe
fff800
fc3800
003800
003800
003800
003800
003800
003800
003800
003800
003800
003800
003800
001000
ENDCHAR
STARTCHAR Ca465
ENCODING 42085
SWIDTH 666 0
DWIDTH 24 0
BBX 24 24 0 -2
BITMAP
000000
000000
000700
003f80
07fb80
07c780
00e700
1cee00
1f6e00
039c00
01fc00
00f800
007800
00fc00
01ee00
03c700
0783c0
0e01f0
3c00fc
f0007f
c0003f
000000
000000
000000
ENDCHAR
STARTCHAR Ca466
ENCODING 42086
SWIDTH 666 0
DWIDTH 24 0
BBX 24 24 0 -2
BITMAP
000000
000000
000000
000000
000000
000060
100ff0
3ffff8
1f8078
1c0078
1c0070
0c00e0
0e00e0
0e00e0
0e00c0
0601c0
07ffc0
07f0c0
030000
000000
000000
000000
000000
000000
ENDCHAR
STARTCHAR Ca467
ENCODING 42087
SWIDTH 666 0
DWIDTH 24 0
BBX 24 24 0 -2
BITMAP
000000
000000
007000
007800
007800
003800
003000
003000
003000
003300
003f80
07ff80
07f000
003000
003000
003000
003000
003000
003ffe
0fffff
ffc01f
f80000
000000
000000
ENDCHAR
STARTCHAR Ca468
ENCODING 42088
SWIDTH 666 0
DWIDTH 24 0
BBX 24 24 0 -2
BITMAP
000000
000000
003000
007800
003c00
003c00
001800
001800
001800
001800
0038fe
1fffff
fffffe
f83800
003800
003800
003800
003800
0039e0
0ffff0
1ffff0
0e0000
000000
000000
ENDCHAR
STARTCHAR Ca469
ENCODING 42089
SWIDTH 666 0
DWIDTH 24 0
BBX 24 24 0 -2
BITMAP
000000
003800
003c00
003cc0
007be0
007ff0
00ecf0
01c1e0
0381c0
077380
067b80
003f00
001e00
001e00
001c00
003800
007800
00f000
01e000
038000
070000
0e0000
0c0000
000000
ENDCHAR
STARTCHAR Ca46a
ENCODING 42090
SWIDTH 666 0
DWIDTH 24 0
BBX 24 24 0 -2
BITMAP
000000
01c000
00e000
00e000
00e000
00e000
00e000
00e000
00efc0
03ffe0
7fe000
78e000
00f000
01f800
01dc00
038e00
038700
070380
0e03e0
3c01f0
7800fc
e000ff
00007e
000000
ENDCHAR
STARTCHAR Ca46b
ENCODING 42091
SWIDTH 666 0
DWIDTH 24 0
BBX 24 24 0 -2
BITMAP
000000
000000
001800
001c00
001c00
001c00
003800
003800
003000
0073fe
00ffff
ffffff
fec380
21c700
01ce00
01fe00
003e00
007f80
00e3e0
03c1e0
0f00f0
000070
000000
000000
ENDCHAR
STARTCHAR Ca46c
ENCODING 42092
SWIDTH 666 0
DWIDTH 24 0
BBX 24 24 0 -2
BITMAP
000000
000780
003fc0
07ffc0
07e780
018e00
000e00
003c00
003c10
003ffc
0ffffe
7fec1c
7c0c00
000c00
000c00
000c00
000c00
000c00
001c00
00dc00
00fc00
007800
003800
000000
ENDCHAR
STARTCHAR Ca46d
ENCODING 42093
SWIDTH 666 0
DWIDTH 24 0
BBX 24 24 0 -2
BITMAP
000000
0001e0
000ff0
01fff0
01f9e0
00c1c0
000f80
000f00
000770
0003e0
000780
001f80
00ff80
03f380
0fe380
0f8380
020380
000380
000380
001f00
001f00
000f00
000600
000000
ENDCHAR
STARTCHAR Ca46e
ENCODING 42094
SWIDTH 666 0
DWIDTH 24 0
BBX 24 24 0 -2
BITMAP
000000
003800
01fe00
7ffe00
7e3c00
387000
03e000
01c000
00e000
00e000
186000
1f6000
03e000
00f000
007800
007c00
006f00
00e7c0
00e3f8
07e1fe
07e070
03c000
01c000
000000
ENDCHAR
STARTCHAR Ca46f
ENCODING 42095
SWIDTH 666 0
DWIDTH 24 0
BBX 24 24 0 -2
BITMAP
000e00
000f00
000700
000700
000700
000700
00073c
003fff
3fffff
ff8600
700600
038700
03c700
01e700
00e700
004700
000700
000700
000700
003f00
003f00
001f00
000e00
000600
ENDCHAR
STARTCHAR Ca470
ENCODING 42096
SWIDTH 666 0
DWIDTH 24 0
BBX 24 24 0 -2
BITMAP
000000
000000
007000
007800
003800
003800
003800
003800
003800
203830
303838
70381c
70381e
f0380e
e0380e
603800
003800
01f800
01f800
007800
007800
003000
000000
000000
ENDCHAR
STARTCHAR Ca471
ENCODING 42097
SWIDTH 666 0
DWIDTH 24 0
BBX 24 24 0 -2
BITMAP
000000
018000
01c000
01e000
01e000
01c000
01cf00
01ff00
0ffa00
7f8000
73e000
03e000
07e000
07e000
0ee000
0ee004
1ce006
38e00e
30e00e
60703f
c07ffe
003ffc
000000
000000
ENDCHAR
STARTCHAR Ca472
ENCODING 42098
SWIDTH 666 0
DWIDTH 24 0
BBX 24 24 0 -2
BITMAP
000000
000000
000000
0000f0
00dff8
00fc78
006070
006070
0063e0
00ffe0
00e000
00c000
01c000
01c000
018000
038000
070000
060000
0c0000
180000
100000
000000
000000
000000
ENDCHAR
STARTCHAR Ca473
ENCODING 42099
SWIDTH 666 0
DWIDTH 24 0
BBX 24 24 0 -2
BITMAP
000000
000000
007000
007800
003800
003800
003800
003800
003800
003800
003818
30381c
38381c
38381c
18381c
18381c
387ffc
3fff9c
3fc018
3c0018
000018
000000
000000
000000
ENDCHAR
STARTCHAR Ca474
ENCODING 42100
SWIDTH 666 0
DWIDTH 24 0
BBX 24 24 0 -2
BITMAP
000000
000030
000038
00183c
071c18
070e18
070c18
070c18
070c18
070c18
070c18
070c18
070c18
070c18
060c18
0e0c18
0e0c18
1c0c38
180038
380038
000018
000018
000008
000000
ENDCHAR
STARTCHAR Ca475
ENCODING 42101
SWIDTH 666 0
DWIDTH 24 0
BBX 24 24 0 -2
BITMAP
000000
000000
000000
000300
000fe0
00ffe0
0ff800
0f3800
003800
003800
003800
003800
003800
003800
003800
003800
003ffe
01ffff
fff03f
fe0000
300000
000000
000000
000000
ENDCHAR
STARTCHAR Ca476
ENCODING 42102
SWIDTH 666 0
DWIDTH 24 0
BBX 24 24 0 -2
BITMAP
000000
000000
003800
01fc00
3ffc00
3e3800
003800
003800
007000
0ff800
7f8000
780000
380000
380008
380018
380018
38001c
38003c
1e03fc
0ffffc
03ffe0
000000
000000
000000
ENDCHAR
STARTCHAR Ca477
ENCODING 42103
SWIDTH 666 0
DWIDTH 24 0
BBX 24 24 0 -2
BITMAP
000000
000000
003800
00fc00
3ffc00
7e1c00
203800
603800
783800
387800
3ff800
3f8000
300000
300000
30000c
30000c
30001c
38001c
3f01fe
0ffffc
03fff0
000000
000000
000000
ENDCHAR
STARTCHAR Ca478
ENCODING 42104
SWIDTH 666 0
DWIDTH 24 0
BBX 24 24 0 -2
BITMAP
000000
000000
000000
00f000
07f800
3f7800
307000
387000
386000
31e000
3fe000
3c0000
300000
300000
300018
300018
300018
30001c
38003c
1ffffc
0ffffc
000000
000000
000000
ENDCHAR
STARTCHAR Ca479
ENCODING 42105
SWIDTH 666 0
DWIDTH 24 0
BBX 24 24 0 -2
BITMAP
003000
003800
003800
003800
0018c0
001ff0
0dfe70
0ff870
0e1870
061870
061870
061860
061860
0619e0
0619e0
0618e0
003840
003800
003800
003800
003800
003800
001800
001000
ENDCHAR
STARTCHAR Ca47a
ENCODING 42106
SWIDTH 666 0
DWIDTH 24 0
BBX 24 24 0 -2
BITMAP
0003c0
003fc0
03ffc0
03b800
001800
001800
001800
001bfc
03fffe
7ff800
7c1800
001800
001800
001800
003800
003800
003800
003800
003800
003800
003800
003800
001800
000000
ENDCHAR
STARTCHAR Ca47b
ENCODING 42107
SWIDTH 666 0
DWIDTH 24 0
BBX 24 24 0 -2
BITMAP
000600
000700
000300
000300
03c300
01c300
01c300
00c33c
00dffe
0fff3e
7fc300
31c300
01c300
018300
018300
038300
070300
0e0300
1c0300
380300
200300
000300
000300
000000
ENDCHAR
STARTCHAR Ca47c
ENCODING 42108
SWIDTH 666 0
DWIDTH 24 0
BBX 24 24 0 -2
BITMAP
018000
03e000
01ef00
00e780
00e380
00e180
007380
007fc0
007f80
03f800
fff800
fc3800
301800
001c00
000c00
000e00
00070c
00078c
0003cc
0001fc
0000fe
00007f
00003e
000000
ENDCHAR
STARTCHAR Ca47d
ENCODING 42109
SWIDTH 666 0
DWIDTH 24 0
BBX 24 24 0 -2
BITMAP
000380
003fc0
03ffc0
03c3c0
000380
000380
033f80
03ff00
03c000
030000
030380
073fe0
07fde0
07c1c0
0601c0
0001c0
000180
000380
000380
000380
003f00
003f00
001e00
000c00
ENDCHAR
STARTCHAR Ca47e
ENCODING 42110
SWIDTH 666 0
DWIDTH 24 0
BBX 24 24 0 -2
BITMAP
001c00
001e00
000c00
000c00
000c00
000c3c
000ffc
03fffc
3fcdc0
1e0dc0
000fc0
000f80
001e00
003c00
007c00
01ec00
03ce00
0f0e00
1c0e00
000e00
000e00
000e00
000e00
000600
ENDCHAR
STARTCHAR Ca4a1
ENCODING 42145
SWIDTH 666 0
DWIDTH 24 0
BBX 24 24 0 -2
BITMAP
000000
000000
000000
000380
07ffc0
0ff1c0
00e1c0
00f180
00e380
00e380
00e39c
01ffff
ffffff
ff8700
c38600
038e00
030e00
070e00
07fff0
7ffff0
3e0000
000000
000000
000000
ENDCHAR
STARTCHAR Ca4a2
ENCODING 42146
SWIDTH 666 0
DWIDTH 24 0
BBX 24 24 0 -2
BITMAP
000030
0007fc
01fff8
3ff800
1c3800
001800
001800
061fc0
071f00
071800
071800
0738e0
063fe0
0ffee0
0fe0e0
0700e0
0000e0
0000e0
0000c0
0007c0
0007c0
000380
000180
000000
ENDCHAR
STARTCHAR Ca4a3
ENCODING 42147
SWIDTH 666 0
DWIDTH 24 0
BBX 24 24 0 -2
BITMAP
000000
000038
000ffc
07fffe
7ffe1c
7e0f00
007e00
007c00
003800
007800
00f800
01f800
0398c0
0718f0
0e387c
1c383c
78381e
70380e
00f806
007800
007800
003800
000000
000000
ENDCHAR
STARTCHAR Ca4a4
ENCODING 42148
SWIDTH 666 0
DWIDTH 24 0
BBX 24 24 0 -2
BITMAP
007000
007800
003c00
001800
001800
0018f0
00fff8
3fff7c
3f1838
1c1870
1c1870
0e3ff0
0ffff0
0ff800
063800
003800
003800
003800
003800
003800
003800
003800
003800
001000
ENDCHAR
STARTCHAR Ca4a5
ENCODING 42149
SWIDTH 666 0
DWIDTH 24 0
BBX 24 24 0 -2
BITMAP
003800
003800
001b80
001f80
00ff80
07f800
031800
001b00
003f80
03ff00
03f800
001800
0018e0
001ff0
01fff0
1ff800
0e3800
003800
003800
003800
003800
003800
003800
001000
ENDCHAR
STARTCHAR Ca4a6
ENCODING 42150
SWIDTH 666 0
DWIDTH 24 0
BBX 24 24 0 -2
BITMAP
000000
000180
001fc0
03ffc0
03c1c0
01f9c0
01ddc0
01ddc0
01cdc0
01c1fe
03ffff
ffe1ff
fd81c0
6381c0
0381c0
0301c0
0701c0
0e01c0
0c0fc0
180fc0
1007c0
000380
000180
000000
ENDCHAR
STARTCHAR Ca4a7
ENCODING 42151
SWIDTH 666 0
DWIDTH 24 0
BBX 24 24 0 -2
BITMAP
000000
00f000
00f800
003c00
001ce0
0007f0
00fff0
3ffbe0
1f8f80
1c1e00
007c00
01f000
03c000
9f0000
ff8000
f7e000
00f800
003f00
000ff0
0003ff
0000ff
00007e
000000
000000
ENDCHAR
STARTCHAR Ca4a8
ENCODING 42152
SWIDTH 666 0
DWIDTH 24 0
BBX 24 24 0 -2
BITMAP
000000
0001c0
007fe0
01f8e0
0030e0
0031fc
00fffe
7ff1c0
7c31c0
007380
00ff80
1ff000
0c6000
00e000
00c000
01c000
018000
038000
030000
060000
0e0000
180000
100000
000000
ENDCHAR
STARTCHAR Ca4a9
ENCODING 42153
SWIDTH 666 0
DWIDTH 24 0
BBX 24 24 0 -2
BITMAP
000300
003f80
0fffc0
0fc780
000e00
007c00
007800
0039f8
007ffc
0ff83c
7f9c7c
781c60
001c00
001c00
001c00
001c00
001c00
001c00
001c00
019c00
01fc00
00fc00
003800
001800
ENDCHAR
STARTCHAR Ca4aa
ENCODING 42154
SWIDTH 666 0
DWIDTH 24 0
BBX 24 24 0 -2
BITMAP
000000
000000
000000
000780
00ff80
03fe00
018000
000000
00001c
000ffe
07ffff
fff806
7c7c00
007c00
00f300
01e1c0
01c1e0
03fff0
07fc70
0fe070
070070
000000
000000
000000
ENDCHAR
STARTCHAR Ca4ab
ENCODING 42155
SWIDTH 666 0
DWIDTH 24 0
BBX 24 24 0 -2
BITMAP
000600
000700
018700
03c700
01c7e0
00ffe0
03ffe0
0fe300
06c300
00c31c
00c7fe
03fffe
7ff700
7fc300
01c300
018300
018700
038700
030700
070700
060700
040700
000300
000300
ENDCHAR
STARTCHAR Ca4ac
ENCODING 42156
SWIDTH 666 0
DWIDTH 24 0
BBX 24 24 0 -2
BITMAP
000000
000000
0000e0
000ff8
07fff8
03fc00
001c00
003dc0
003fe0
0070e0
00e1e0
00c3c0
03ff80
03ff00
03cf00
000e00
001c00
00381c
fffffe
ffffff
780007
000000
000000
000000
ENDCHAR
STARTCHAR Ca4ad
ENCODING 42157
SWIDTH 666 0
DWIDTH 24 0
BBX 24 24 0 -2
BITMAP
000000
000000
000000
0007c0
03ffc0
03f800
003800
003800
007000
007000
006fc0
07ffc0
07e1c0
00c1c0
01c380
018300
038300
038718
07fffe
fff1ff
f00007
000000
000000
000000
ENDCHAR
STARTCHAR Ca4ae
ENCODING 42158
SWIDTH 666 0
DWIDTH 24 0
BBX 24 24 0 -2
BITMAP
008000
01f800
007800
003800
001800
0003e0
01fff0
fffff0
fe0000
201800
03fc00
03fc00
019c00
039800
039800
031800
071804
061806
0e1806
1c1806
381e0e
600fff
0003fe
000000
ENDCHAR
STARTCHAR Ca4af
ENCODING 42159
SWIDTH 666 0
DWIDTH 24 0
BBX 24 24 0 -2
BITMAP
000000
010000
038000
01c000
03c000
0780e0
0703f0
0e1ff0
1e1c00
3e0000
760000
e60000
c60000
86000c
0600ff
067fff
06fc00
060000
0e0000
0e0000
0e0000
060000
000000
000000
ENDCHAR
STARTCHAR Ca4b0
ENCODING 42160
SWIDTH 666 0
DWIDTH 24 0
BBX 24 24 0 -2
BITMAP
000180
0181c0
01c1c0
01e1c0
03c1c0
0381c0
0701c2
0e01ff
1f0fff
3bffc0
7371c0
e301c0
c301c0
0701c0
0701c0
0701c0
0701c0
0701c0
0701c0
0701c0
0701c0
0201c0
0001c0
000080
ENDCHAR
STARTCHAR Ca4b1
ENCODING 42161
SWIDTH 666 0
DWIDTH 24 0
BBX 24 24 0 -2
BITMAP
018000
01c000
03c000
038000
07003f
0f8fff
0effe0
1e01c0
3e00c0
7600c0
6600c0
c600c0
0600c0
0600c0
0600c0
0600c0
0600c0
0600c0
0600c0
0607c0
0607c0
0603c0
0601c0
000080
ENDCHAR
STARTCHAR Ca4b2
ENCODING 42162
SWIDTH 666 0
DWIDTH 24 0
BBX 24 24 0 -2
BITMAP
000000
038600
01c700
03c700
038700
070700
060700
0e0700
1e0700
1e07f0
3607fc
66073c
46071e
060700
060700
060700
060700
060700
060700
060700
060700
060700
000200
000000
ENDCHAR
STARTCHAR Ca4b3
ENCODING 42163
SWIDTH 666 0
DWIDTH 24 0
BBX 24 24 0 -2
BITMAP
000000
070e00
078e00
078e00
070e00
0e0c80
0e0de0
1c0fe0
183ce0
3ff9c0
7dd9c0
6c1980
cc3980
8c3180
0c3300
0c6300
0c6302
1cc306
1d8386
1f83ff
1e01ff
180000
080000
000000
ENDCHAR
STARTCHAR Ca4b4
ENCODING 42164
SWIDTH 666 0
DWIDTH 24 0
BBX 24 24 0 -2
BITMAP
000000
038000
01c030
03c07c
0383fc
071f38
077f30
0e0770
1e0760
1f067e
3b067f
730e0e
e70c0e
871c0c
07180c
07301c
07701c
07e01c
06c138
0601f8
0600f0
0600f0
020060
000000
ENDCHAR
STARTCHAR Ca4b5
ENCODING 42165
SWIDTH 666 0
DWIDTH 24 0
BBX 24 24 0 -2
BITMAP
006000
007000
00f000
00f000
01d800
01cc00
038700
070380
0e01e0
0c18f0
18f87c
30f03f
60001e
c00c00
00fe00
0fee00
070e00
001c00
001c00
003800
003800
007000
007000
000000
ENDCHAR
STARTCHAR Ca4b6
ENCODING 42166
SWIDTH 666 0
DWIDTH 24 0
BBX 24 24 0 -2
BITMAP
007000
007800
007800
00f800
00ec00
01c600
038380
0383c0
070de0
0e0ef8
1dce7f
39ce3f
71ce00
c1ce00
01ce00
018e00
018e00
038e00
070e00
060e00
0c0e00
000e00
000600
000000
ENDCHAR
STARTCHAR Ca4b7
ENCODING 42167
SWIDTH 666 0
DWIDTH 24 0
BBX 24 24 0 -2
BITMAP
000000
0007e0
0ffff0
0ff000
0e0000
0e0000
0e3000
0e3800
0c1c00
0c1c00
0c1800
0c3800
0c3800
1c3c00
187e00
186700
30e380
30c1c0
61c1e0
6380f8
c7007e
86003f
00001e
000000
ENDCHAR
STARTCHAR Ca4b8
ENCODING 42168
SWIDTH 666 0
DWIDTH 24 0
BBX 24 24 0 -2
BITMAP
000000
000000
003f00
07ff00
07f000
000000
000100
000fc0
01ffc0
3ff800
3ff800
19f800
03b800
03b800
073002
0e3002
1c3007
383007
70380f
e03fff
801fff
0007fe
000000
000000
ENDCHAR
STARTCHAR Ca4b9
ENCODING 42169
SWIDTH 666 0
DWIDTH 24 0
BBX 24 24 0 -2
BITMAP
000000
004000
00f000
00f000
00f000
00e600
01c700
038780
037fc0
1ff9c0
1ff880
1fd800
01d800
01f800
03b800
073000
073006
0e3006
1c3006
38380e
f01fff
c00fff
0001f8
000000
ENDCHAR
STARTCHAR Ca4ba
ENCODING 42170
SWIDTH 666 0
DWIDTH 24 0
BBX 24 24 0 -2
BITMAP
000000
078000
07c000
00e000
006000
006060
003ff8
3ffff8
3ff83c
183838
187c38
187e38
18ef38
18c7b8
1987f8
1f03f8
1e0038
1c0038
1c0178
1c01f0
0800f0
000070
000000
000000
ENDCHAR
STARTCHAR Ca4bb
ENCODING 42171
SWIDTH 666 0
DWIDTH 24 0
BBX 24 24 0 -2
BITMAP
000000
000000
007000
007800
003800
003800
003800
003800
003ffc
03fffe
ffffff
fe0000
000000
038000
03c300
03c380
0781e0
0f00f0
1c00f0
780070
600030
000000
000000
000000
ENDCHAR
STARTCHAR Ca4bc
ENCODING 42172
SWIDTH 666 0
DWIDTH 24 0
BBX 24 24 0 -2
BITMAP
01e000
00f800
001c00
030f00
078380
0f81e0
0e00f0
1c1ffe
3bff3f
77e01f
c07000
00e000
01df00
01ff80
03e380
010700
000700
000700
000e00
000e00
019e00
01fc00
00fc00
007800
ENDCHAR
STARTCHAR Ca4bd
ENCODING 42173
SWIDTH 666 0
DWIDTH 24 0
BBX 24 24 0 -2
BITMAP
000000
000000
000000
000300
01c1e0
01c0f8
03c07c
07001c
1e000c
381800
701c00
003c00
003800
007000
00e180
00e1c0
01c7e0
07fff0
07fc78
07c078
030030
000000
000000
000000
ENDCHAR
STARTCHAR Ca4be
ENCODING 42174
SWIDTH 666 0
DWIDTH 24 0
BBX 24 24 0 -2
BITMAP
000000
000000
0000e0
083ff0
1ffe78
1f80f8
1c01c0
380000
181e00
03fe00
01ce00
018c00
038c00
038c00
031c0c
071c0c
061c0c
0e1c0e
1c0c3e
700ffe
6003fe
000000
000000
000000
ENDCHAR
STARTCHAR Ca4bf
ENCODING 42175
SWIDTH 666 0
DWIDTH 24 0
BBX 24 24 0 -2
BITMAP
000000
000000
000200
000780
000780
070780
07cf00
01ee00
007c3c
003c1e
707f1e
38ff9c
39e79c
3bc39c
1f001c
1e001c
383ffc
3ffffc
3fc01c
3c0018
000018
000000
000000
000000
ENDCHAR
STARTCHAR Ca4c0
ENCODING 42176
SWIDTH 666 0
DWIDTH 24 0
BBX 24 24 0 -2
BITMAP
006000
007c00
001e00
018700
038380
03c1c0
0780f0
0e0078
3c007e
78003f
e00f1f
87ff80
07f3c0
02e380
00e380
01c380
038300
078700
0f0700
1e2f00
387e00
303e00
001c00
000800
ENDCHAR
STARTCHAR Ca4c1
ENCODING 42177
SWIDTH 666 0
DWIDTH 24 0
BBX 24 24 0 -2
BITMAP
000000
000000
1c0000
0e0000
0e0000
0e0000
0e003e
0e07fe
0fbfce
0f818e
3e038e
fe038c
46230c
0e670c
0fc60c
0f8e1c
0f8c1c
0f1cf8
0e38f8
007070
004070
000000
000000
000000
ENDCHAR
STARTCHAR Ca4c2
ENCODING 42178
SWIDTH 666 0
DWIDTH 24 0
BBX 24 24 0 -2
BITMAP
000018
00401c
00700e
00700e
00380e
38700e
18718e
0c718e
0e618e
07e18e
03e18e
03c18e
01c18e
01e18e
03e18e
077186
077806
0e3806
1c3806
38380e
70183e
60003e
00001e
00000c
ENDCHAR
STARTCHAR Ca4c3
ENCODING 42179
SWIDTH 666 0
DWIDTH 24 0
BBX 24 24 0 -2
BITMAP
00e000
00e000
00e000
01e000
01c030
03bff8
07fc3c
0e001c
1c0018
380038
20f838
07f838
060030
000030
003e30
3ffc70
3fc070
3c0060
000060
0000e0
0000e0
000fe0
0007c0
0003c0
ENDCHAR
STARTCHAR Ca4c4
ENCODING 42180
SWIDTH 666 0
DWIDTH 24 0
BBX 24 24 0 -2
BITMAP
00c000
00e000
007000
00f000
01c020
038ff8
03ff38
0fc038
1d8038
18c038
01c030
01c030
019c30
031e30
07fe70
1fc670
1e0670
0c0070
000060
000ce0
000fe0
0003c0
0001c0
000180
ENDCHAR
STARTCHAR Ca4c5
ENCODING 42181
SWIDTH 666 0
DWIDTH 24 0
BBX 24 24 0 -2
BITMAP
000000
01c000
01c000
01c000
038000
038000
0703f8
0ffffc
1fee1c
38ee38
31ce38
039c38
031c30
063870
0c7070
006060
00e0e0
01c0e0
0399c0
031fc0
000f80
000780
000200
000000
ENDCHAR
STARTCHAR Ca4c6
ENCODING 42182
SWIDTH 666 0
DWIDTH 24 0
BBX 24 24 0 -2
BITMAP
000000
000000
030e00
038f00
038e40
078e70
070e70
0e0ef0
0c0fe0
1e0fc0
3e0780
760f00
e61e00
c63e00
867600
064601
060601
060603
060603
0e078f
0e03ff
0600ff
000000
000000
ENDCHAR
STARTCHAR Ca4c7
ENCODING 42183
SWIDTH 666 0
DWIDTH 24 0
BBX 24 24 0 -2
BITMAP
000000
000000
000000
0001f0
00fff8
1ffe38
1e0c00
188e00
1ce600
18e600
18c600
18c600
19c400
1987e0
1b07f0
1a0000
180000
180000
387ff8
3ffffc
1c0000
000000
000000
000000
ENDCHAR
STARTCHAR Ca4c8
ENCODING 42184
SWIDTH 666 0
DWIDTH 24 0
BBX 24 24 0 -2
BITMAP
01c000
01c000
03c180
079fc0
07ffc0
0df800
181800
001800
0019fc
00fffe
7ff81e
7e1800
003800
003800
003800
003800
003800
003800
003800
003800
003800
001800
001800
001000
ENDCHAR
STARTCHAR Ca4c9
ENCODING 42185
SWIDTH 666 0
DWIDTH 24 0
BBX 24 24 0 -2
BITMAP
000600
00c780
00e300
01f300
07c300
0f8300
01c300
00c33c
00dffe
0ffffe
7fc300
39c300
01c300
01c300
018300
038300
070300
060300
1c0300
380300
300300
000300
000300
000000
ENDCHAR
STARTCHAR Ca4ca
ENCODING 42186
SWIDTH 666 0
DWIDTH 24 0
BBX 24 24 0 -2
BITMAP
000000
000000
000180
0001c0
0001e0
0000e0
1c70e0
1e78c0
0e38c0
0e30fe
063fff
0ffffe
ffb0c0
f630c0
0630c0
0630c0
0730c0
0730c0
0700c0
0000c0
0000c0
000080
000000
000000
ENDCHAR
STARTCHAR Ca4cb
ENCODING 42187
SWIDTH 666 0
DWIDTH 24 0
BBX 24 24 0 -2
BITMAP
001000
003800
001c00
001c00
001800
001818
0019fe
007ffe
7ff800
7e1800
001800
001f80
001fc0
0019c0
001840
001800
001800
001800
001800
001800
001800
001800
001800
001000
ENDCHAR
STARTCHAR Ca4cc
ENCODING 42188
SWIDTH 666 0
DWIDTH 24 0
BBX 24 24 0 -2
BITMAP
000000
000380
001fc0
03ffc0
0fe000
0e0000
0e0000
060700
0e3f80
0eff80
0ee300
0ce700
0ce700
0cff00
1cfe00
18ce0c
18c40c
38c00c
30c00e
60e07e
c07ffe
801ffc
000000
000000
ENDCHAR
STARTCHAR Ca4cd
ENCODING 42189
SWIDTH 666 0
DWIDTH 24 0
BBX 24 24 0 -2
BITMAP
000000
007000
007800
007000
0071e0
007ff0
01fff0
3ff000
3ee000
00e600
01df80
01fb80
01c780
03e700
03fe00
073e00
0e1e00
0c3f00
1c73c0
38e1f0
71c1fc
c300ff
00007f
000000
ENDCHAR
STARTCHAR Ca4ce
ENCODING 42190
SWIDTH 666 0
DWIDTH 24 0
BBX 24 24 0 -2
BITMAP
000000
000000
000f00
007fc0
07f7c0
1fe700
08e700
01ce00
01cc00
01bf80
03ff80
030380
07e700
0e7f00
0c3e00
1c1c00
383f00
707780
c1e3e0
8780fc
0e007f
00003f
000000
000000
ENDCHAR
STARTCHAR Ca4cf
ENCODING 42191
SWIDTH 666 0
DWIDTH 24 0
BBX 24 24 0 -2
BITMAP
000000
000f80
003f80
0ff800
1f8000
0e0000
070000
070700
060f80
063f80
07f700
078700
0ec600
0c6e00
0c7c00
1c3c00
183c00
387f00
30e780
63c3c0
6701f0
0e00fe
00007e
000000
ENDCHAR
STARTCHAR Ca4d0
ENCODING 42192
SWIDTH 666 0
DWIDTH 24 0
BBX 24 24 0 -2
BITMAP
000000
000000
000600
000780
001f80
00ff00
03f800
031c00
001c00
001c00
001c1c
001ffe
7fffff
ff9c00
601800
001800
001800
001800
001fe0
0ffff0
0fe070
040000
000000
000000
ENDCHAR
STARTCHAR Ca4d1
ENCODING 42193
SWIDTH 666 0
DWIDTH 24 0
BBX 24 24 0 -2
BITMAP
000000
000f00
007f00
0fff00
07e000
00e000
006000
006000
00e7e0
00ffe0
3fffe0
7fe000
30f000
01d800
01dc00
038e00
038700
070780
0e03c0
3c01f0
7000fc
e000ff
00003f
000000
ENDCHAR
STARTCHAR Ca4d2
ENCODING 42194
SWIDTH 666 0
DWIDTH 24 0
BBX 24 24 0 -2
BITMAP
000000
01e000
00e000
00e000
00e000
00e000
00fe00
01fe00
0fe000
00c000
00c300
00ffc0
1fffc0
7fc000
21e000
03b000
039c00
070e00
0e0700
1c03c0
7801f8
e001ff
0000ff
000000
ENDCHAR
STARTCHAR Ca4d3
ENCODING 42195
SWIDTH 666 0
DWIDTH 24 0
BBX 24 24 0 -2
BITMAP
000000
00f000
007000
007000
007000
007000
007000
006000
0067e0
07fff0
7fe070
38f000
00f000
01d800
01cc00
038600
038700
078380
0fe1e0
1ce1f0
70e0fc
e0607e
00003f
000000
ENDCHAR
STARTCHAR Ca4d4
ENCODING 42196
SWIDTH 666 0
DWIDTH 24 0
BBX 24 24 0 -2
BITMAP
000000
000400
000f00
001f80
00ff80
07f000
07f800
003800
0030e0
003ff8
07fff8
7ff000
387800
007c00
00ee00
00e700
01c380
0383c0
0f01e0
1e00f8
78007e
e0007f
000002
000000
ENDCHAR
STARTCHAR Ca4d5
ENCODING 42197
SWIDTH 666 0
DWIDTH 24 0
BBX 24 24 0 -2
BITMAP
000000
000800
00ce00
03ee00
3fee00
7cee00
31ce00
018c00
070c00
036c00
01cc00
038c00
0f8c00
3d8c00
f98c00
f18c06
418c06
018c06
038e0e
0f87ff
0f03fe
070000
000000
000000
ENDCHAR
STARTCHAR Ca4d6
ENCODING 42198
SWIDTH 666 0
DWIDTH 24 0
BBX 24 24 0 -2
BITMAP
000000
003800
003c00
001c00
001800
00187c
0c183c
0c181e
1c1b04
1c1b80
1c1b80
087f80
003f00
001e00
001c00
003800
007800
00e000
01c000
078000
0f0000
3c0000
700000
000000
ENDCHAR
STARTCHAR Ca4d7
ENCODING 42199
SWIDTH 666 0
DWIDTH 24 0
BBX 24 24 0 -2
BITMAP
000000
018000
01c300
01e780
00e380
01c100
01df00
01ff00
3fe000
7fc000
03e000
03e000
07e000
07e000
0ee000
0ee006
1ce006
38e00e
70e00e
e0707e
c07ffe
001ff8
000000
000000
ENDCHAR
STARTCHAR Ca4d8
ENCODING 42200
SWIDTH 666 0
DWIDTH 24 0
BBX 24 24 0 -2
BITMAP
000000
000000
000e00
003f00
07ff00
078700
030e00
030e00
033e00
03f800
078000
07e000
067000
063800
0e1e00
0c0f00
1c07c0
1803f8
3801ff
e000ff
c00020
000000
000000
000000
ENDCHAR
STARTCHAR Ca4d9
ENCODING 42201
SWIDTH 666 0
DWIDTH 24 0
BBX 24 24 0 -2
BITMAP
000000
000000
078000
038000
039800
03fc00
03f800
3f8000
7b1c00
031e00
631c00
333c00
33fc00
3f8000
7f0008
7b0008
230008
03001c
03001c
03c3fc
01fffc
001fc0
000000
000000
ENDCHAR
STARTCHAR Ca4da
ENCODING 42202
SWIDTH 666 0
DWIDTH 24 0
BBX 24 24 0 -2
BITMAP
000000
000000
000000
001800
00fc00
1ffe00
7f9c00
739800
339800
33f800
37f800
3f0000
300000
300000
300008
30000c
30001c
30003c
3e1ffc
1ffffc
01ffe0
000000
000000
000000
ENDCHAR
STARTCHAR Ca4db
ENCODING 42203
SWIDTH 666 0
DWIDTH 24 0
BBX 24 24 0 -2
BITMAP
000000
000000
030000
038000
078000
07c000
0ee03c
0ce3fe
18ff8e
3bdc1c
7f801c
7b001c
260018
0cc018
1de038
3fe038
3e6038
386030
3001f0
0000f0
0000e0
000040
000000
000000
ENDCHAR
STARTCHAR Ca4dc
ENCODING 42204
SWIDTH 666 0
DWIDTH 24 0
BBX 24 24 0 -2
BITMAP
000000
000000
000000
000380
0303e0
0381e0
03c1e0
01c1c0
01c1c0
01c1fe
03ffff
ffffff
ffc180
41c180
01c180
01c380
01c380
01c380
01ff80
01ff80
008000
000000
000000
000000
ENDCHAR
STARTCHAR Ca4dd
ENCODING 42205
SWIDTH 666 0
DWIDTH 24 0
BBX 24 24 0 -2
BITMAP
000000
0007c0
00ffc0
0ff9c0
067180
003380
007f80
1ffc00
1f3000
0c33f8
0c7ff8
1ff838
1fb030
1e3070
0031f0
0031f0
0030e0
003040
007000
007000
007000
007000
003000
000000
ENDCHAR
STARTCHAR Ca4de
ENCODING 42206
SWIDTH 666 0
DWIDTH 24 0
BBX 24 24 0 -2
BITMAP
000000
000060
007070
03f870
0fb830
043030
003030
06f030
07e030
070030
060070
067030
0ff070
0f7070
0c7070
007070
006070
00e070
00e070
07e070
03c070
01c070
008030
000000
ENDCHAR
STARTCHAR Ca4df
ENCODING 42207
SWIDTH 666 0
DWIDTH 24 0
BBX 24 24 0 -2
BITMAP
000000
000000
000000
000000
000000
004078
00687c
00781e
00780e
003800
001800
260000
360030
730038
71c01c
71f07e
707ffe
003ffc
000000
000000
000000
000000
000000
000000
ENDCHAR
STARTCHAR Ca4e0
ENCODING 42208
SWIDTH 666 0
DWIDTH 24 0
BBX 24 24 0 -2
BITMAP
01e000
01e780
00e780
00e3c0
006080
0077e0
007fe0
01fe00
0ff000
3f3300
1c3b80
001f80
001f00
001e00
003c00
007e00
01e708
03c798
0f03d8
0c01f8
0000f8
0000fc
00003c
00001c
ENDCHAR
STARTCHAR Ca4e1
ENCODING 42209
SWIDTH 666 0
DWIDTH 24 0
BBX 24 24 0 -2
BITMAP
000000
000c00
000f00
000780
000300
0000f0
00fff8
00fe78
00e070
00e070
00e3e0
00ffe0
00e000
00c000
01c000
018000
038000
030000
070000
060000
0c0000
180000
100000
000000
ENDCHAR
STARTCHAR Ca4e2
ENCODING 42210
SWIDTH 666 0
DWIDTH 24 0
BBX 24 24 0 -2
BITMAP
000600
000f80
001f80
00ff00
07f800
073800
001fc0
00ffe0
07fc00
011c00
001c18
003ffe
7ffffe
7f9c00
381c00
001c00
001c00
001c00
001c00
001c00
01fc00
00f800
003800
001800
ENDCHAR
STARTCHAR Ca4e3
ENCODING 42211
SWIDTH 666 0
DWIDTH 24 0
BBX 24 24 0 -2
BITMAP
000000
040000
0f1800
071c00
070e00
070e00
070c00
07cc00
3f8c00
3f0c00
066c00
07cc00
078c00
070c00
1f0c00
ff0c04
ff0c06
730c06
070e0e
1f0ffe
0f03fe
060000
000000
000000
ENDCHAR
STARTCHAR Ca4e4
ENCODING 42212
SWIDTH 666 0
DWIDTH 24 0
BBX 24 24 0 -2
BITMAP
00e000
00f000
007000
007000
007180
007fe0
01ffe0
7ff000
3e6000
006c00
007e00
01ff00
0f8e00
0f1c00
03b800
00f800
007000
00f800
01de00
078f80
0e07e0
3c03fe
7001fe
000000
ENDCHAR
STARTCHAR Ca4e5
ENCODING 42213
SWIDTH 666 0
DWIDTH 24 0
BBX 24 24 0 -2
BITMAP
000000
01c000
01e000
00e000
007000
0033f0
003ff0
07ffe0
7fbc00
7c1c00
0f3c00
07b800
01f800
00f000
007800
00fc00
01de00
03cf80
0787c0
1e03f8
7c01ff
f000ff
000000
000000
ENDCHAR
STARTCHAR Ca4e6
ENCODING 42214
SWIDTH 666 0
DWIDTH 24 0
BBX 24 24 0 -2
BITMAP
000e00
000f00
01c700
03f700
00f700
003700
000700
07c700
07c700
01c700
00073e
0007ff
00fffe
0ff700
ff8700
fc0700
200700
000700
000700
000600
000700
000600
000600
000600
ENDCHAR
STARTCHAR Ca4e7
ENCODING 42215
SWIDTH 666 0
DWIDTH 24 0
BBX 24 24 0 -2
BITMAP
001000
001800
003c00
00fc00
03f800
0fc000
0e0000
0e00f0
070ff8
07fff8
07ff00
070700
070700
060700
0e0700
0e0700
0c0700
1c0700
180700
380700
300700
000700
000600
000600
ENDCHAR
STARTCHAR Ca4e8
ENCODING 42216
SWIDTH 666 0
DWIDTH 24 0
BBX 24 24 0 -2
BITMAP
004000
007000
007800
003c00
001c1c
0019ff
007fff
0fff00
ffde00
fc1cc0
003fe0
003fe0
0070e0
00f1c0
00e1c0
01c1c0
0383c0
070380
0e0780
1c3700
183f00
001e00
000e00
000000
ENDCHAR
STARTCHAR Ca4e9
ENCODING 42217
SWIDTH 666 0
DWIDTH 24 0
BBX 24 24 0 -2
BITMAP
000000
000000
000000
000f80
07ffc0
07f1c0
0301c0
0301c0
0301c0
0319c0
03fdc0
03f1c0
0301c0
0301c0
0301c0
030bc0
03ff80
03ff80
030380
000380
000100
000000
000000
000000
ENDCHAR
STARTCHAR Ca4ea
ENCODING 42218
SWIDTH 666 0
DWIDTH 24 0
BBX 24 24 0 -2
BITMAP
000000
000000
000000
000030
000ff8
3bfffc
3fe03c
1c0038
1c0038
1c0038
0c1f38
0fff38
0fe038
0e0038
060030
060070
060ff0
07fff0
07e0e0
0300e0
000040
000000
000000
000000
ENDCHAR
STARTCHAR Ca4eb
ENCODING 42219
SWIDTH 666 0
DWIDTH 24 0
BBX 24 24 0 -2
BITMAP
0000c0
0087f0
01fff0
00f070
00e070
00e070
00efe0
00ffe0
00f860
00e060
00e7e0
00ffe0
00f860
00c060
01c060
01c060
038070
038070
070670
1e07f0
1c01f0
0000e0
0000e0
000000
ENDCHAR
STARTCHAR Ca4ec
ENCODING 42220
SWIDTH 666 0
DWIDTH 24 0
BBX 24 24 0 -2
BITMAP
00e000
00f000
00e000
006000
006000
006000
006f00
00ff80
1fff00
1fe000
01f000
03f800
076e00
0f6700
1e67c0
38e3e0
70e1fc
e0e0ff
80e07e
00e000
00e000
00e000
00e000
006000
ENDCHAR
STARTCHAR Ca4ed
ENCODING 42221
SWIDTH 666 0
DWIDTH 24 0
BBX 24 24 0 -2
BITMAP
000000
018000
01e000
01e000
01c000
038000
070380
073fc0
0ffbe0
1fe7c0
18e600
30e400
60e000
40e000
01f000
019800
039e00
070f00
0e0780
3c03e0
7801f8
c000ff
00007e
000000
ENDCHAR
STARTCHAR Ca4ee
ENCODING 42222
SWIDTH 666 0
DWIDTH 24 0
BBX 24 24 0 -2
BITMAP
000000
002000
003c00
003c00
001c00
001c00
001c00
001c00
0018e0
001fe0
181fe0
1e1800
0e1800
0e1800
0e1800
061800
061800
06180c
061fff
0fffff
ffe003
f80000
e00000
000000
ENDCHAR
STARTCHAR Ca4ef
ENCODING 42223
SWIDTH 666 0
DWIDTH 24 0
BBX 24 24 0 -2
BITMAP
000000
000000
0003f8
0ffffc
0ff83c
001800
003800
007880
007fc0
00efe0
01c3c0
038780
07e700
00ee00
007c00
003800
007000
00e000
03c000
070000
1e0000
380000
000000
000000
ENDCHAR
STARTCHAR Ca4f0
ENCODING 42224
SWIDTH 666 0
DWIDTH 24 0
BBX 24 24 0 -2
BITMAP
000000
000180
0007e0
03ffe0
03fce0
018ce0
018ce0
019ce0
019ce0
03ffff
ffffff
fb18e0
0338e0
0730c0
0730c0
0fffc0
07fff8
00e1fe
00c1df
018f86
010780
000380
000000
000000
ENDCHAR
STARTCHAR Ca4f1
ENCODING 42225
SWIDTH 666 0
DWIDTH 24 0
BBX 24 24 0 -2
BITMAP
000000
000000
003800
003c00
201c00
781c00
381c00
381800
3818e0
3f9fe0
3f9fc0
381800
381800
381800
389800
3b9806
3f1806
3e1806
7c180e
781c3e
700ffe
2007fe
000000
000000
ENDCHAR
STARTCHAR Ca4f2
ENCODING 42226
SWIDTH 666 0
DWIDTH 24 0
BBX 24 24 0 -2
BITMAP
000000
007000
007800
00f800
03f800
0fc000
1fc000
39de00
01fe00
07f800
3fc000
3dc3c0
01dfc0
01ffc0
0fe000
ffc000
f9c00c
e0c00c
00c00e
00e01e
00ffff
007ffe
000fc0
000000
ENDCHAR
STARTCHAR Ca4f3
ENCODING 42227
SWIDTH 666 0
DWIDTH 24 0
BBX 24 24 0 -2
BITMAP
006000
007800
00f800
01f800
07e000
3ff000
7c7000
387780
387f80
39fe00
3ff800
3e3800
381c00
389c00
31ce00
338f0c
3f070c
7e03cc
7c01ec
7800fc
30007e
00003e
00001e
000000
ENDCHAR
STARTCHAR Ca4f4
ENCODING 42228
SWIDTH 666 0
DWIDTH 24 0
BBX 24 24 0 -2
BITMAP
00c000
00e000
00f000
007000
006180
0061c0
0061c0
0063c0
076700
1f6e00
ff7c00
e67c00
0e6700
0c6780
1c63e0
3871f8
3870fe
70707f
e07038
c17000
01f000
00f000
007000
006000
ENDCHAR
STARTCHAR Ca4f5
ENCODING 42229
SWIDTH 666 0
DWIDTH 24 0
BBX 24 24 0 -2
BITMAP
000000
030000
03c000
01c000
01c000
01c600
01c700
01c700
61df00
39fc00
3df000
1dc000
1dc000
03f000
03b800
031c00
070e00
060700
0c03c0
1803f0
3001fc
6000fe
000000
000000
ENDCHAR
STARTCHAR Ca4f6
ENCODING 42230
SWIDTH 666 0
DWIDTH 24 0
BBX 24 24 0 -2
BITMAP
000000
000f00
000780
000f80
001f00
007c00
07f000
07f000
037800
037c00
037c00
033600
033700
073380
077180
0671c0
0e70e0
0c70f0
1c707c
38707f
70703f
e07000
803000
000000
ENDCHAR
STARTCHAR Ca4f7
ENCODING 42231
SWIDTH 666 0
DWIDTH 24 0
BBX 24 24 0 -2
BITMAP
000000
000000
000780
0387e0
0381f0
0780f8
0f0030
3c0e00
380f00
070e00
01ce00
00fc00
007800
003800
007c00
00ee00
03c780
0783c0
1f01f0
3c00fe
f0007f
80003f
000000
000000
ENDCHAR
STARTCHAR Ca4f8
ENCODING 42232
SWIDTH 666 0
DWIDTH 24 0
BBX 24 24 0 -2
BITMAP
000000
001c00
001c00
0e1c00
0ff800
01f800
00fc00
03df00
078700
1e0300
183800
003c00
003c00
1e7800
0ff000
01e000
01f000
03bc00
0f1f00
1e0f80
7803f0
6001fe
0000fe
000000
ENDCHAR
STARTCHAR Ca4f9
ENCODING 42233
SWIDTH 666 0
DWIDTH 24 0
BBX 24 24 0 -2
BITMAP
0001c0
0001e0
0000e0
00f0e0
0070e0
0070e0
0070e0
007fe0
007e00
007000
007000
0073e0
007fe0
0070e0
0060e0
00e0e0
00e0e0
01c0e0
01c0e0
0380e0
0700e0
0e00e0
0000e0
000060
ENDCHAR
STARTCHAR Ca4fa
ENCODING 42234
SWIDTH 666 0
DWIDTH 24 0
BBX 24 24 0 -2
BITMAP
000380
007fc0
01ffc0
03ce00
038600
038600
0307fc
077ffc
3ffe0c
3e1e00
003e00
007f00
00f700
01e700
03c700
070700
1e0700
380700
700700
007f00
003f00
001f00
000e00
000000
ENDCHAR
STARTCHAR Ca4fb
ENCODING 42235
SWIDTH 666 0
DWIDTH 24 0
BBX 24 24 0 -2
BITMAP
007800
003c00
001c00
001800
071800
039fc0
07ffc0
07f800
0e1800
1c1800
0018fc
00fffe
fff87e
fe3800
703800
003800
003800
003800
003800
003800
003800
003800
003800
003800
ENDCHAR
STARTCHAR Ca4fc
ENCODING 42236
SWIDTH 666 0
DWIDTH 24 0
BBX 24 24 0 -2
BITMAP
000000
00c000
00e000
00f700
006780
006380
006180
006000
006fc0
01ffc0
3fe000
18e000
00f000
01f800
019c00
038e00
070700
0e0780
1c03c0
3801f0
f001fe
0000fe
000000
000000
ENDCHAR
STARTCHAR Ca4fd
ENCODING 42237
SWIDTH 666 0
DWIDTH 24 0
BBX 24 24 0 -2
BITMAP
000000
000000
000180
003fe0
07ffe0
03fc00
001c00
001c00
001c00
001800
001fc0
03ffe0
03f800
001800
001800
001800
003800
00387c
e7ffff
ffffff
7c0000
000000
000000
000000
ENDCHAR
STARTCHAR Ca4fe
ENCODING 42238
SWIDTH 666 0
DWIDTH 24 0
BBX 24 24 0 -2
BITMAP
000000
000000
0007c0
007fe0
0fffc0
077000
003000
003000
0073fc
73fffc
7ff01c
38601c
30f81c
38de1c
39cf18
3b8738
3f0338
380038
3801f8
1801f8
0000f0
000070
000000
000000
ENDCHAR
STARTCHAR Ca540
ENCODING 42304
SWIDTH 666 0
DWIDTH 24 0
BBX 24 24 0 -2
BITMAP
000000
000000
000000
0031c0
0439e0
0f38e0
0738e0
0738e0
0738c0
073fff
ffffff
fff9cf
7f39c0
073980
073f80
071e00
070000
070080
07fff0
03fff0
010000
000000
000000
000000
ENDCHAR
STARTCHAR Ca541
ENCODING 42305
SWIDTH 666 0
DWIDTH 24 0
BBX 24 24 0 -2
BITMAP
000000
000000
0000f0
001ff8
1fff80
1f8e00
000e00
007c00
003800
003800
007800
00f800
01d980
0399f8
0718fe
1c183e
38180e
701800
001800
001800
07ffe0
07fff0
000000
000000
ENDCHAR
STARTCHAR Ca542
ENCODING 42306
SWIDTH 666 0
DWIDTH 24 0
BBX 24 24 0 -2
BITMAP
000000
000000
000700
03ff80
03fb80
038380
038380
038380
03fb80
03fb80
038380
038380
03bb80
03fb80
03f380
038380
038380
0383bc
07fffe
ffffff
fe000f
400000
000000
000000
ENDCHAR
STARTCHAR Ca543
ENCODING 42307
SWIDTH 666 0
DWIDTH 24 0
BBX 24 24 0 -2
BITMAP
000000
000800
001c00
001e00
003e00
007800
00e000
03c000
0f0000
0701e0
071fe0
07ffe0
07e700
070700
030700
030600
030600
030600
030ffe
1ffffe
ffe07f
f00000
000000
000000
ENDCHAR
STARTCHAR Ca544
ENCODING 42308
SWIDTH 666 0
DWIDTH 24 0
BBX 24 24 0 -2
BITMAP
000000
000000
007000
007c00
003c00
001c00
000c00
0007e0
07fff0
0ffc00
073800
001800
003f80
07ffc0
07ff80
033800
003800
003800
003838
fffffe
fffffe
780006
000000
000000
ENDCHAR
STARTCHAR Ca545
ENCODING 42309
SWIDTH 666 0
DWIDTH 24 0
BBX 24 24 0 -2
BITMAP
01c000
01e000
01e000
01e000
03c07c
078ffe
0ffffc
1ef800
3c1800
701860
601ff0
001fe0
001800
001800
001870
001ff8
001fe0
001800
001800
001800
003800
003800
003800
001800
ENDCHAR
STARTCHAR Ca546
ENCODING 42310
SWIDTH 666 0
DWIDTH 24 0
BBX 24 24 0 -2
BITMAP
001000
003c00
003c00
007c00
01f000
07c000
0ff180
0077c0
003fe0
03f7c0
7f9f00
7e3c00
10f800
01e000
078000
3e0000
ff0000
e3e000
00fc00
003f80
000fff
0003ff
0001fc
000000
ENDCHAR
STARTCHAR Ca547
ENCODING 42311
SWIDTH 666 0
DWIDTH 24 0
BBX 24 24 0 -2
BITMAP
000e00
000e00
003f00
00fc00
03f0c0
0731e0
0c39e0
0f1fc0
079f00
039c7c
007ffe
0fffff
ff1800
f01800
001800
001c00
001c00
001c00
001c00
001800
01f800
01f800
007800
003800
ENDCHAR
STARTCHAR Ca548
ENCODING 42312
SWIDTH 666 0
DWIDTH 24 0
BBX 24 24 0 -2
BITMAP
000000
000000
000000
000030
01c038
01f03c
00f038
303038
380070
384070
18c0e0
19c0e0
1b81c0
3f03c0
3e03f0
3c077c
7c0e3e
781c1e
70380e
307006
000000
000000
000000
000000
ENDCHAR
STARTCHAR Ca549
ENCODING 42313
SWIDTH 666 0
DWIDTH 24 0
BBX 24 24 0 -2
BITMAP
01c0e0
01e0f0
01e070
01c070
038070
078070
07007f
0f03ff
1f7fff
3b7c70
730070
e31c70
c31e70
030e70
030670
030070
030070
070070
070070
0703f0
0303f0
0001f0
0000f0
000060
ENDCHAR
STARTCHAR Ca54a
ENCODING 42314
SWIDTH 666 0
DWIDTH 24 0
BBX 24 24 0 -2
BITMAP
000000
0300e0
0387f0
03bff0
073ce0
0e01c0
0e0180
1c0300
3e038e
7601ff
661fff
c6ff80
06e180
060180
060180
0e01c0
0e0180
0e0180
0e0180
0e0f80
060780
000380
000100
000000
ENDCHAR
STARTCHAR Ca54b
ENCODING 42315
SWIDTH 666 0
DWIDTH 24 0
BBX 24 24 0 -2
BITMAP
000000
010200
038780
03c380
038380
070380
070380
0e0380
1c0380
1c03be
3e07ff
77ff83
e7f380
860380
060380
060380
0e0398
0e07fc
0efffc
0e6000
0e0000
0e0000
040000
000000
ENDCHAR
STARTCHAR Ca54c
ENCODING 42316
SWIDTH 666 0
DWIDTH 24 0
BBX 24 24 0 -2
BITMAP
000000
070e00
038f00
038700
078700
070670
0e06f8
0e67f8
1c7770
1e7e70
3e7e70
76f660
e7e6e0
c7e6e0
8e6641
0e6601
0e6001
0e7003
0e3e07
0e1fff
0e07ff
0e0000
040000
000000
ENDCHAR
STARTCHAR Ca54d
ENCODING 42317
SWIDTH 666 0
DWIDTH 24 0
BBX 24 24 0 -2
BITMAP
000000
000400
000f00
030700
038700
038700
078600
0f06f8
0e0ff8
1cff80
3e7600
760600
e67e00
c63e00
061c00
0e1f00
0e1f80
0e3be0
0e70fc
0fe07f
0f803f
0e0000
000000
000000
ENDCHAR
STARTCHAR Ca54e
ENCODING 42318
SWIDTH 666 0
DWIDTH 24 0
BBX 24 24 0 -2
BITMAP
000e00
01cf00
01c700
01c678
03c73c
03871c
070730
0e0778
1e07f8
3e7f80
767f00
e60380
c60380
060180
0601c0
0601c0
0600e0
0600e2
060073
06007f
06003f
06001f
00000f
000007
ENDCHAR
STARTCHAR Ca54f
ENCODING 42319
SWIDTH 666 0
DWIDTH 24 0
BBX 24 24 0 -2
BITMAP
00e000
00f000
00f000
00f000
01f800
039c00
038e00
070700
0e8380
1ce1e0
1cf0f0
38707c
60043f
c03e1f
9fff00
1f9f00
0c1c00
003800
03f000
01e000
00f000
007000
003000
000000
ENDCHAR
STARTCHAR Ca550
ENCODING 42320
SWIDTH 666 0
DWIDTH 24 0
BBX 24 24 0 -2
BITMAP
030000
038000
03c000
038000
078380
0f03c0
0e01c0
1c01c0
3e0180
760180
660180
c6018e
86618e
06718e
06318e
0671fe
0677fe
067f0e
06780e
0e2004
0e0000
0e0000
060000
000000
ENDCHAR
STARTCHAR Ca551
ENCODING 42321
SWIDTH 666 0
DWIDTH 24 0
BBX 24 24 0 -2
BITMAP
018000
01c000
01c000
03c000
0380fe
073ffe
0e3f87
0e01c7
1e0186
3e7186
763b86
e63f8e
c61f0e
060f0e
06070e
06060e
060e0c
060c0c
061c1c
0638dc
0630f8
067078
066070
060020
ENDCHAR
STARTCHAR Ca552
ENCODING 42322
SWIDTH 666 0
DWIDTH 24 0
BBX 24 24 0 -2
BITMAP
000000
00f000
00f800
0073c0
003fe0
07ffc0
3ff000
1cec00
00ef00
01cf80
03ff80
0ff180
0fdc00
0ddc00
01d800
01d800
039800
071806
0f1806
1e180e
3c1c1f
f01fff
c007fe
000000
ENDCHAR
STARTCHAR Ca553
ENCODING 42323
SWIDTH 666 0
DWIDTH 24 0
BBX 24 24 0 -2
BITMAP
000000
000000
000f00
00ff80
0fe780
070700
070700
070600
033e00
03fe00
01f800
01dc00
01d800
039800
03b800
073806
0e3806
1c3806
38180f
701fff
e00fff
0001f0
000000
000000
ENDCHAR
STARTCHAR Ca554
ENCODING 42324
SWIDTH 666 0
DWIDTH 24 0
BBX 24 24 0 -2
BITMAP
007000
007800
003800
003880
003fc0
07fce0
07f8e0
0638e0
0638e0
063fc0
07fec0
07f8c0
0630fe
063fff
07ffff
ff80c0
f600c0
0600c0
0600c0
0607c0
0e03c0
0601c0
0601c0
000080
ENDCHAR
STARTCHAR Ca555
ENCODING 42325
SWIDTH 666 0
DWIDTH 24 0
BBX 24 24 0 -2
BITMAP
000000
000060
003ff0
0fff70
0f6630
066630
066630
066630
066630
06667f
07ffff
fff631
fe6630
0e6630
0c6630
0c6630
1c6c30
186c30
19ec30
30f8f0
30f8f0
601070
000030
000000
ENDCHAR
STARTCHAR Ca556
ENCODING 42326
SWIDTH 666 0
DWIDTH 24 0
BBX 24 24 0 -2
BITMAP
007000
007000
007000
00e780
00ff80
01f780
038f00
07fe00
0c7c00
003800
007e00
00e700
01c3c0
0781f0
0f78ff
1c7c7f
781c3f
e00c00
000000
00f000
007c00
003c00
001c00
000400
ENDCHAR
STARTCHAR Ca557
ENCODING 42327
SWIDTH 666 0
DWIDTH 24 0
BBX 24 24 0 -2
BITMAP
000000
000000
000000
000018
01cffc
7fc7fe
3ec71c
38c71c
38c71c
38c71c
18c71c
18ff1c
1cfe1c
1cc01c
1c0018
1c0038
1c1ff8
1ffff8
1f8038
0c0030
000000
000000
000000
000000
ENDCHAR
STARTCHAR Ca558
ENCODING 42328
SWIDTH 666 0
DWIDTH 24 0
BBX 24 24 0 -2
BITMAP
000000
007800
003c00
003c00
003800
003800
003860
0c3870
0e3870
0e3870
0e3ff0
0fffe0
1ff860
1e3800
0c3800
063860
073870
073870
073ff0
0ffff0
1ff870
1f8070
0c0060
000000
ENDCHAR
STARTCHAR Ca559
ENCODING 42329
SWIDTH 666 0
DWIDTH 24 0
BBX 24 24 0 -2
BITMAP
000000
000000
003f00
03ff80
038700
038700
038700
038700
018700
018700
0187fc
0387fe
7f821e
78001c
38001c
38001c
180038
1c0038
1c0078
1ffff8
0ffff0
0e0000
000000
000000
ENDCHAR
STARTCHAR Ca55a
ENCODING 42330
SWIDTH 666 0
DWIDTH 24 0
BBX 24 24 0 -2
BITMAP
00000c
00000e
00300e
00700e
01f00e
07c00e
1fc1ce
00c1ce
00fdce
01fdce
1fe1ce
7fc1ce
71c1ce
01808e
018006
038006
03000e
07000e
0e000e
0c000e
18003e
00003e
00001e
00000c
ENDCHAR
STARTCHAR Ca55b
ENCODING 42331
SWIDTH 666 0
DWIDTH 24 0
BBX 24 24 0 -2
BITMAP
000000
000000
000000
070000
038000
038000
030000
07f000
1ff81e
fe7fff
6e77cf
0e760e
0c670e
1c670c
18631c
38e3fc
30e380
67c300
c3c000
838000
010000
000000
000000
000000
ENDCHAR
STARTCHAR Ca55c
ENCODING 42332
SWIDTH 666 0
DWIDTH 24 0
BBX 24 24 0 -2
BITMAP
000000
000000
0001c0
0001e0
0000e0
01f0c0
3fe0cc
3f81fe
039fce
03898e
03838e
03030c
03170c
03f61c
0fce1c
7f0c18
781c38
003838
003170
0061f0
00c0f0
000060
000000
000000
ENDCHAR
STARTCHAR Ca55d
ENCODING 42333
SWIDTH 666 0
DWIDTH 24 0
BBX 24 24 0 -2
BITMAP
000000
030000
038000
038000
070f00
0fff00
1f8700
380600
60c600
07ce00
3ece00
38cc00
1bbc00
1fbc00
181800
18000c
18000c
18000c
18000c
1c001e
0ffffe
07fffe
000000
000000
ENDCHAR
STARTCHAR Ca55e
ENCODING 42334
SWIDTH 666 0
DWIDTH 24 0
BBX 24 24 0 -2
BITMAP
00c000
00e000
01e000
01c000
0387f8
07fffc
0ee1dc
1ce1dc
38e39c
77c798
038718
03ee38
077c38
0e3c38
1c3e30
307ff0
20e7f0
03c3f0
0700e0
0e00e0
1807e0
0003c0
0003c0
000300
ENDCHAR
STARTCHAR Ca55f
ENCODING 42335
SWIDTH 666 0
DWIDTH 24 0
BBX 24 24 0 -2
BITMAP
000000
000000
000e00
030f00
038700
038700
038700
038600
038600
038678
0f87f8
3f87e0
3b8600
038600
038600
03c604
03c606
078606
1f060e
fe07ff
7803ff
30007c
000000
000000
ENDCHAR
STARTCHAR Ca560
ENCODING 42336
SWIDTH 666 0
DWIDTH 24 0
BBX 24 24 0 -2
BITMAP
0007f0
33fff0
3ffe00
3e3800
303800
303800
301b80
303fc0
37f9e0
33b9c0
3339c0
3339c0
3339c0
333fc0
333bc0
333b80
303900
303800
303800
3031f0
33fffc
3ffffc
3e0000
200000
ENDCHAR
STARTCHAR Ca561
ENCODING 42337
SWIDTH 666 0
DWIDTH 24 0
BBX 24 24 0 -2
BITMAP
000080
0300e0
0381e0
0387e0
039f80
073f80
0e0380
1e0386
1c03ff
3e3fff
77ff80
e6e380
860380
060180
0e0380
0e0180
0e0380
0e0380
0e0380
0e0180
0e0180
040180
000180
000000
ENDCHAR
STARTCHAR Ca562
ENCODING 42338
SWIDTH 666 0
DWIDTH 24 0
BBX 24 24 0 -2
BITMAP
007800
007800
0039c0
0039e0
0f3bc0
0f3380
07b600
003f80
003fc0
0ff800
0f3000
003038
003ffc
0ffffe
7f3000
703000
003000
003000
003800
003800
003800
003800
003000
003000
ENDCHAR
STARTCHAR Ca563
ENCODING 42339
SWIDTH 666 0
DWIDTH 24 0
BBX 24 24 0 -2
BITMAP
001c00
001c00
001c00
001800
001800
001fc0
03f800
001800
0119c0
0398c0
0198fe
01ffff
7fc0c0
f980c0
0180c0
0180c0
0300c0
0300c0
0700c0
0600c0
0c00c0
1800c0
1000c0
0000c0
ENDCHAR
STARTCHAR Ca564
ENCODING 42340
SWIDTH 666 0
DWIDTH 24 0
BBX 24 24 0 -2
BITMAP
007000
007800
003800
003be0
003fe0
003e00
003000
003000
00300c
003fff
07ffff
fff800
f03800
003f00
0037c0
0033c0
0030c0
003000
003000
003000
003000
003000
003000
003000
ENDCHAR
STARTCHAR Ca565
ENCODING 42341
SWIDTH 666 0
DWIDTH 24 0
BBX 24 24 0 -2
BITMAP
000000
007000
007800
003000
003000
003000
003000
0037c0
003fc0
003000
003000
003000
003000
0030c0
003fe0
0ffcf0
0f00e0
0701c0
0701c0
030180
030380
03ff80
01c000
000000
ENDCHAR
STARTCHAR Ca566
ENCODING 42342
SWIDTH 666 0
DWIDTH 24 0
BBX 24 24 0 -2
BITMAP
020000
038000
03c000
070038
0e01fc
7b9f9c
71be1c
318e18
318e18
338e38
378ff8
3d8ff8
3d8e70
3b8e20
130e00
030e00
060e00
060e00
0c0e00
180e00
300e00
000e00
000e00
000400
ENDCHAR
STARTCHAR Ca567
ENCODING 42343
SWIDTH 666 0
DWIDTH 24 0
BBX 24 24 0 -2
BITMAP
000400
000700
000f00
003f00
00fc00
0fe000
0f8000
0600f8
060ff8
07ff00
07c000
060780
067f80
0e7180
0c3180
0c3380
183f80
183704
303306
703006
60300e
c01fff
800ffe
0003f0
ENDCHAR
STARTCHAR Ca568
ENCODING 42344
SWIDTH 666 0
DWIDTH 24 0
BBX 24 24 0 -2
BITMAP
001000
003800
003c00
001c00
001c00
001800
001f80
00ff80
03f800
001800
001800
001800
001fff
07ffff
fff000
f07000
00e200
00c380
01c3c0
039fe0
0ff8e0
0fc0e0
060060
000000
ENDCHAR
STARTCHAR Ca569
ENCODING 42345
SWIDTH 666 0
DWIDTH 24 0
BBX 24 24 0 -2
BITMAP
000000
0001fe
01fffe
ffff8e
7c0380
007b80
1ffb80
1e3b80
0e3380
067380
07f380
070380
000380
000380
000380
000380
000380
000380
003b80
001f80
000f80
000700
000300
000000
ENDCHAR
STARTCHAR Ca56a
ENCODING 42346
SWIDTH 666 0
DWIDTH 24 0
BBX 24 24 0 -2
BITMAP
000000
007800
003c00
003800
003800
003800
003800
00387e
003fff
0ffc00
ff3800
783800
003800
0039c0
003fe0
03f8e0
0380e0
0180c0
01c1c0
01c1c0
00ffc0
00fc00
004000
000000
ENDCHAR
STARTCHAR Ca56b
ENCODING 42347
SWIDTH 666 0
DWIDTH 24 0
BBX 24 24 0 -2
BITMAP
000000
003800
003c00
001c00
003800
003800
00383c
03fffe
ffffff
7e7000
20e000
01c000
01c000
0383c0
07ffe0
0ff0f0
1dc0e0
38c0e0
20c0c0
00e1c0
00ffc0
00ffc0
004000
000000
ENDCHAR
STARTCHAR Ca56c
ENCODING 42348
SWIDTH 666 0
DWIDTH 24 0
BBX 24 24 0 -2
BITMAP
000000
000060
0007f0
07fff8
07f870
033870
007870
0070e0
00e0e0
01e1c0
01cfc0
038fc0
070780
0e0340
1e1ff0
03fff0
03c0f0
0180e0
0180e0
01c0c0
01ffc0
01ffc0
00c000
000000
ENDCHAR
STARTCHAR Ca56d
ENCODING 42349
SWIDTH 666 0
DWIDTH 24 0
BBX 24 24 0 -2
BITMAP
000000
000000
00001e
0301ff
0ffffe
fdf980
7381c0
7381c0
3381c0
3f81c0
1801c0
1001c0
0001c0
0001c0
0001c0
0001c0
0001c0
000fc0
0007c0
000380
000180
000000
000000
000000
ENDCHAR
STARTCHAR Ca56e
ENCODING 42350
SWIDTH 666 0
DWIDTH 24 0
BBX 24 24 0 -2
BITMAP
000000
000000
00001c
03c1fe
4fefce
7def0e
71c70e
31c30c
39c31c
1fc37c
1c033c
180318
000300
000300
000300
000300
000700
000700
000700
000300
000300
000300
000000
000000
ENDCHAR
STARTCHAR Ca56f
ENCODING 42351
SWIDTH 666 0
DWIDTH 24 0
BBX 24 24 0 -2
BITMAP
000000
000000
000000
00000c
02007e
0fcffe
ffdf8e
f3838e
63838e
63830c
63870c
7f860c
780e1c
200c1c
001c1c
003818
007038
00e1f8
01c0f0
0000f0
000060
000000
000000
000000
ENDCHAR
STARTCHAR Ca570
ENCODING 42352
SWIDTH 666 0
DWIDTH 24 0
BBX 24 24 0 -2
BITMAP
000000
00000e
0000ff
003ff7
003f87
0fbc07
ff8007
f38007
e380c7
e301c6
630386
7f0706
780e06
607c0e
00780e
00780c
00300c
00001c
00007c
00007c
000038
000038
000030
000000
ENDCHAR
STARTCHAR Ca571
ENCODING 42353
SWIDTH 666 0
DWIDTH 24 0
BBX 24 24 0 -2
BITMAP
0000e0
02fff0
07fc70
030070
000070
007c70
0ffc70
070070
000060
00fc70
1ffc70
0e1c70
0e1c70
061870
07f870
078070
020070
000070
000070
0003f0
0003f0
0001f0
0000e0
000000
ENDCHAR
STARTCHAR Ca572
ENCODING 42354
SWIDTH 666 0
DWIDTH 24 0
BBX 24 24 0 -2
BITMAP
0001f0
01fff8
3ffe30
1e0000
0c0000
0c0000
0c0200
0c1f80
0cffc0
0ce3c0
0ce380
0c6380
0c6380
0c6300
0c7f00
0c7e00
0c0000
1c0000
1c0000
1c0078
1cfffc
1ffffc
0f8000
0c0000
ENDCHAR
STARTCHAR Ca573
ENCODING 42355
SWIDTH 666 0
DWIDTH 24 0
BBX 24 24 0 -2
BITMAP
000070
000078
000038
000038
000038
01c638
37e730
3ee730
18e630
1cce30
0dccf0
0f9ff0
0c3f30
0c3830
003030
000030
000030
000030
000030
000030
000030
000030
000030
000030
ENDCHAR
STARTCHAR Ca574
ENCODING 42356
SWIDTH 666 0
DWIDTH 24 0
BBX 24 24 0 -2
BITMAP
0001c0
001ff0
03fcf0
0180f0
0180e0
0181c0
00c1c0
00df80
00fc00
005c00
001c40
001ff0
03fe70
0ff870
067070
0070e0
00e0e0
01c0c0
0381c0
0709c0
0e0f80
0c0f00
000700
000000
ENDCHAR
STARTCHAR Ca575
ENCODING 42357
SWIDTH 666 0
DWIDTH 24 0
BBX 24 24 0 -2
BITMAP
000000
000000
000fc0
04ffc0
07e1c0
0701c0
030380
038380
038380
019f00
01ff00
01c000
000000
000000
018380
03c1c0
03c0f0
070078
0e0078
1c003c
380018
200000
000000
000000
ENDCHAR
STARTCHAR Ca576
ENCODING 42358
SWIDTH 666 0
DWIDTH 24 0
BBX 24 24 0 -2
BITMAP
000000
01e000
00e000
00e000
00e000
006f80
1bffc0
1fe3c0
1c6380
0c6300
0e6700
07ff00
67e000
78c000
0ec000
03c000
03e000
037800
071e00
1e0fc0
3807fe
e001ff
0000f0
000000
ENDCHAR
STARTCHAR Ca577
ENCODING 42359
SWIDTH 666 0
DWIDTH 24 0
BBX 24 24 0 -2
BITMAP
000000
006000
007000
003800
003800
003000
0030c0
0f30e0
3fb1e0
f3b1c0
c3b380
633700
673c00
7f3800
387000
20f000
003006
003006
003006
003806
001f1f
000fff
0003fc
000000
ENDCHAR
STARTCHAR Ca578
ENCODING 42360
SWIDTH 666 0
DWIDTH 24 0
BBX 24 24 0 -2
BITMAP
003800
003c00
003c00
003800
007000
00e000
00e080
01c0e0
038070
377ff8
3fffbc
1fe03c
0c001c
0001c0
0fffe0
07f1e0
0701e0
0701c0
0301c0
0381c0
03bf80
03ff80
018000
010000
ENDCHAR
STARTCHAR Ca579
ENCODING 42361
SWIDTH 666 0
DWIDTH 24 0
BBX 24 24 0 -2
BITMAP
00e000
00f000
00f000
01e000
01c078
038ffc
07ff1c
0fe01c
1c0018
381c38
00fe38
0fde38
0e0c38
061c38
061c38
07fc38
03f030
030030
000070
000770
0003f0
0001e0
0000e0
000000
ENDCHAR
STARTCHAR Ca57a
ENCODING 42362
SWIDTH 666 0
DWIDTH 24 0
BBX 24 24 0 -2
BITMAP
000000
000000
000000
000000
003000
003800
001c00
000e00
0f0600
ff6300
f77380
677180
6771c0
7fe0e0
78c0f0
318078
03807e
07003f
0e001f
080000
000000
000000
000000
000000
ENDCHAR
STARTCHAR Ca57b
ENCODING 42363
SWIDTH 666 0
DWIDTH 24 0
BBX 24 24 0 -2
BITMAP
000000
0001c0
0000e0
0000e0
0000e0
0300e0
1f80c0
ff81cc
7381fe
777ffe
3f7f8e
3f1b8e
30038c
00031c
00071c
00071c
000e18
001c38
001c38
0039f8
0070f0
00e070
038020
000000
ENDCHAR
STARTCHAR Ca57c
ENCODING 42364
SWIDTH 666 0
DWIDTH 24 0
BBX 24 24 0 -2
BITMAP
000000
000000
000000
000000
000010
003ffc
0fffde
7fdc1e
71cc1c
318c1c
318ddc
3b8fdc
3b031c
180018
180038
1807f8
1dfff8
0fe070
0c0070
000020
000000
000000
000000
000000
ENDCHAR
STARTCHAR Ca57d
ENCODING 42365
SWIDTH 666 0
DWIDTH 24 0
BBX 24 24 0 -2
BITMAP
000000
000060
000ff0
1fff38
1f0038
0c1838
1c1c38
1c1c30
1c1830
1c3830
183030
187038
187c38
18cf38
198738
1b03b8
1a01b8
180038
181ff8
1ffff8
1c0078
000030
000010
000000
ENDCHAR
STARTCHAR Ca57e
ENCODING 42366
SWIDTH 666 0
DWIDTH 24 0
BBX 24 24 0 -2
BITMAP
001800
001e00
0c0e00
0e0e00
0e0e00
0f8e00
1fce00
1fee00
39ce00
71ce00
fb8f80
5f8fe0
0f0efe
0e0e7f
0e0e3f
1c0e00
380e00
300e00
600e00
c00e00
000e00
000e00
000e00
000400
ENDCHAR
STARTCHAR Ca5a1
ENCODING 42401
SWIDTH 666 0
DWIDTH 24 0
BBX 24 24 0 -2
BITMAP
000000
007000
007800
003800
003000
003380
187fc0
1ff9c0
0f33c0
063380
067380
0773fe
03ffff
fff00f
fce000
60c000
01c700
0183c0
0381e0
0700f0
1e00f0
180070
000030
000000
ENDCHAR
STARTCHAR Ca5a2
ENCODING 42402
SWIDTH 666 0
DWIDTH 24 0
BBX 24 24 0 -2
BITMAP
00e000
00f000
007000
007000
077000
077400
077f00
0fff00
1ff000
386000
306180
206fe0
01ffe0
3ff000
7cf000
00d800
01ce00
038700
078780
0f03e0
1e01f0
7800fe
f0007f
00001c
ENDCHAR
STARTCHAR Ca5a3
ENCODING 42403
SWIDTH 666 0
DWIDTH 24 0
BBX 24 24 0 -2
BITMAP
000000
000000
000000
01c000
01c000
01c000
0180f0
0183f8
030f70
037c70
03fce0
1f76e0
fe63c0
e6e3c0
06c3c0
03c3e0
03c670
07ec7c
1e703f
78701f
603003
000000
000000
000000
ENDCHAR
STARTCHAR Ca5a4
ENCODING 42404
SWIDTH 666 0
DWIDTH 24 0
BBX 24 24 0 -2
BITMAP
000000
000000
030000
038060
0301f8
073ff0
063e60
06c6e0
07e6ce
1fceff
fdcfe7
ff8cce
3b8c0e
0f1c0e
0f980e
1fb81c
19b01c
30f01c
e060b8
00c0f8
0180f0
030070
000000
000000
ENDCHAR
STARTCHAR Ca5a5
ENCODING 42405
SWIDTH 666 0
DWIDTH 24 0
BBX 24 24 0 -2
BITMAP
000180
0007c0
007fc0
03f3c0
01f300
0077f0
00e3f8
01c038
03fe70
077f70
0e0fe0
1c1dc0
001cc0
001ffe
ffffff
7f8607
000600
000600
000600
000e00
005e00
00fe00
003c00
000800
ENDCHAR
STARTCHAR Ca5a6
ENCODING 42406
SWIDTH 666 0
DWIDTH 24 0
BBX 24 24 0 -2
BITMAP
000000
00e000
00f000
007000
0071f0
30fff8
3fe0fc
7c00f8
700000
700000
670300
078780
038f80
033e00
077800
07e000
078008
060008
02001c
03003c
03fffe
00fffc
000000
000000
ENDCHAR
STARTCHAR Ca5a7
ENCODING 42407
SWIDTH 666 0
DWIDTH 24 0
BBX 24 24 0 -2
BITMAP
000000
000780
00ffc0
07e380
060380
070300
070f00
07ff00
078000
067300
067380
0e7780
0c6f00
0c7e00
1c7800
186004
186006
306006
706006
60600f
c07fff
803fff
0003f8
000000
ENDCHAR
STARTCHAR Ca5a8
ENCODING 42408
SWIDTH 666 0
DWIDTH 24 0
BBX 24 24 0 -2
BITMAP
000000
000180
180fc0
1fffc0
0fe000
0e0000
0e0000
0e0fc0
0fffc0
0fe1c0
0c01c0
0c0380
0c0380
0fff80
0ff000
0c0000
0c0000
0c00e0
0c3ff0
1ffff0
0f8000
0c0000
000000
000000
ENDCHAR
STARTCHAR Ca5a9
ENCODING 42409
SWIDTH 666 0
DWIDTH 24 0
BBX 24 24 0 -2
BITMAP
000000
000000
00003c
03c3fe
3ffffe
3f0700
070700
070600
060e70
06fff8
079f3c
1f1c38
7c0038
700038
000030
000070
000070
0008e0
000fe0
0007e0
0003c0
000180
000000
000000
ENDCHAR
STARTCHAR Ca5aa
ENCODING 42410
SWIDTH 666 0
DWIDTH 24 0
BBX 24 24 0 -2
BITMAP
000000
003800
003c00
003800
0038c0
003ff0
03fff0
0ff000
067000
00e000
00e000
00c000
01c3c0
01bfc0
03fc00
070e00
060c00
0e0c00
1c0c00
380dfc
73fffe
67f80e
030000
000000
ENDCHAR
STARTCHAR Ca5ab
ENCODING 42411
SWIDTH 666 0
DWIDTH 24 0
BBX 24 24 0 -2
BITMAP
007000
007800
003800
001800
000bfe
01ffff
fff800
fc3800
0018c0
0c3fe0
0ffcf0
071860
061860
0638e0
0738e0
073ae0
073be0
0339c0
0038c0
003800
003800
003800
003800
003800
ENDCHAR
STARTCHAR Ca5ac
ENCODING 42412
SWIDTH 666 0
DWIDTH 24 0
BBX 24 24 0 -2
BITMAP
003800
003c00
001c00
00387c
003ffe
3ffffe
7f7000
38ee00
00ce00
01cff0
03fff0
03fc70
07ec70
0eec60
38ede0
706ce0
606c60
000c00
000c00
000c00
000c00
000c00
000c00
000400
ENDCHAR
STARTCHAR Ca5ad
ENCODING 42413
SWIDTH 666 0
DWIDTH 24 0
BBX 24 24 0 -2
BITMAP
000380
001fc0
07ff80
07f8c0
0c38e0
0f39e0
073bc0
07bf00
03b818
003ffe
07fffe
ffb80e
783800
003800
003800
003800
003800
003800
003800
003800
003800
003800
003800
003000
ENDCHAR
STARTCHAR Ca5ae
ENCODING 42414
SWIDTH 666 0
DWIDTH 24 0
BBX 24 24 0 -2
BITMAP
000000
020000
038000
038180
0381c0
0761c0
0e61c0
0ce180
19c1bc
7187fe
7f9f9c
77031c
06071c
0d8618
18ce38
3fec38
7efc30
383870
003370
0063e0
00c1e0
0181c0
000000
000000
ENDCHAR
STARTCHAR Ca5af
ENCODING 42415
SWIDTH 666 0
DWIDTH 24 0
BBX 24 24 0 -2
BITMAP
007000
003800
003800
007e00
00f780
00efc0
01ffc0
07ffc0
07c7c0
00c700
00e70c
00ffff
1fffff
ffe700
f8c700
00c300
01c700
018700
038700
070700
0e0700
0c0700
000700
000200
ENDCHAR
STARTCHAR Ca5b0
ENCODING 42416
SWIDTH 666 0
DWIDTH 24 0
BBX 24 24 0 -2
BITMAP
000000
000000
03c000
1fe380
1dc3c0
01c3c0
018380
0f8380
1f0700
180700
180600
3b0e00
3f8c60
7b8c30
73983c
033bfc
077f9c
077e1c
063800
3e0000
3e0000
1c0000
000000
000000
ENDCHAR
STARTCHAR Ca5b1
ENCODING 42417
SWIDTH 666 0
DWIDTH 24 0
BBX 24 24 0 -2
BITMAP
001c00
039c00
03dc80
01dfe0
03ffe0
07fde0
07cdc0
00ffc0
1fff80
1fcc30
1ccff8
1cfffc
3ffc38
3fcc38
3dcc70
018df0
038df0
039ce0
071c00
0e1c00
0c1c00
001c00
001c00
001c00
ENDCHAR
STARTCHAR Ca5b2
ENCODING 42418
SWIDTH 666 0
DWIDTH 24 0
BBX 24 24 0 -2
BITMAP
000000
000000
000300
000380
010380
01e380
01e700
00e700
000e00
000e7c
021c3e
221c1e
33380e
73b800
71f000
71e070
61f038
01fffc
039ffc
0e07fc
1c0000
180000
000000
000000
ENDCHAR
STARTCHAR Ca5b3
ENCODING 42419
SWIDTH 666 0
DWIDTH 24 0
BBX 24 24 0 -2
BITMAP
007800
0039c0
0039f0
0018f0
001830
001dc0
001fe0
00fe00
0fec00
060e60
060e70
0606f0
0e07e0
0e07c0
0c0780
0c0f80
1c1dc0
1879e2
30e0f2
70007e
60003e
40001e
00000e
000006
ENDCHAR
STARTCHAR Ca5b4
ENCODING 42420
SWIDTH 666 0
DWIDTH 24 0
BBX 24 24 0 -2
BITMAP
000000
070000
078000
030000
030000
030000
03400e
07e1ff
3fffff
7f7ce0
03c0e0
0380e0
0700e0
1f00e0
ff00e0
fb00e0
e700e0
0700e0
1f00e0
1f07e0
0f07e0
0603c0
0001c0
000000
ENDCHAR
STARTCHAR Ca5b5
ENCODING 42421
SWIDTH 666 0
DWIDTH 24 0
BBX 24 24 0 -2
BITMAP
000000
070000
078000
038000
0300f8
031ff8
03ff30
1fe770
7f0770
23277f
03e6ff
078647
1f0e06
ff0c06
f31c0e
63180e
03380e
03300c
07601c
1fc01c
0e80fc
060078
000078
000000
ENDCHAR
STARTCHAR Ca5b6
ENCODING 42422
SWIDTH 666 0
DWIDTH 24 0
BBX 24 24 0 -2
BITMAP
000000
000000
0e0000
0e0000
0e0000
060000
061c00
0f9e00
7f8600
7e0300
06b380
07b980
0f39c0
1e70e0
7e7070
fe6078
eee03c
0fc03f
0f801f
3f0000
1e0000
0c0000
000000
000000
ENDCHAR
STARTCHAR Ca5b7
ENCODING 42423
SWIDTH 666 0
DWIDTH 24 0
BBX 24 24 0 -2
BITMAP
000000
038700
038380
018380
018380
018380
01e380
07e380
7f8380
3983f8
01b3fe
01e19e
03c38f
0f8387
fd8380
f98380
618380
018380
038380
0f8380
078380
030380
000180
000000
ENDCHAR
STARTCHAR Ca5b8
ENCODING 42424
SWIDTH 666 0
DWIDTH 24 0
BBX 24 24 0 -2
BITMAP
000c00
000f00
003f00
00fc00
0ff000
0f8000
0e0070
0607f8
07fff8
07fc00
070c00
060c00
060f00
0e0fc0
0e0fe0
0c0ce0
0c0c00
1c0c00
180c00
380c00
300c00
000c00
000c00
000c00
ENDCHAR
STARTCHAR Ca5b9
ENCODING 42425
SWIDTH 666 0
DWIDTH 24 0
BBX 24 24 0 -2
BITMAP
000000
000000
000000
000780
03ffc0
03f1e0
0181c0
0181c0
019dc0
01fdc0
01f1c0
01c1c0
01c1c0
01df80
01ff80
00c100
000000
0003f8
7ffffe
fff8fe
780000
000000
000000
000000
ENDCHAR
STARTCHAR Ca5ba
ENCODING 42426
SWIDTH 666 0
DWIDTH 24 0
BBX 24 24 0 -2
BITMAP
00c000
00f000
00f200
006780
006380
006180
0067e0
007ff0
3ffff0
ffe000
786c00
077e00
076c00
076c00
076c00
066c08
0e6c0c
0e6c0c
1cee1c
38effe
30e7fe
00e000
00e000
006000
ENDCHAR
STARTCHAR Ca5bb
ENCODING 42427
SWIDTH 666 0
DWIDTH 24 0
BBX 24 24 0 -2
BITMAP
00e000
007000
007000
003000
003000
003380
003f80
03ff80
0ff000
0ef000
00f800
01fe00
03f700
0773c0
0631e0
1c70f8
387e7e
71ff3f
e7f01f
827000
007000
007000
007000
007000
ENDCHAR
STARTCHAR Ca5bc
ENCODING 42428
SWIDTH 666 0
DWIDTH 24 0
BBX 24 24 0 -2
BITMAP
00e000
00f000
006000
006e00
00fe00
07f000
076000
006700
007f80
07ff80
7fe000
79f000
03f800
07ee00
0f6700
1e63c0
3c61f0
7060fe
e0607f
00603f
03e000
03e000
01e000
00e000
ENDCHAR
STARTCHAR Ca5bd
ENCODING 42429
SWIDTH 666 0
DWIDTH 24 0
BBX 24 24 0 -2
BITMAP
00f000
007800
007000
003000
0031f0
01fff0
3ffc70
1c3000
003000
003700
00ff80
0ffb80
06f000
01fc00
03be00
073780
0e33e0
1c31f8
3870ff
e0707f
c07000
007000
007000
003000
ENDCHAR
STARTCHAR Ca5be
ENCODING 42430
SWIDTH 666 0
DWIDTH 24 0
BBX 24 24 0 -2
BITMAP
000000
0e0000
070000
071e00
070e00
070e00
06ee00
07ec00
7f8c00
fe0c00
6f8c00
1fdc00
1fdc00
3e1c00
761800
e61802
c61806
061c07
0e1c07
0e0fff
0e07ff
0e00fc
060000
000000
ENDCHAR
STARTCHAR Ca5bf
ENCODING 42431
SWIDTH 666 0
DWIDTH 24 0
BBX 24 24 0 -2
BITMAP
000000
000000
0001c0
001fe0
07ffe0
07fc00
011c00
001c00
001c00
001c00
0f1fe0
071fe0
071fc0
071c00
071c00
071c00
071c00
071c00
07fffe
ffffff
ff001f
600000
000000
000000
ENDCHAR
STARTCHAR Ca5c0
ENCODING 42432
SWIDTH 666 0
DWIDTH 24 0
BBX 24 24 0 -2
BITMAP
0000c0
000fe0
01fff0
01f870
01c060
01d8e0
01dce0
018ce0
0184e7
03ffff
7fffff
ff71c0
e739c0
0639c0
0e1980
1ff380
1ffff0
0c07f8
00077c
003f08
001e00
001e00
000c00
000000
ENDCHAR
STARTCHAR Ca5c1
ENCODING 42433
SWIDTH 666 0
DWIDTH 24 0
BBX 24 24 0 -2
BITMAP
001c00
007e00
07fe00
7f9e00
7c1c00
381c00
39fc00
3fe000
3ee000
3867c0
307fc0
33fe00
3ff000
3e3800
30b800
339c00
370e18
3e0f18
7c079c
7803dc
3001fc
0000fc
00003c
000000
ENDCHAR
STARTCHAR Ca5c2
ENCODING 42434
SWIDTH 666 0
DWIDTH 24 0
BBX 24 24 0 -2
BITMAP
000000
003000
003800
007c00
00f800
01e000
07f000
1e7200
1c7f00
1c7f00
1df800
1df800
1c1800
1c1c00
18ce00
1f8e00
1f0708
1e1b88
3ffdd8
3bf0f8
3000fc
00003c
000018
000000
ENDCHAR
STARTCHAR Ca5c3
ENCODING 42435
SWIDTH 666 0
DWIDTH 24 0
BBX 24 24 0 -2
BITMAP
00f000
00f800
007800
001800
003000
007800
03f000
07f180
0631e0
0033e0
07b7c0
1fbe00
7fbc00
773e00
0e3700
0c33c0
1c31f0
3830fc
70307f
c1f03f
01f000
00f000
007000
000000
ENDCHAR
STARTCHAR Ca5c4
ENCODING 42436
SWIDTH 666 0
DWIDTH 24 0
BBX 24 24 0 -2
BITMAP
000600
000f00
1e0700
0f0700
070700
000300
000300
0003fe
f83ffe
7dff00
1cc300
030300
020300
060300
060700
0e0700
0c0700
0c0700
3c0700
3c0300
180300
080300
000300
000300
ENDCHAR
STARTCHAR Ca5c5
ENCODING 42437
SWIDTH 666 0
DWIDTH 24 0
BBX 24 24 0 -2
BITMAP
000000
1c0000
1f0000
0f0000
03007c
001ffe
f1ff1e
79e300
380300
0b0300
030300
060300
060300
0e0300
0c0300
1c0300
7c0380
780380
381f80
380f80
000700
000300
000000
000000
ENDCHAR
STARTCHAR Ca5c6
ENCODING 42438
SWIDTH 666 0
DWIDTH 24 0
BBX 24 24 0 -2
BITMAP
000000
000000
1c0000
1f0000
0f03e0
077fe0
0079c0
e071c0
f871c0
386f80
186f80
066780
066300
0c6000
0c6002
1c6006
186006
787007
783e7f
703fff
3007fe
000000
000000
000000
ENDCHAR
STARTCHAR Ca5c7
ENCODING 42439
SWIDTH 666 0
DWIDTH 24 0
BBX 24 24 0 -2
BITMAP
000000
000000
030000
038000
7381e0
3f87e0
0e3ce0
1e38e0
3b18e0
7318c0
4719c0
0f37c0
0f3380
1b3180
333000
633002
c33002
031807
1f1e0f
1f0fff
0e03ff
060000
000000
000000
ENDCHAR
STARTCHAR Ca5c8
ENCODING 42440
SWIDTH 666 0
DWIDTH 24 0
BBX 24 24 0 -2
BITMAP
000000
007000
007800
003800
003800
003800
003ffe
ffffff
ffb01f
307300
00e380
01e780
03cf00
0fde00
0ffc00
077800
00e600
01c380
07ffc0
0fffe0
0fe0e0
0700e0
000040
000000
ENDCHAR
STARTCHAR Ca5c9
ENCODING 42441
SWIDTH 666 0
DWIDTH 24 0
BBX 24 24 0 -2
BITMAP
000000
000000
000000
001fc0
07ffc0
07f800
003800
003800
003800
003800
003f80
07ff80
07fbc0
0039e0
0038f0
003870
003800
003ffc
07ffff
ffffff
7e0006
000000
000000
000000
ENDCHAR
STARTCHAR Ca5ca
ENCODING 42442
SWIDTH 666 0
DWIDTH 24 0
BBX 24 24 0 -2
BITMAP
000000
000000
001c00
003e00
003e00
00f800
01e000
0f8000
0ec000
06f000
06f800
0ecc00
0ece00
0ec700
0ec380
0cc1c0
1cd9e0
18dcf8
38fe7c
71fe3f
e1e63f
c1c000
000000
000000
ENDCHAR
STARTCHAR Ca5cb
ENCODING 42443
SWIDTH 666 0
DWIDTH 24 0
BBX 24 24 0 -2
BITMAP
000000
001f00
00ff00
1ff000
0f8000
018000
038e00
03fe00
03ee00
030c00
070c00
07cc00
07ec00
0e6c00
0c0c00
0c3c04
1dee04
3f8704
ff038e
7c03fe
7000fe
00007e
00000c
000000
ENDCHAR
STARTCHAR Ca5cc
ENCODING 42444
SWIDTH 666 0
DWIDTH 24 0
BBX 24 24 0 -2
BITMAP
000000
000000
0003c0
0381e0
03c1e0
01c1e0
01c1c0
01c1c0
01c1fe
01ffff
ffffff
ffc1c1
71c1c0
01ddc0
01fdc0
01f9c0
01c1c0
01c1c0
01ffc0
01ffc0
01c3c0
000180
000000
000000
ENDCHAR
STARTCHAR Ca5cd
ENCODING 42445
SWIDTH 666 0
DWIDTH 24 0
BBX 24 24 0 -2
BITMAP
000000
003800
003c00
003c00
001c00
061c00
071c00
0f1fe0
0e7ff0
1fff00
3fd800
381800
701b80
003fc0
07ff80
07f800
001800
001800
001800
007ff8
7ffffc
7ff7fe
380004
000000
ENDCHAR
STARTCHAR Ca5ce
ENCODING 42446
SWIDTH 666 0
DWIDTH 24 0
BBX 24 24 0 -2
BITMAP
000000
0000f0
077ff8
07fc38
031c30
031c30
031fb0
03ffb0
03fc30
030c30
031c30
031fb0
07ffb0
07fc30
061c30
061c30
061c30
0c1c30
0c1c30
181df0
1808f0
000070
000030
000000
ENDCHAR
STARTCHAR Ca5cf
ENCODING 42447
SWIDTH 666 0
DWIDTH 24 0
BBX 24 24 0 -2
BITMAP
000000
000080
007fc0
0ffdc0
0e70c0
0c30c0
0c7ec0
0ffcc0
0ff0c0
0c71c0
0c7fc0
1fffc0
1f71c0
1861c0
1867c0
3863c0
306180
70600c
60700e
407c3e
003ffe
000ffc
000000
000000
ENDCHAR
STARTCHAR Ca5d0
ENCODING 42448
SWIDTH 666 0
DWIDTH 24 0
BBX 24 24 0 -2
BITMAP
000000
000000
000000
000000
001ff0
3ffffc
3fb83c
18383c
183838
183a38
187f38
1ffe38
1d3830
1c3870
1c3070
0c3070
0c7fe0
0fffe0
0e00e0
0000c0
000000
000000
000000
000000
ENDCHAR
STARTCHAR Ca5d1
ENCODING 42449
SWIDTH 666 0
DWIDTH 24 0
BBX 24 24 0 -2
BITMAP
000000
007000
007800
003800
003800
003800
003800
003830
007ffc
3ffffc
3fb83c
383838
1c3e38
1c3f38
1fff38
1df878
1c3870
1c3870
0c3b70
0ffff0
0fffe0
0600e0
0000c0
000000
ENDCHAR
STARTCHAR Ca5d2
ENCODING 42450
SWIDTH 666 0
DWIDTH 24 0
BBX 24 24 0 -2
BITMAP
000000
0001f0
003ff8
1ffc38
1f1838
0c1e70
0e7f70
0ff870
061870
0618e0
071fe0
03ffe0
039800
001800
001800
001800
001800
003800
003800
003800
003800
001800
001800
000000
ENDCHAR
STARTCHAR Ca5d3
ENCODING 42451
SWIDTH 666 0
DWIDTH 24 0
BBX 24 24 0 -2
BITMAP
007000
003800
003800
003800
003800
003bf0
10fff8
1ff838
1e3878
0c3f70
0dff70
0ef870
0e38e0
0618e0
07ffc0
07f8c0
031800
001800
001800
003800
003800
003800
001800
001800
ENDCHAR
STARTCHAR Ca5d4
ENCODING 42452
SWIDTH 666 0
DWIDTH 24 0
BBX 24 24 0 -2
BITMAP
000000
000180
000fc0
01ffe0
3fe3e0
1f7700
083e00
003c00
003800
003000
0e33c0
073fc0
073e00
063000
0f3000
0ff000
1cf000
383c00
300f80
7007f8
e001ff
c0007e
000000
000000
ENDCHAR
STARTCHAR Ca5d5
ENCODING 42453
SWIDTH 666 0
DWIDTH 24 0
BBX 24 24 0 -2
BITMAP
000000
004000
00f000
007000
00f000
00e000
01c000
038000
0707f0
0efff8
1ff078
1c0070
0c0070
0e0e60
0ffe60
0ff860
0e00e0
0600e0
0606e0
07ffe0
07f1c0
0300c0
000000
000000
ENDCHAR
STARTCHAR Ca5d6
ENCODING 42454
SWIDTH 666 0
DWIDTH 24 0
BBX 24 24 0 -2
BITMAP
006000
007800
007800
003800
003800
003fe0
087ff0
0ff9f0
0e3380
0e3000
0e3600
0e3f00
0fff00
0dc700
0cee00
0c7e00
1c3c00
181e00
383f00
30f3e0
71e1f8
6780ff
ce007f
000000
ENDCHAR
STARTCHAR Ca5d7
ENCODING 42455
SWIDTH 666 0
DWIDTH 24 0
BBX 24 24 0 -2
BITMAP
000000
000000
000000
000000
000000
000080
000ff0
3ffff0
3fdcf0
1ccce0
1ccce0
0cdce0
0cdcc0
0eddc0
0ed9c0
0efffe
7fffff
ff000e
e00000
000000
000000
000000
000000
000000
ENDCHAR
STARTCHAR Ca5d8
ENCODING 42456
SWIDTH 666 0
DWIDTH 24 0
BBX 24 24 0 -2
BITMAP
000000
000000
001fc0
07ffe0
03c1e0
0300c0
0300c0
03fcc0
03fcc0
0300c0
0300c0
039cc0
03fcc0
03c0c0
0380e0
0380e0
0380e0
03fee0
03ffe0
0381e0
0001e0
0000c0
000000
000000
ENDCHAR
STARTCHAR Ca5d9
ENCODING 42457
SWIDTH 666 0
DWIDTH 24 0
BBX 24 24 0 -2
BITMAP
000e00
00ff00
07ff00
038e00
00fc00
007800
0039f8
003ffc
07fe3e
7ffc7e
7e7c60
10fc00
01ec00
01cc00
078e00
0f0e00
1e0e00
780e00
e00e00
004e00
007e00
003e00
001c00
000c00
ENDCHAR
STARTCHAR Ca5da
ENCODING 42458
SWIDTH 666 0
DWIDTH 24 0
BBX 24 24 0 -2
BITMAP
000000
018000
01e000
01e000
03c7c0
03ffc0
07fe00
063800
0c3800
1838f8
003ff8
1ffff8
3fb000
187c00
007e00
00e700
00e380
01c3c0
0781e0
0f00f8
3e007f
f8003f
800018
000000
ENDCHAR
STARTCHAR Ca5db
ENCODING 42459
SWIDTH 666 0
DWIDTH 24 0
BBX 24 24 0 -2
BITMAP
000000
000000
0000f8
001ffc
03fff8
03fc00
001c00
003c00
003800
007800
007000
00e000
00e078
01c7fc
03ffbc
07703c
0e7038
1c7038
387038
703078
603ff8
003c00
000000
000000
ENDCHAR
STARTCHAR Ca5dc
ENCODING 42460
SWIDTH 666 0
DWIDTH 24 0
BBX 24 24 0 -2
BITMAP
000000
000000
000780
01ff80
01ff00
000000
000000
000008
0003fe
03ffff
fff802
7c1c00
001c00
031cc0
071cf0
0f1c78
0e1c3c
0e1c1c
0c7c08
007c00
003c00
001800
000000
000000
ENDCHAR
STARTCHAR Ca5dd
ENCODING 42461
SWIDTH 666 0
DWIDTH 24 0
BBX 24 24 0 -2
BITMAP
001c00
003e00
00fe00
01f800
0ff000
0ff000
0071c0
007ff0
03fff0
7ffee0
7ef000
31f000
03fc00
07fe00
0f7f80
1e77c0
3c73f0
7871fe
f070ff
c0f03f
00f000
00f000
007000
006000
ENDCHAR
STARTCHAR Ca5de
ENCODING 42462
SWIDTH 666 0
DWIDTH 24 0
BBX 24 24 0 -2
BITMAP
000000
000000
00e000
00f000
007000
007000
3077e0
33fff8
3fc0f8
7800f8
7000c0
706000
307000
033800
039c00
038e00
078700
0e03c0
1c01f0
3801fc
f000ff
c0007f
000000
000000
ENDCHAR
STARTCHAR Ca5df
ENCODING 42463
SWIDTH 666 0
DWIDTH 24 0
BBX 24 24 0 -2
BITMAP
000000
000000
007800
003c00
001c00
001800
0001e0
007ff0
0fffe0
0f8300
000380
030780
03c780
01c700
01ce00
00dc00
001800
003818
07fffe
ffffff
7e0007
200000
000000
000000
ENDCHAR
STARTCHAR Ca5e0
ENCODING 42464
SWIDTH 666 0
DWIDTH 24 0
BBX 24 24 0 -2
BITMAP
000000
000c00
003e00
07ff00
07cf00
001c00
0039c0
00f1e0
0173e0
07b700
3fbc00
7b3e00
073380
0e31e0
0c30fc
18f07e
30f038
607000
000000
001fc0
3fffe0
3f8040
000000
000000
ENDCHAR
STARTCHAR Ca5e1
ENCODING 42465
SWIDTH 666 0
DWIDTH 24 0
BBX 24 24 0 -2
BITMAP
000000
000000
000700
000f80
003f00
01f800
07f800
043800
003f80
03ff80
03f804
0039ff
00ffff
fff800
fe7000
007200
00e380
01c3c0
03ffe0
0ff8e0
0fc0e0
0e0060
000000
000000
ENDCHAR
STARTCHAR Ca5e2
ENCODING 42466
SWIDTH 666 0
DWIDTH 24 0
BBX 24 24 0 -2
BITMAP
001800
001c00
003e00
007e00
00f800
07c000
070000
0307c0
03ffc0
03fe00
038e00
038e00
038c00
039ffc
3ffffe
ff000e
f1c000
00e000
01f000
03c000
078000
0f0000
1c0000
380000
ENDCHAR
STARTCHAR Ca5e3
ENCODING 42467
SWIDTH 666 0
DWIDTH 24 0
BBX 24 24 0 -2
BITMAP
000c00
000e00
001e00
003e00
00f800
03c000
038080
0387e0
01ffe0
01ff00
018700
018700
01863c
01ffff
ffffff
fe0000
000000
000200
0003c0
0001e0
0000f0
0000f0
000070
000060
ENDCHAR
STARTCHAR Ca5e4
ENCODING 42468
SWIDTH 666 0
DWIDTH 24 0
BBX 24 24 0 -2
BITMAP
001800
1c1c00
1e1c00
0e0c00
0e0c00
0e0c00
0efc00
0ffc00
0f0c00
0e1c00
0e1c00
0c1800
0c9800
0fd800
fff800
e1f800
e1dc00
e1dc04
61cc06
618e06
7f8f0f
7f87ff
6003fe
000000
ENDCHAR
STARTCHAR Ca5e5
ENCODING 42469
SWIDTH 666 0
DWIDTH 24 0
BBX 24 24 0 -2
BITMAP
000000
000000
0001e0
007fe0
0fff40
073800
003800
007f80
007fc0
00e1c0
00f3c0
01ff80
019f00
039e00
07fe00
07ec00
001c00
003818
003ffe
3fffff
ff8007
780000
000000
000000
ENDCHAR
STARTCHAR Ca5e6
ENCODING 42470
SWIDTH 666 0
DWIDTH 24 0
BBX 24 24 0 -2
BITMAP
000000
00f000
007800
003800
003be0
01fff0
3ffff0
3e0000
038f00
038780
0793c0
0e1dc0
1f1c00
139c00
00f800
007800
00f800
01fe00
03cf80
0787e0
3e03fc
f800ff
c0007f
000000
ENDCHAR
STARTCHAR Ca5e7
ENCODING 42471
SWIDTH 666 0
DWIDTH 24 0
BBX 24 24 0 -2
BITMAP
000000
007800
003c00
003c00
001c0c
000bfe
01fffe
7fff00
3ce700
006700
006700
0ce740
0ce7f8
1ce73c
1ce71c
3cc70e
18c70c
01c700
039700
031f00
0e0f00
1c0f00
100600
000000
ENDCHAR
STARTCHAR Ca5e8
ENCODING 42472
SWIDTH 666 0
DWIDTH 24 0
BBX 24 24 0 -2
BITMAP
007000
007800
003800
001838
001ffe
0ffffe
fff000
787300
00f380
00c780
018f00
07fe00
07fd80
0739c0
0073c0
00e380
03c700
078f00
1e3dc0
3878f0
61e070
018030
000030
000000
ENDCHAR
STARTCHAR Ca5e9
ENCODING 42473
SWIDTH 666 0
DWIDTH 24 0
BBX 24 24 0 -2
BITMAP
000000
020000
038780
038780
038380
070380
0e038f
0e01ff
1cffff
3eff80
764380
e603f8
8607fc
06071c
060e38
060c38
061c38
0e3870
0e3070
0e63e0
0ec3e0
0401c0
000180
000000
ENDCHAR
STARTCHAR Ca5ea
ENCODING 42474
SWIDTH 666 0
DWIDTH 24 0
BBX 24 24 0 -2
BITMAP
000000
000000
070700
030780
070700
060300
0e030e
1c03ff
1cffff
3df800
76c180
e61fc0
c61fc0
061dc0
061d80
061980
061901
0e3901
0e3183
0e71ff
0ee0ff
05c01c
000000
000000
ENDCHAR
STARTCHAR Ca5eb
ENCODING 42475
SWIDTH 666 0
DWIDTH 24 0
BBX 24 24 0 -2
BITMAP
000000
000c00
038f00
038700
038700
070730
070738
0e0678
1c46f8
1e67c0
3e7f00
7e7e00
ee7f00
ce3f00
0e1d80
0e1dc0
0e38e0
0c70f0
0cf078
1dc03e
0f803f
0c001f
0c0000
000000
ENDCHAR
STARTCHAR Ca5ec
ENCODING 42476
SWIDTH 666 0
DWIDTH 24 0
BBX 24 24 0 -2
BITMAP
038000
03c000
03c000
0380f8
07bff8
0f7e38
0e0e38
1c063f
3e3fff
77fffb
e7ce70
860e70
0e1ff8
0efff0
0eec00
0e1c00
0e1c00
0e1800
0c3800
0c7000
0c7000
00e000
01c000
000000
ENDCHAR
STARTCHAR Ca5ed
ENCODING 42477
SWIDTH 666 0
DWIDTH 24 0
BBX 24 24 0 -2
BITMAP
000000
000e00
060700
070700
070700
0f0640
0e07e0
1cffc0
387e00
380600
780ffc
f83ffc
dbfe00
19ce00
180f00
181f80
1819c0
1838e0
1830f0
18607c
18e03f
19803f
190018
000000
ENDCHAR
STARTCHAR Ca5ee
ENCODING 42478
SWIDTH 666 0
DWIDTH 24 0
BBX 24 24 0 -2
BITMAP
000000
030000
038040
0381e0
078fe0
0f1f00
0e0700
1c0700
3c0e00
3c0ee0
7c0ff0
ec7ef0
8c7cf0
0c1ce0
0c38e0
0c39c0
0c31cc
0c7fff
1dffff
1de003
1c0000
0c0000
0c0000
000000
ENDCHAR
STARTCHAR Ca5ef
ENCODING 42479
SWIDTH 666 0
DWIDTH 24 0
BBX 24 24 0 -2
BITMAP
001c00
031e78
078e78
038e18
070e00
070638
0e06f8
0c07f0
1c0f00
3e3f70
3e7370
760370
e603f0
c603e0
0601c0
0e03c0
0e07e0
0e0ef0
0e1c73
0e303b
0e003f
0e001f
04000f
000003
ENDCHAR
STARTCHAR Ca5f0
ENCODING 42480
SWIDTH 666 0
DWIDTH 24 0
BBX 24 24 0 -2
BITMAP
000c00
000e00
038700
038700
078600
070600
0e0600
1c07f8
1c7ff8
3cfe00
7c7f00
ec1f00
cc3fc0
0c76e0
0ce6f0
0ce678
0d863e
0f061f
1c061f
1c0600
0c0600
0c0600
000600
000000
ENDCHAR
STARTCHAR Ca5f1
ENCODING 42481
SWIDTH 666 0
DWIDTH 24 0
BBX 24 24 0 -2
BITMAP
000000
000e00
038f00
03c770
03c778
078738
070718
0e0718
1c07fc
1e3ffc
3e7f00
662600
c60f00
060f80
060f80
061cc0
061ce0
0e3878
0e703c
0ee03e
0e801f
0e000f
000000
000000
ENDCHAR
STARTCHAR Ca5f2
ENCODING 42482
SWIDTH 666 0
DWIDTH 24 0
BBX 24 24 0 -2
BITMAP
000300
038380
01c3c0
03c180
038180
070180
0e01fe
0effff
1eff8f
3e718e
76318c
e6319c
c63ffc
063f80
061980
060180
060180
060380
060380
060380
060380
000380
000180
000000
ENDCHAR
STARTCHAR Ca5f3
ENCODING 42483
SWIDTH 666 0
DWIDTH 24 0
BBX 24 24 0 -2
BITMAP
060700
070780
078380
072380
0f3b80
0e3b60
1c3ff0
3c7ff0
7c7b00
6cc300
cc031c
8c07ff
0dffff
0de300
1c0300
1c0300
1c0300
1c0300
1c0300
1c0300
080300
000300
000300
000300
ENDCHAR
STARTCHAR Ca5f4
ENCODING 42484
SWIDTH 666 0
DWIDTH 24 0
BBX 24 24 0 -2
BITMAP
000000
000000
01c0c0
01e0f0
01e1f0
03c3e0
078f80
0f1f80
0e0380
1f0380
3b0386
7303ff
e31fff
c3ff80
076380
070380
070380
070398
073ffe
077ffe
063000
060000
000000
000000
ENDCHAR
STARTCHAR Ca5f5
ENCODING 42485
SWIDTH 666 0
DWIDTH 24 0
BBX 24 24 0 -2
BITMAP
070000
038000
039c00
071c00
063c1e
0e7bff
1ce3c6
1ce1c6
3ee1c6
7ecdce
eed9fe
cef9fe
0ef1de
0ee1cc
0ec1c0
0c41c0
0e01c0
0c01c0
0c01c0
0c0180
000180
000180
000180
000080
ENDCHAR
STARTCHAR Ca5f6
ENCODING 42486
SWIDTH 666 0
DWIDTH 24 0
BBX 24 24 0 -2
BITMAP
060000
070000
038000
078300
070380
0fc380
0ee380
1ce19c
3ce19c
3c6dbc
7c7ff0
ec79c0
cc6180
0ce180
0ced80
0cfd82
0cf986
0cf186
0de1de
0cc1ff
1c00fe
0c0000
0c0000
0c0000
ENDCHAR
STARTCHAR Ca5f7
ENCODING 42487
SWIDTH 666 0
DWIDTH 24 0
BBX 24 24 0 -2
BITMAP
000000
020000
038780
03c3c0
03c0e0
079878
071c3e
0e3c1f
1c380f
3e7000
7ee1f8
e6fff8
c63f38
060730
060e30
060e30
061c70
0e3870
0ef3f0
0fc1e0
0f81e0
0e00c0
060000
000000
ENDCHAR
STARTCHAR Ca5f8
ENCODING 42488
SWIDTH 666 0
DWIDTH 24 0
BBX 24 24 0 -2
BITMAP
000000
003800
003c00
003800
007c00
00fe00
00e700
01c3c0
0381e0
07b8f0
0f1c7c
1e1c3f
381c1f
771f8c
e79f80
839c00
039800
039800
019800
0199f0
03fff8
3ffffc
3e0000
000000
ENDCHAR
ENDFONT
